<?xml version="1.0" encoding="UTF-8" standalone="no"?>
<!-- Uploaded to: SVG Repo, www.svgrepo.com, Generator: SVG Repo Mixer Tools -->

<svg
   width="800px"
   height="800px"
   viewBox="0 0 100 100"
   aria-hidden="true"
   role="img"
   class="iconify iconify--gis"
   preserveAspectRatio="xMidYMid meet"
   version="1.1"
   id="svg184"
   sodipodi:docname="africa.svg"
   xml:space="preserve"
   inkscape:version="1.2.2 (b0a8486, 2022-12-01)"
   xmlns:inkscape="http://www.inkscape.org/namespaces/inkscape"
   xmlns:sodipodi="http://sodipodi.sourceforge.net/DTD/sodipodi-0.dtd"
   xmlns="http://www.w3.org/2000/svg"
   xmlns:svg="http://www.w3.org/2000/svg"><defs
     id="defs188" /><sodipodi:namedview
     id="namedview186"
     pagecolor="#ffffff"
     bordercolor="#666666"
     borderopacity="1.0"
     inkscape:showpageshadow="2"
     inkscape:pageopacity="0.0"
     inkscape:pagecheckerboard="0"
     inkscape:deskcolor="#d1d1d1"
     showgrid="false"
     inkscape:zoom="0.74246212"
     inkscape:cx="253.21157"
     inkscape:cy="400.02041"
     inkscape:window-width="1920"
     inkscape:window-height="1043"
     inkscape:window-x="1920"
     inkscape:window-y="0"
     inkscape:window-maximized="1"
     inkscape:current-layer="svg184" /><g
     inkscape:label="Layer 1"
     id="layer1"
     transform="matrix(0.81233198,0,0,0.81233198,-28.17064,-28.216507)"
     style="stroke-width:0.581586"><path
       class="Angola"
       d="m 106.8794,117.06888 0.15875,0.52917 -0.18521,0.82021 0.23813,0.79375 -0.23813,0.635 0.10583,0.58208 -3.09562,-0.0265 -0.21167,5.42396 0.9525,1.37584 0.9525,1.05833 -2.75166,0.68792 -3.571879,-0.23813 -1.005416,-0.79375 -6.006042,0.0529 -0.211667,0.13229 -0.873125,-0.76729 -0.9525,-0.0529 -0.899583,0.29104 -0.714375,0.3175 -0.132292,-1.05833 0.238125,-1.50813 0.529167,-1.56104 0.07937,-0.71437 0.502708,-1.53459 0.370417,-0.68791 0.873125,-1.11125 0.502708,-0.76729 0.15875,-1.24355 -0.07937,-0.97895 -0.423333,-0.60855 -0.396875,-1.03187 -0.343958,-1.00542 0.07937,-0.37041 0.449791,-0.66146 -0.423333,-1.64042 -0.3175,-1.13771 -0.740833,-1.08479 0.15875,-0.3175 0.608541,-0.23812 0.449792,0.0264 0.529167,-0.1852 4.418541,0.0264 0.343959,1.24355 0.423333,1.03187 0.343958,0.55563 0.555625,0.87312 1.005417,-0.13229 0.47625,-0.23813 0.820208,0.23813 0.238125,-0.42333 0.396884,-0.97896 0.92604,-0.0794 0.0794,-0.29104 h 0.76729 l -0.13229,0.60854 1.79917,-0.0265 0.0265,1.0848 0.29104,0.635 -0.23813,1.03187 0.10584,1.05833 0.47625,0.635 -0.10584,2.01084 0.37042,-0.15875 0.635,0.0529 0.92604,-0.26458 z"
       id="path995"
       style="stroke-width:0.153878" /><path
       class="Angola"
       d="m 89.443358,108.33763 -0.396875,-1.27 0.608542,-0.74083 0.449791,-0.29104 0.555625,0.58208 -0.529166,0.37042 -0.264584,0.42333 -0.05292,0.74084 z"
       id="path997"
       style="stroke-width:0.153878" /><path
       d="m 115.79586,106.06222 -0.15875,0.0265 v -0.0794 l -0.52917,-1.61396 -0.003,-0.0159 -0.0238,-0.27517 -0.37041,-0.76729 0.92604,0.13229 0.44979,-0.97896 0.82021,0.10584 0.0794,0.66145 0.3175,0.39688 v 0.55562 l -0.37041,0.34396 -0.60855,0.89959 z"
       id="BI"
       name="Burundi"
       style="stroke-width:0.153878" /><path
       d="m 76.584608,78.704302 -0.05292,0.555625 0.343958,1.005417 -0.291042,0.687916 0.15875,0.449792 -0.740833,1.058333 -0.449792,0.529167 -0.291041,1.058333 0.05292,1.084792 -0.07938,2.725208 -1.243541,0.211667 -0.370417,-1.164167 0.07937,-3.915833 -0.3175,-0.343958 -0.05292,-0.846667 -0.529166,-0.582083 -0.449792,-0.502709 0.185208,-0.899583 0.529167,-0.185208 0.291042,-0.740834 0.740833,-0.15875 0.3175,-0.502708 0.502708,-0.502708 h 0.52918 z"
       id="BJ"
       name="Benin"
       style="stroke-width:0.153878" /><path
       d="m 71.769192,73.148052 -0.132292,0.820208 0.211667,0.767292 0.820208,1.11125 0.05292,0.820208 1.719791,0.396875 -0.02646,1.164167 -0.3175,0.502708 -0.740833,0.15875 -0.291042,0.740834 -0.529167,0.185208 -1.296458,-0.02646 -0.687917,-0.132292 -0.47625,0.264583 -0.661458,-0.132291 -2.592917,0.07937 -0.05292,0.978958 0.211666,1.27 -1.031875,-0.423333 -0.687916,0.05292 -0.529167,0.423334 -0.661458,-0.343959 -0.264584,-0.582083 -0.661458,-0.370417 -0.105833,-0.978958 0.423333,-0.714375 -0.05292,-0.582083 1.190625,-1.402292 0.238125,-1.164167 0.396875,-0.423333 0.714375,0.238125 0.635,-0.343958 0.211667,-0.449792 1.137708,-0.740833 0.291042,-0.529167 1.402292,-0.714375 0.820208,-0.238125 0.370417,0.3175 z"
       id="BF"
       name="Burkina Faso"
       style="stroke-width:0.153878" /><path
       d="m 108.57273,128.63118 0.50271,1.34937 0.29104,0.3175 0.42334,0.97896 1.61395,1.85208 0.60855,0.18521 -0.0265,0.60854 0.39687,1.08479 1.13771,0.26459 0.89958,0.76729 -2.14312,1.24354 -1.37583,1.27 -0.52917,1.13771 -0.47625,0.635 -0.79375,0.13229 -0.3175,0.82021 -0.15875,0.52917 -0.9525,0.37041 -1.19063,-0.0794 -0.66145,-0.47625 -0.60855,-0.18521 -0.74083,0.37042 -0.39687,0.8202 -0.71438,0.50271 -0.74083,0.76729 -1.05834,0.18521 -0.29104,-0.60854 0.15875,-1.03187 -0.79375,-1.61396 -0.37041,-0.26459 0.15875,-4.9477 1.4552,-0.0529 0.21167,-6.05896 1.11125,-0.0529 2.30188,-0.60854 0.52916,0.71438 0.97896,-0.66146 h 0.44979 l 0.84667,-0.39688 z"
       id="BW"
       name="Botswana"
       style="stroke-width:0.153878" /><path
       d="m 106.90586,83.863677 1.03187,0.661458 0.82021,0.687917 0.0265,0.555625 1.03187,0.873125 0.635,0.740833 0.37042,1.005417 1.13771,0.687916 0.23812,0.529167 -0.47625,0.185208 -0.97895,-0.02646 -1.11125,-0.185208 -0.55563,0.132291 -0.23812,0.423334 -0.47625,0.05292 -0.58209,-0.370416 -1.66687,0.846666 -0.68792,-0.15875 -0.21167,0.132292 -0.42333,1.031875 -1.13771,-0.343958 -1.08479,-0.15875 -0.9525,-0.635 -1.24354,-0.582084 -0.79375,0.555625 -0.582084,0.846667 -0.132291,1.190625 -0.9525,-0.07937 -1.031875,-0.291042 -0.873125,0.899584 -0.79375,1.5875 -0.15875,-0.502709 -0.07937,-0.767291 -0.687917,-0.555625 -0.555625,-0.873125 -0.132292,-0.608542 -0.714375,-0.899583 0.132292,-0.502709 -0.15875,-0.714375 0.105833,-1.322916 0.370417,-0.291042 0.740833,-1.719792 1.217084,-0.132291 0.264583,-0.449792 0.264583,0.05292 0.370417,0.370416 1.878542,-0.635 0.635,-0.661458 0.767291,-0.608541 -0.15875,-0.582084 0.423334,-0.15875 1.455215,0.105834 1.37583,-0.79375 1.05833,-1.852084 0.74084,-0.687916 0.9525,-0.291042 0.18521,0.714375 0.87312,1.058333 v 0.714375 l -0.21167,0.687917 0.10584,0.529167 0.50271,0.502708 z"
       id="CF"
       name="Central African Republic"
       style="stroke-width:0.153878" /><path
       d="m 63.143775,80.873885 0.661458,0.370417 0.264584,0.582083 0.661458,0.343959 0.529167,-0.423334 0.687916,-0.05292 1.031875,0.423333 0.396875,2.434167 -0.635,1.402291 -0.396875,1.931458 0.635,1.455209 -0.05292,0.687916 H 66.2394 l -1.031875,-0.3175 h -0.978958 l -1.772709,0.3175 -1.031874,0.47625 -1.481667,0.635 -0.291042,-0.05292 0.105834,-1.402292 0.15875,-0.211667 -0.05292,-0.661458 -0.635,-0.714375 -0.47625,-0.105833 -0.423333,-0.47625 0.3175,-0.767292 -0.132292,-0.820208 0.05292,-0.47625 h 0.238125 l 0.105833,-0.740833 -0.105833,-0.343959 0.132291,-0.238125 0.555625,-0.185208 -0.370416,-1.375833 -0.343959,-0.687917 0.132292,-0.582083 0.291042,-0.132292 0.211666,-0.15875 0.396875,0.264583 h 1.164167 l 0.264583,-0.47625 0.264584,0.02646 0.423333,-0.185209 0.238125,0.714375 0.343958,-0.211666 z"
       id="CI"
       name="Côte d'Ivoire"
       style="stroke-width:0.153878" /><path
       d="m 94.073566,85.900968 -0.740833,1.719792 -0.370417,0.291042 -0.105833,1.322916 0.15875,0.714375 -0.132292,0.502709 0.714375,0.899583 0.132292,0.608542 0.555625,0.873125 0.687917,0.555625 0.07937,0.767291 0.15875,0.502709 -0.105834,0.899583 -1.190625,-0.396875 -1.217083,-0.449792 -1.878542,-0.05292 -0.185208,-0.105834 -0.899583,0.211667 -0.899584,-0.211667 -0.714375,0.105834 -2.460624,-0.02646 0.238125,-1.349375 -0.608542,-1.137708 -0.687917,-0.264583 -0.291041,-0.767292 -0.396875,-0.238125 0.02646,-0.47625 0.370417,-1.217083 0.714375,-1.640417 h 0.423333 l 0.899583,-1.005417 0.555625,-0.02646 0.846667,0.714375 1.031875,-0.582083 0.132291,-0.714375 0.343959,-0.687917 0.211666,-0.846666 0.79375,-0.687917 0.291042,-1.190625 0.3175,-0.396875 0.211667,-0.873125 0.370416,-1.084792 1.243542,-1.322916 0.07937,-0.555625 0.15875,-0.3175 -0.608542,-0.661459 0.05292,-0.555625 0.396875,-0.07937 0.608542,1.084792 0.132291,1.11125 -0.05292,1.137708 0.846666,1.534584 h -0.846666 l -0.423334,0.105833 -0.687916,-0.15875 -0.3175,0.79375 0.899583,1.005417 0.661458,0.291041 0.211667,0.687917 0.47625,1.164166 z"
       id="CM"
       name="Cameroon"
       style="stroke-width:0.153878" /><path
       d="m 112.19752,89.605135 0.92605,1.402292 0.68791,0.211666 0.39688,-0.291041 0.68791,0.105833 0.82021,-0.343958 0.37042,0.714375 1.34937,1.137708 -0.0794,1.984375 0.60854,0.238125 -0.50271,0.582083 -0.55562,0.47625 -0.58209,0.873125 -0.3175,0.79375 -0.0794,1.349375 -0.34396,0.661459 -0.0265,1.269998 -0.42333,0.47625 -0.0529,1.00542 -0.21166,0.13229 -0.15875,0.9525 0.37041,0.76729 0.0265,0.26458 -0.3175,2.72521 0.39688,0.9525 -0.26459,0.71438 0.47625,1.21708 0.89959,0.92604 0.1852,0.92604 0.42334,0.4498 -0.0794,0.29104 -0.23812,-0.0794 -2.03729,0.29104 -0.39688,0.21167 -0.44979,1.08479 0.3175,0.74084 -0.29104,2.01083 -0.23813,1.69333 0.39688,0.3175 1.03187,0.66146 0.42334,-0.3175 0.0529,1.82563 h -1.13771 l -0.58208,-0.92605 -0.52917,-0.74083 -1.1377,-0.23812 -0.3175,-0.87313 -0.92605,0.52917 -1.16416,-0.23813 -0.50271,-0.76729 -0.92604,-0.15875 -0.71438,0.0265 -0.0794,-0.52917 -0.50271,-0.0265 -0.68792,-0.10583 -0.92604,0.26458 -0.635,-0.0529 -0.37042,0.15875 0.10584,-2.01084 -0.47625,-0.635 -0.10584,-1.05833 0.23813,-1.03187 -0.29104,-0.635 -0.0265,-1.0848 -1.79917,0.0265 0.13229,-0.60854 h -0.76729 l -0.0794,0.29104 -0.92604,0.0794 -0.396879,0.97896 -0.238125,0.42333 -0.820208,-0.23813 -0.47625,0.23813 -1.005417,0.13229 -0.555625,-0.87312 -0.343958,-0.55563 -0.423333,-1.03187 -0.343959,-1.24355 -4.418541,-0.0264 -0.529167,0.1852 -0.449792,-0.0264 -0.608541,0.23812 -0.211667,-0.52917 0.370417,-0.1852 0.05292,-0.74084 0.264584,-0.42333 0.529166,-0.37042 0.396875,0.18521 0.529167,-0.66146 0.820208,0.0265 0.07937,0.47625 0.555625,0.29104 0.899584,-1.05833 0.873125,-0.82021 0.370416,-0.55562 -0.02646,-1.4023 0.661458,-1.64041 0.687917,-0.87313 0.978958,-0.820205 0.185209,-0.529167 0.02646,-0.635 0.238125,-0.582083 -0.07937,-0.978958 0.185208,-1.508125 0.291042,-1.058334 0.449792,-0.899583 0.07937,-1.031875 0.132291,-1.190625 0.582084,-0.846667 0.793751,-0.555625 1.24354,0.582084 0.9525,0.635 1.08479,0.15875 1.13771,0.343958 0.42333,-1.031875 0.21167,-0.132292 0.68792,0.15875 1.66687,-0.846666 0.58209,0.370416 0.47625,-0.05292 0.23812,-0.423334 0.55563,-0.132291 1.11125,0.185208 0.97895,0.02646 z"
       id="CD"
       name="Democratic Republic of the Congo"
       style="stroke-width:0.153878" /><path
       d="m 98.862525,92.54201 -0.07937,1.031875 -0.449792,0.899583 -0.291042,1.058334 -0.185208,1.508125 0.07937,0.978958 -0.238125,0.582083 -0.02646,0.635 -0.185209,0.529167 -0.978958,0.820205 -0.687917,0.87313 -0.661458,1.64041 0.02646,1.4023 -0.370416,0.55562 -0.873125,0.82021 -0.899584,1.05833 -0.555625,-0.29104 -0.07937,-0.47625 -0.820208,-0.0265 -0.529167,0.66146 -0.396875,-0.18521 -0.555625,-0.58208 -0.449791,0.29104 -0.608542,0.74083 -1.217083,-1.79916 1.137708,-0.9525 -0.555625,-1.11125 0.529167,-0.42334 1.005416,-0.21166 0.105834,-0.76729 0.820208,0.8202 1.322917,0.0794 0.449791,-0.79375 0.185209,-1.13771 -0.15875,-1.322915 -0.714375,-1.005417 0.661458,-1.984375 -0.370417,-0.3175 -1.11125,0.132292 -0.423333,-0.873125 0.105833,-0.740833 1.878542,0.05292 1.217083,0.449792 1.190625,0.396875 0.105834,-0.899583 0.79375,-1.5875 0.873125,-0.899584 1.031875,0.291042 z"
       id="CG"
       name="Republic of Congo"
       style="stroke-width:0.153878" /><path
       d="m 135.53377,79.021802 -0.5027,0.926042 -0.34396,-0.3175 -0.34396,0.132291 -0.84667,-0.02646 -0.0529,-0.529167 -0.1323,-0.47625 0.47625,-0.79375 0.50271,-0.740833 0.635,0.15875 0.44979,-0.423333 0.37042,0.529166 -0.0265,0.687917 -0.82021,0.423333 z"
       id="DJ"
       name="Djibouti"
       style="stroke-width:0.153878" /><path
       d="m 83.013983,35.735969 -0.264583,0.873125 0.264583,1.613958 -0.291041,1.402292 -0.846667,0.9525 0.15875,1.27 1.190625,1.031875 0.02646,0.396875 0.899584,0.687917 0.687916,3.042708 0.502709,1.508125 0.105833,0.79375 -0.211667,1.375833 0.105834,0.79375 -0.15875,0.926042 0.15875,1.058333 -0.582084,0.714375 0.899584,1.243542 0.05292,0.714375 0.555625,0.9525 0.661459,-0.3175 1.190624,0.79375 0.661459,1.058333 -4.974167,3.254375 -4.233333,3.33375 -2.06375,0.740833 -1.640417,0.185209 -0.02646,-1.084792 -0.687917,-0.291042 -0.926041,-0.47625 -0.343959,-0.79375 -4.947708,-3.704166 -4.92125,-3.704167 -5.423958,-4.1275 0.02646,-0.3175 0.02646,-0.105833 0.02646,-2.010833 2.354792,-1.27 1.428749,-0.264584 1.190625,-0.449791 0.555625,-0.846667 1.693334,-0.661458 0.07937,-1.27 0.820208,-0.15875 0.661458,-0.608542 1.878542,-0.291042 0.264583,-0.661458 -0.370416,-0.370417 -0.502709,-1.799166 -0.07937,-1.031875 -0.502708,-1.084792 1.349375,-0.926042 1.534583,-0.291041 0.873125,-0.687917 1.349375,-0.529167 2.38125,-0.291041 2.328334,-0.132292 0.714375,0.238125 1.296458,-0.661458 1.508125,-0.02646 0.582083,0.396875 z"
       id="DZ"
       name="Algeria"
       style="stroke-width:0.153878" /><path
       d="m 120.34669,45.472636 1.03188,2.487083 0.1852,0.423333 -0.34395,0.687917 -0.18521,1.27 -0.3175,0.899583 -0.3175,0.291042 -0.52917,-0.555625 -0.71437,-0.740833 -1.24355,-2.434167 -0.13229,0.15875 0.74084,1.772708 1.03187,1.719792 1.29646,2.645833 0.60854,0.926042 0.52917,0.9525 1.42875,1.878542 -0.26459,0.291041 0.10584,1.11125 1.79916,1.534583 0.29105,0.343959 h -5.8473 -5.68854 -5.90021 l -0.26458,-6.270625 -0.34396,-6.0325 -0.52916,-1.375833 0.29104,-1.031875 -0.26459,-0.740834 0.4498,-0.820208 1.905,-0.02646 1.42875,0.449791 1.4552,0.502709 0.68792,0.264583 1.05833,-0.529167 0.55563,-0.47625 1.24354,-0.15875 1.03188,0.211667 0.47625,0.846667 0.29104,-0.555625 1.16416,0.396875 1.13771,0.105833 z"
       id="EG"
       name="Egypt"
       style="stroke-width:0.153878" /><path
       d="m 135.37502,76.931594 -0.44979,0.423333 -0.635,-0.15875 -0.52916,-0.555625 -0.66146,-0.978958 -0.68792,-0.555625 -0.39687,-0.582084 -1.32292,-0.687916 -1.03188,-0.02646 -0.37041,-0.343958 -0.84667,0.396875 -0.9525,-0.767292 -0.39687,1.27 -1.74625,-0.370416 -0.18521,-0.661459 0.52916,-2.513541 0.0794,-1.11125 0.44979,-0.529167 1.05833,-0.291042 0.71438,-0.9525 0.9525,1.957917 0.50271,1.561042 0.84666,0.820208 2.11667,1.613958 0.87313,0.9525 0.84666,1.005417 0.47625,0.582083 z"
       id="ER"
       name="Eritrea"
       style="stroke-width:0.153878" /><path
       d="m 129.66002,73.80951 1.03188,0.02646 1.32292,0.687916 0.39687,0.582084 0.68792,0.555625 0.66146,0.978958 0.52916,0.555625 -0.50271,0.740833 -0.47625,0.79375 0.1323,0.47625 0.0529,0.529167 0.84667,0.02646 0.34396,-0.132291 0.34396,0.3175 -0.3175,0.582083 0.58208,0.9525 0.58208,0.820208 0.58209,0.608542 4.9477,2.010833 1.27,-0.02646 -4.1275,5.106458 -1.93145,0.07937 -1.32292,1.190625 -0.9525,0.02646 -0.39688,0.555625 h -1.03187 l -0.60854,-0.582083 -1.37584,0.714375 -0.42333,0.714375 -1.00542,-0.15875 -0.34395,-0.185208 -0.34396,0.05292 -0.47625,-0.02646 -1.905,-1.42875 h -1.05834 l -0.5027,-0.555625 -0.0265,-0.9525 -0.76729,-0.291042 -0.92605,-1.852083 -0.68791,-0.396875 -0.26459,-0.687917 -0.79375,-0.820208 -0.92604,-0.132292 0.50271,-0.952499 0.79375,-0.05292 0.21167,-0.502708 -0.0529,-1.322917 V 82.22326 l 0.39688,-1.772708 0.68791,-0.47625 0.13229,-0.687917 0.60855,-1.322916 0.87312,-0.820209 0.52917,-1.693333 0.18521,-1.455208 1.74625,0.370416 0.39687,-1.27 0.9525,0.767292 0.84667,-0.396875 z"
       id="ET"
       name="Ethiopia"
       style="stroke-width:0.153878" /><path
       d="m 90.819191,94.658677 -0.105833,0.740833 0.423333,0.873125 1.11125,-0.132292 0.370417,0.3175 -0.661458,1.984375 0.714375,1.005417 0.15875,1.322915 -0.185209,1.13771 -0.449791,0.79375 -1.322917,-0.0794 -0.820208,-0.8202 -0.105834,0.76729 -1.005416,0.21166 -0.529167,0.42334 0.555625,1.11125 -1.137708,0.9525 -1.534583,-1.71979 -0.978959,-1.4023 -0.926041,-1.74625 0.05292,-0.582078 0.343959,-0.529167 0.343958,-1.243542 0.3175,-1.27 0.502708,-0.07938 h 2.169583 v -2.037291 l 0.714375,-0.105834 0.899584,0.211667 0.899583,-0.211667 z"
       id="GA"
       name="Gabon"
       style="stroke-width:0.153878" /><path
       d="m 71.240025,79.789094 -0.105833,0.529166 0.608541,0.873125 v 1.243542 l 0.15875,1.322917 0.370417,0.635 -0.343958,1.508124 0.132291,0.846667 0.396875,1.084792 0.343959,0.608541 -2.354792,0.978959 -0.846667,0.582083 -1.349375,0.502708 -1.322916,-0.47625 0.05292,-0.687916 -0.635,-1.455209 0.396875,-1.931458 0.635,-1.402291 -0.396875,-2.434167 -0.211666,-1.27 0.05292,-0.978958 2.592917,-0.07937 0.661458,0.132291 0.47625,-0.264583 z"
       id="GH"
       name="Ghana"
       style="stroke-width:0.153878" /><path
       d="m 54.042109,77.354927 0.07937,0.635 h 0.238125 l 0.396875,-0.238125 0.238125,0.05292 0.423333,0.449791 0.635,0.132292 0.396875,-0.370417 0.502708,-0.238125 0.343959,-0.238125 0.291041,0.05292 0.343959,0.370417 0.15875,0.47625 0.608541,0.714375 -0.291041,0.423333 -0.07937,0.555625 0.3175,-0.15875 0.185208,0.185208 -0.07937,0.502709 0.449792,0.502708 -0.291042,0.132292 -0.132292,0.582083 0.343959,0.687917 0.370416,1.375833 -0.555625,0.185208 -0.132291,0.238125 0.105833,0.343959 -0.105833,0.740833 h -0.238125 l -0.423334,-0.05292 -0.291041,0.687917 H 57.42878 l -0.291041,-0.370417 0.105833,-0.687917 -0.635,-1.031874 -0.370417,0.185208 -0.343958,0.05292 -0.396875,0.07937 0.02646,-0.608542 -0.238125,-0.449792 0.05292,-0.502708 -0.3175,-0.714375 -0.423333,-0.608542 h -1.190625 l -0.343959,0.3175 -0.423333,0.05292 -0.264583,0.370417 -0.15875,0.449791 -0.820209,0.767292 -0.635,-1.005417 -0.582083,-0.661458 -0.370417,-0.238125 -0.370416,-0.343958 -0.15875,-0.740834 -0.211667,-0.370416 -0.449792,-0.291042 0.687917,-0.820208 0.449792,0.02646 0.396875,-0.264583 0.3175,-0.02646 0.238125,-0.211666 -0.105834,-0.555625 0.15875,-0.185209 0.02646,-0.582083 0.714375,0.02646 1.084791,0.396875 0.3175,-0.02646 0.105834,-0.185208 0.820208,0.132291 z"
       id="GN"
       name="Guinea"
       style="stroke-width:0.153878" /><path
       d="m 46.131067,76.164302 0.211667,-0.767292 1.613958,-0.02646 0.343958,-0.423333 0.47625,-0.02646 0.582084,0.423334 h 0.449791 l 0.502709,-0.264584 0.291041,0.47625 -0.661458,0.396875 -0.635,-0.05292 -0.635,-0.343959 -0.555625,0.396875 h -0.264583 l -0.370417,0.238125 z"
       id="GM"
       name="The Gambia"
       style="stroke-width:0.153878" /><path
       d="m 50.787734,77.116802 -0.02646,0.582083 -0.15875,0.185209 0.105834,0.555625 -0.238125,0.211666 -0.3175,0.02646 -0.396875,0.264583 -0.449792,-0.02646 -0.687917,0.820208 -0.767291,-0.687917 -0.635,-0.132291 -0.343959,-0.47625 0.02646,-0.264584 -0.449792,-0.343958 -0.105833,-0.370417 0.79375,-0.264583 0.502708,0.05292 0.396875,-0.211667 z"
       id="GW"
       name="Guinea-Bissau"
       style="stroke-width:0.153878" /><path
       d="m 88.120441,94.658677 v 2.037291 h -2.169583 l -0.502708,0.07938 -0.291042,-0.238125 0.502709,-1.905 z"
       id="GQ"
       name="Equatorial Guinea"
       style="stroke-width:0.153878" /><path
       d="m 133.94627,91.854093 -1.29645,1.905 0.0529,6.19125 0.87313,1.402287 -1.05834,0.68792 -0.37041,0.71438 -0.58209,0.10583 -0.21166,1.21708 -0.50271,0.68792 -0.29104,1.11125 -0.60854,0.55562 -2.14313,-1.69333 -0.0794,-0.97896 -5.42396,-3.46604 0.10583,-1.24354 -0.37042,-0.661458 v -0.07937 l 0.42334,-0.687917 0.74083,-1.11125 0.55563,-1.243542 -0.68792,-1.957916 -0.18521,-0.846667 -0.71437,-1.190625 0.89958,-1.005417 1.00542,-1.11125 0.76729,0.291042 0.0265,0.9525 0.5027,0.555625 h 1.05834 l 1.905,1.42875 0.47625,0.02646 0.34396,-0.05292 0.34395,0.185208 1.00542,0.15875 0.42333,-0.714375 1.37584,-0.714375 0.60854,0.582083 z"
       id="KE"
       name="Kenya"
       style="stroke-width:0.153878" /><path
       d="m 58.566484,85.451177 -0.05292,0.47625 0.132292,0.820208 -0.3175,0.767292 0.423333,0.47625 0.47625,0.105833 0.635,0.714375 0.05292,0.661458 -0.15875,0.211667 -0.105834,1.402292 -0.396875,0.02646 -1.534583,-0.820208 -1.375833,-1.296459 -1.27,-0.926041 -1.005417,-1.084792 0.370417,-0.555625 0.07937,-0.502708 0.687916,-0.899584 0.687917,-0.793749 0.343958,-0.05292 0.370417,-0.185208 0.635,1.031874 -0.105833,0.687917 0.291041,0.370417 h 0.423334 L 58.14315,85.39826 Z"
       id="LR"
       name="Liberia"
       style="stroke-width:0.153878" /><path
       d="m 107.24982,44.864094 -0.4498,0.820208 0.26459,0.740834 -0.29104,1.031875 0.52916,1.375833 0.34396,6.0325 0.26458,6.270625 0.1323,3.386666 h -1.69334 v 0.714375 l -5.97958,-3.254375 -5.953125,-3.254375 -1.455209,0.926042 -1.005416,0.635 -0.846667,-0.926042 -2.328333,-0.740833 -0.661459,-1.058333 -1.190624,-0.79375 -0.661459,0.3175 -0.555625,-0.9525 -0.05292,-0.714375 -0.899584,-1.243542 0.582084,-0.714375 -0.15875,-1.058333 0.15875,-0.926042 -0.105834,-0.79375 0.211667,-1.375833 -0.105833,-0.79375 -0.502709,-1.508125 0.687917,-0.370417 0.105833,-0.740833 -0.15875,-0.687917 0.9525,-0.661458 0.423334,-0.555625 0.687916,-0.47625 0.02646,-1.296458 1.693333,0.582083 0.608541,-0.15875 1.190625,0.291042 1.931459,0.767291 0.740833,1.508125 1.296458,0.3175 2.06375,0.714375 1.5875,0.846667 0.661459,-0.449792 0.661458,-0.767291 -0.423333,-1.296459 0.396875,-0.846666 0.978958,-0.79375 0.97896,-0.211667 1.95792,0.343958 0.52916,0.740834 0.52917,0.02646 0.47625,0.291042 1.42875,0.185208 z"
       id="LY"
       name="Libya"
       style="stroke-width:0.153878" /><path
       d="m 111.61544,150.37993 -0.52917,0.1852 -0.97895,-1.32291 0.84666,-1.05834 0.82021,-0.66145 0.71438,-0.37042 0.58208,0.52917 0.44979,0.52916 -0.50271,0.82021 -0.29104,0.55563 -0.82021,0.26458 z"
       id="LS"
       name="Lesotho"
       style="stroke-width:0.153878" /><path
       d="m 68.1444,38.752219 0.502708,1.084792 0.07937,1.031875 0.502709,1.799166 0.370416,0.370417 -0.264583,0.661458 -1.878542,0.291042 -0.661458,0.608542 -0.820208,0.15875 -0.07937,1.27 -1.693334,0.661458 -0.555625,0.846667 -1.190625,0.449791 -1.428749,0.264584 -2.354792,1.27 -0.02646,2.010833 h -0.238125 l 0.02646,0.899583 -0.899583,0.05292 -0.47625,0.396875 H 56.3969 l -0.529166,-0.238125 -1.217084,0.185208 -0.502708,1.322917 -0.47625,0.132292 -0.714375,2.143125 -2.090208,1.825625 -0.529167,2.354791 -0.635,0.767292 -0.185208,0.608541 -3.307292,0.132292 h -0.02646 l 0.07937,-0.79375 0.582083,-0.449792 0.502708,-0.899583 -0.07937,-0.582083 0.529167,-1.190625 0.846667,-1.084792 0.502708,-0.264583 0.423333,-0.978958 0.05292,-0.926042 0.555625,-1.031875 1.005417,-0.635 0.9525,-1.719792 0.02646,-0.02646 0.767292,-0.661458 1.349375,-0.185209 1.164166,-1.164166 0.740834,-0.449792 1.243541,-1.42875 -0.3175,-2.090208 0.582084,-1.481667 0.238125,-0.899583 0.9525,-1.137709 1.42875,-0.767291 1.084791,-0.714375 0.978958,-1.74625 0.47625,-1.058334 1.031875,0.02646 0.820209,0.714375 1.349375,-0.105834 1.455208,0.370417 z"
       id="MA"
       name="Morocco"
       style="stroke-width:0.153878" /><path
       d="m 145.69377,121.54034 0.10584,2.03729 0.34396,0.79375 -0.18521,0.82021 -0.3175,0.47625 -0.42334,-0.97896 -0.3175,0.50271 0.21167,1.24354 -0.18521,0.74084 -0.44979,0.37041 -0.18521,1.45521 -0.71437,1.98438 -0.89959,2.32833 -1.1377,3.22792 -0.7673,2.35479 -0.8202,1.98437 -1.21709,0.39688 -1.34937,0.71437 -0.79375,-0.42333 -1.11125,-0.60854 -0.3175,-0.89958 v -1.50813 l -0.39688,-1.34937 -0.0529,-1.24355 0.34395,-1.21708 0.68792,-0.29104 0.0529,-0.55563 0.76729,-1.29645 0.21167,-1.0848 -0.29105,-0.79375 -0.21166,-1.08479 -0.0265,-1.56104 0.58208,-0.9525 0.26459,-1.08479 0.74083,-0.0529 0.84667,-0.34396 0.58208,-0.3175 0.635,-0.0264 0.89958,-0.9525 1.29646,-1.05834 0.47625,-0.84666 -0.15875,-0.74084 0.635,0.21167 0.87313,-1.16417 0.0794,-1.03187 0.52917,-0.76729 0.47625,0.74083 0.37041,0.71437 z"
       id="MG"
       name="Madagascar"
       style="stroke-width:0.153878" /><path
       d="m 77.51065,65.951385 0.02646,3.915834 -0.820208,1.137708 -0.105833,1.058333 -1.322917,0.264584 -2.037292,0.132291 -0.529166,0.608542 -0.9525,0.07938 h -0.9525 l -0.370417,-0.3175 -0.820208,0.238125 -1.402292,0.714375 -0.291042,0.529167 -1.137708,0.740833 -0.211667,0.449792 -0.635,0.343958 -0.714375,-0.238125 -0.396875,0.423333 -0.238125,1.164167 -1.190625,1.402292 0.05292,0.582083 -0.423333,0.714375 0.105833,0.978958 -0.635,0.264584 -0.343958,0.211666 -0.238125,-0.714375 -0.423333,0.185209 -0.264584,-0.02646 -0.264583,0.47625 H 59.81003 l -0.396875,-0.264583 -0.211666,0.15875 -0.449792,-0.502708 0.07937,-0.502709 -0.185208,-0.185208 -0.3175,0.15875 0.07937,-0.555625 0.291041,-0.423333 -0.608541,-0.714375 -0.15875,-0.47625 -0.343959,-0.370417 -0.291041,-0.05292 -0.343959,0.238125 -0.502708,0.238125 -0.396875,0.370417 -0.635,-0.132292 -0.423333,-0.449791 -0.238125,-0.05292 -0.396875,0.238125 h -0.238125 l -0.07937,-0.635 0.07937,-0.529167 -0.132292,-0.635 -0.529167,-0.47625 -0.291041,-0.978958 -0.05292,-1.058333 0.502708,-0.3175 0.264584,-1.005417 0.47625,-0.02646 1.031875,0.47625 0.846666,-0.343959 0.555625,0.105834 0.238125,-0.370417 5.953125,-0.02646 0.343958,-1.190625 -0.264583,-0.211667 -0.661458,-7.328958 -0.635,-7.328958 2.248958,-0.02646 4.92125,3.704167 4.947708,3.704166 0.343959,0.79375 0.926041,0.47625 0.687917,0.291042 0.02646,1.084792 z"
       id="ML"
       name="Mali"
       style="stroke-width:0.153878" /><path
       d="m 118.91794,143.92409 h -1.08479 l -0.0794,-0.76729 -0.15875,-0.76729 -0.10583,-0.60854 0.37042,-1.87854 -0.29104,-1.21709 -0.58209,-2.38125 1.64042,-1.93146 0.44979,-1.21708 0.21167,-0.15875 0.23812,-1.00542 -0.21166,-0.5027 0.10583,-1.27 0.34396,-1.16417 0.10583,-2.16958 -0.74083,-0.52917 -0.71438,-0.13229 -0.29104,-0.42334 -0.68792,-0.34395 -1.24354,0.0264 -0.0529,-0.635 -0.10584,-1.21708 4.55084,-1.40229 0.84666,0.82021 0.39688,-0.15875 0.58208,0.42333 0.0529,0.68792 -0.34396,0.79375 0.0529,1.19062 0.92604,1.05834 0.50271,-1.19063 0.66145,-0.34396 -0.0264,-2.19604 -0.58209,-1.21708 -0.50271,-0.55563 h -0.10583 l -0.15875,-1.93146 0.39688,-1.61395 0.58208,-0.0529 1.77271,0.47625 0.39687,-0.21167 1.03188,-0.0529 0.55562,-0.50271 0.89959,0.0265 1.64041,-0.66146 1.21709,-0.97896 0.23812,0.74083 -0.13229,1.69334 0.13229,1.50812 -0.0529,2.64583 0.21167,0.82021 -0.50271,1.21709 -0.635,1.19062 -0.97896,1.05833 -1.40229,0.635 -1.71979,0.82021 -1.74625,1.82563 -0.58208,0.3175 -1.11125,1.21708 -0.60854,0.37042 -0.21167,1.21708 0.635,1.29646 0.23812,0.97896 v 0.52916 l 0.26459,-0.10583 -0.13229,1.66688 -0.29105,0.79375 0.3175,0.29104 -0.26458,0.71437 -0.635,0.60854 -1.24354,0.55563 -1.82563,0.92604 -0.66145,0.635 0.0794,0.71438 0.34396,0.10583 z"
       id="MZ"
       name="Mozambique"
       style="stroke-width:0.153878" /><path
       d="m 64.0169,56.082427 -2.248958,0.02646 0.635,7.328958 0.661458,7.328958 0.264583,0.211667 -0.343958,1.190625 -5.953125,0.02646 -0.238125,0.370417 -0.555625,-0.105834 -0.846666,0.343959 -1.031875,-0.47625 -0.47625,0.02646 -0.264584,1.005417 -0.502708,0.3175 -0.9525,-1.164167 -0.899583,-1.27 -0.9525,-0.449792 -0.714375,-0.47625 H 48.7769 l -0.740833,0.370417 -0.714375,-0.132292 -0.529167,0.529167 -0.105833,-0.899583 0.423333,-0.846667 0.211667,-1.5875 -0.105833,-1.693333 -0.15875,-0.846667 0.15875,-0.846667 -0.370417,-0.79375 -0.740833,-0.740833 0.343958,-0.555625 h 5.741458 l -0.238125,-2.460625 0.396875,-0.873125 1.375834,-0.132292 0.05292,-4.365624 4.7625,0.105833 0.05292,-2.592917 z"
       id="MR"
       name="Mauritania"
       style="stroke-width:0.153878" /><path
       d="m 123.04544,121.54034 h 0.10583 l 0.50271,0.55563 0.58209,1.21708 0.0264,2.19604 -0.66145,0.34396 -0.50271,1.19063 -0.92604,-1.05834 -0.0529,-1.19062 0.34396,-0.79375 -0.0529,-0.68792 -0.58208,-0.42333 -0.39688,0.15875 -0.84666,-0.82021 -0.7673,-0.42333 0.52917,-1.5875 0.47625,-0.58209 -0.23812,-1.42875 0.34395,-1.37583 0.26459,-0.44979 -0.34396,-1.42875 -0.68792,-0.76729 1.45521,0.3175 0.26458,0.44979 -0.0264,0.21166 0.47625,1.0848 0.0529,2.03729 -0.47625,0.9525 0.42334,1.24354 -0.0529,0.74083 0.3175,0.50271 -0.0265,0.635 0.23813,0.37042 0.26458,-0.42334 0.50271,0.66146 0.0529,-0.21166 -0.26458,-0.89959 -0.29104,-0.0794 z"
       id="MW"
       name="Malawi"
       style="stroke-width:0.153878" /><path
       d="m 105.55648,128.26076 1.21709,-0.37042 0.9525,0.0794 0.58208,0.39687 v 0.13229 l -0.84667,0.39688 h -0.44979 l -0.97896,0.66146 -0.52916,-0.71438 -2.30188,0.60854 -1.11125,0.0529 -0.21167,6.05896 -1.4552,0.0529 -0.15875,4.9477 -0.291045,6.27063 -1.322917,0.87312 -0.767292,0.1323 -0.899583,-0.3175 -0.661458,-0.1323 -0.211667,-0.71437 -0.529167,-0.47625 -0.740833,0.84667 -1.031875,-1.29646 -0.529167,-1.21709 -0.264583,-1.66687 -0.3175,-1.21708 -0.423333,-2.61938 0.02646,-2.03729 -0.15875,-0.92604 -0.555625,-0.71438 -0.740833,-1.40229 -0.740834,-2.03729 -0.291041,-1.05833 -1.164167,-1.66688 -0.07937,-1.29646 0.714375,-0.3175 0.899583,-0.29104 0.9525,0.0529 0.873125,0.76729 0.211667,-0.13229 6.006042,-0.0529 1.005416,0.79375 3.571882,0.23813 z"
       id="NA"
       name="Namibia"
       style="stroke-width:0.153878" /><path
       d="m 92.962316,59.654302 0.423334,2.645833 0.582083,0.449792 0.02646,0.529167 0.635,0.582083 -0.3175,0.740833 -0.47625,3.439584 -0.05292,2.2225 -1.852084,1.5875 -0.608541,2.248958 0.635,0.635 v 1.084792 l 0.978958,0.02646 -0.15875,0.820208 -0.396875,0.07937 -0.05292,0.555625 -0.264583,0.02646 -1.031875,-1.852084 -0.370417,-0.07937 -1.137708,0.9525 -1.164167,-0.502708 -0.793749,-0.07937 -0.423334,0.238125 -0.873125,-0.05292 -0.873125,0.714375 -0.767291,0.05292 -1.799167,-0.873125 -0.714375,0.396875 -0.767292,-0.02646 -0.555625,-0.635 -1.481666,-0.635 -1.613959,0.211666 -0.370416,0.343959 -0.211667,0.978958 -0.423333,0.687917 -0.105834,1.534583 -1.137708,-0.978958 h -0.529167 l -0.502708,0.502708 0.02646,-1.164167 -1.719791,-0.396875 -0.05292,-0.820208 -0.820208,-1.11125 -0.211667,-0.767292 0.132292,-0.820208 0.9525,-0.07938 0.529166,-0.608542 2.037292,-0.132291 1.322917,-0.264584 0.105833,-1.058333 0.820208,-1.137708 -0.02646,-3.915834 2.06375,-0.740833 4.233333,-3.33375 4.974167,-3.254375 2.328333,0.740833 0.846667,0.926042 z"
       id="NE"
       name="Niger"
       style="stroke-width:0.153878" /><path
       d="m 92.327316,77.30201 0.608542,0.661459 -0.15875,0.3175 -0.07937,0.555625 -1.243542,1.322916 -0.370416,1.084792 -0.211667,0.873125 -0.3175,0.396875 -0.291042,1.190625 -0.79375,0.687917 -0.211666,0.846666 -0.343959,0.687917 -0.132291,0.714375 -1.031875,0.582083 -0.846667,-0.714375 -0.555625,0.02646 -0.899583,1.005417 h -0.423333 l -0.714375,1.640417 -0.370417,1.217083 -1.561042,0.608542 -0.555625,-0.07938 -0.582083,0.370416 -1.190625,-0.02646 -0.820208,-1.084792 -0.502709,-1.217083 -1.058333,-1.11125 h -1.11125 -1.322917 l 0.07938,-2.725208 -0.05292,-1.084792 0.291041,-1.058333 0.449792,-0.529167 0.740833,-1.058333 -0.15875,-0.449792 0.291042,-0.687916 -0.343958,-1.005417 0.05292,-0.555625 0.105834,-1.534583 0.423333,-0.687917 0.211667,-0.978958 0.370416,-0.343959 1.613959,-0.211666 1.481666,0.635 0.555625,0.635 0.767292,0.02646 0.714375,-0.396875 1.799167,0.873125 0.767291,-0.05292 0.873125,-0.714375 0.873125,0.05292 0.423334,-0.238125 0.793749,0.07937 1.164167,0.502708 1.137708,-0.9525 0.370417,0.07937 1.031875,1.852084 z"
       id="NG"
       name="Nigeria"
       style="stroke-width:0.153878" /><path
       d="m 116.82773,100.42659 0.58209,0.9525 -0.0794,1.00542 -0.42333,0.21167 -0.82021,-0.10584 -0.44979,0.97896 -0.92604,-0.13229 0.15875,-0.9525 0.21166,-0.13229 0.0529,-1.00542 0.42333,-0.47625 0.37042,0.18521 z"
       id="RW"
       name="Rwanda"
       style="stroke-width:0.153878" /><path
       d="m 58.645859,51.531594 -0.02646,0.105833 -0.02646,0.3175 -0.05292,2.592917 -4.7625,-0.105833 -0.05292,4.365624 -1.375834,0.132292 -0.396875,0.873125 0.238125,2.460625 h -5.741458 l -0.343958,0.555625 0.07937,-0.714375 h 0.02646 l 3.307292,-0.132292 0.185208,-0.608541 0.635,-0.767292 0.529167,-2.354791 2.090208,-1.825625 0.714375,-2.143125 0.47625,-0.132292 0.502708,-1.322917 1.217084,-0.185208 0.529166,0.238125 h 0.661459 l 0.47625,-0.396875 0.899583,-0.05292 -0.02646,-0.899583 z"
       id="EH"
       name="Western Sahara"
       style="stroke-width:0.153878" /><path
       d="m 125.34732,73.994719 -0.18521,1.455208 -0.52917,1.693333 -0.87312,0.820209 -0.60855,1.322916 -0.13229,0.687917 -0.68791,0.47625 -0.39688,1.772708 v 0.211667 l -0.21167,-0.05292 0.0265,-0.846666 -0.21166,-0.582084 -0.7673,-0.661458 -0.23812,-1.217083 0.15875,-1.27 -0.68792,-0.105834 -0.10583,0.370417 -0.89958,0.105833 0.39687,0.47625 0.13229,1.031875 -0.79375,0.926042 -0.71437,1.217083 -0.76729,0.185209 -1.27,-0.978959 -0.55563,0.343959 -0.13229,0.47625 -0.76729,0.343958 -0.0529,0.343958 h -1.48167 l -0.21166,-0.343958 -1.08479,-0.07937 -0.52917,0.291042 -0.42333,-0.132292 -0.7673,-1.005417 -0.26458,-0.449791 -1.08479,0.238125 -0.39688,0.767291 -0.34395,1.534584 -0.52917,0.3175 -0.44979,0.185208 -0.13229,-0.07937 -0.50271,-0.502708 -0.10584,-0.529167 0.21167,-0.687917 v -0.714375 l -0.87312,-1.058333 -0.18521,-0.714375 v -0.423333 l -0.55563,-0.502709 -0.0265,-0.978958 -0.34395,-0.661458 -0.50271,0.105833 0.13229,-0.635 0.37042,-0.687917 -0.18521,-0.714375 0.47625,-0.529166 -0.3175,-0.396875 0.34396,-1.031875 0.66145,-1.27 1.27,0.132291 -0.29104,-6.746875 v -0.714375 h 1.69334 l -0.1323,-3.386666 h 5.90021 5.68854 5.8473 l 0.55562,1.666875 -0.3175,0.291041 0.3175,1.772709 0.66146,2.010833 0.58208,0.423333 0.84667,0.635 -0.71438,0.9525 -1.05833,0.291042 -0.44979,0.529167 -0.0794,1.11125 -0.52916,2.513541 z"
       id="SD"
       name="Sudan"
       style="stroke-width:0.153878" /><path
       d="m 121.93419,82.434927 0.0529,1.322917 -0.21167,0.502708 -0.79375,0.05292 -0.50271,0.952499 0.92604,0.132292 0.79375,0.820208 0.26459,0.687917 0.68791,0.396875 0.92605,1.852083 -1.00542,1.11125 -0.89958,1.005417 -0.92605,0.79375 h -1.05833 l -1.19062,0.396875 -0.9525,-0.396875 -0.60855,0.47625 -1.34937,-1.137708 -0.37042,-0.714375 -0.82021,0.343958 -0.68791,-0.105833 -0.39688,0.291041 -0.68791,-0.211666 -0.92605,-1.402292 -0.23812,-0.529167 -1.13771,-0.687916 -0.37042,-1.005417 -0.635,-0.740833 -1.03187,-0.873125 -0.0265,-0.555625 -0.82021,-0.687917 -1.03187,-0.661458 0.44979,-0.185208 0.52917,-0.3175 0.34395,-1.534584 0.39688,-0.767291 1.08479,-0.238125 0.26458,0.449791 0.7673,1.005417 0.42333,0.132292 0.52917,-0.291042 1.08479,0.07937 0.21166,0.343958 h 1.48167 l 0.0529,-0.343958 0.76729,-0.343958 0.13229,-0.47625 0.55563,-0.343959 1.27,0.978959 0.76729,-0.185209 0.71437,-1.217083 0.79375,-0.926042 -0.13229,-1.031875 -0.39687,-0.47625 0.89958,-0.105833 0.10583,-0.370417 0.68792,0.105834 -0.15875,1.27 0.23812,1.217083 0.7673,0.661458 0.21166,0.582084 -0.0265,0.846666 z"
       id="SS"
       name="South Sudan"
       style="stroke-width:0.153878" /><path
       d="m 53.116067,73.677219 0.05292,1.058333 0.291041,0.978958 0.529167,0.47625 0.132292,0.635 -0.07937,0.529167 -0.211667,0.105833 -0.820208,-0.132291 -0.105834,0.185208 -0.3175,0.02646 -1.084791,-0.396875 -0.714375,-0.02646 -2.751667,-0.07938 -0.396875,0.211667 -0.502708,-0.05292 -0.79375,0.264583 -0.211667,-1.296458 1.349375,0.02646 0.370417,-0.238125 h 0.264583 l 0.555625,-0.396875 0.635,0.343959 0.635,0.05292 0.661458,-0.396875 -0.291041,-0.47625 -0.502709,0.264584 H 49.358984 L 48.7769,74.92076 l -0.47625,0.02646 -0.343958,0.423333 -1.613958,0.02646 -0.608542,-1.322916 -0.714375,-0.582084 0.661458,-0.343958 0.740834,-1.190625 0.370416,-0.873125 0.529167,-0.529167 0.714375,0.132292 0.740833,-0.370417 h 0.820209 l 0.714375,0.47625 0.9525,0.449792 0.899583,1.27 z"
       id="SN"
       name="Senegal"
       style="stroke-width:0.153878" /><path
       d="m 55.894192,84.234094 -0.687917,0.793749 -0.687916,0.899584 -0.07937,0.502708 -0.370417,0.555625 -0.396875,-0.132292 -1.058333,-0.687916 -0.79375,-0.899584 -0.238125,-0.634999 -0.185209,-1.243542 0.820209,-0.767292 0.15875,-0.449791 0.264583,-0.370417 0.423333,-0.05292 0.343959,-0.3175 h 1.190625 l 0.423333,0.608542 0.3175,0.714375 -0.05292,0.502708 0.238125,0.449792 -0.02646,0.608542 z"
       id="SL"
       name="Sierra Leone"
       style="stroke-width:0.153878" /><path
       d="m 117.59502,142.38951 0.15875,0.76729 0.0794,0.76729 -0.37042,0.74084 -0.84666,0.1852 -0.82021,-0.92604 0.0265,-0.58208 0.44979,-0.635 0.15875,-0.50271 0.44979,-0.10583 z"
       id="SZ"
       name="Swaziland"
       style="stroke-width:0.153878" /><path
       d="m 106.35023,65.23701 0.29104,6.746875 -1.27,-0.132291 -0.66145,1.27 -0.34396,1.031875 0.3175,0.396875 -0.47625,0.529166 0.18521,0.714375 -0.37042,0.687917 -0.13229,0.635 0.50271,-0.105833 0.34395,0.661458 0.0265,0.978958 0.55563,0.502709 v 0.423333 l -0.9525,0.291042 -0.74084,0.687916 -1.05833,1.852084 -1.37583,0.79375 -1.45521,-0.105834 -0.423334,0.15875 0.15875,0.582084 -0.767291,0.608541 -0.635,0.661458 -1.878542,0.635 -0.370417,-0.370416 -0.264583,-0.05292 -0.264583,0.449792 -1.217084,0.132291 0.211667,-0.47625 -0.47625,-1.164166 -0.211667,-0.687917 -0.661458,-0.291041 -0.899583,-1.005417 0.3175,-0.79375 0.687916,0.15875 0.423334,-0.105833 h 0.846666 l -0.846666,-1.534584 0.05292,-1.137708 -0.132291,-1.11125 -0.608542,-1.084792 0.15875,-0.820208 -0.978958,-0.02646 v -1.084792 l -0.635,-0.635 0.608541,-2.248958 1.852084,-1.5875 0.05292,-2.2225 0.47625,-3.439584 0.3175,-0.740833 -0.635,-0.582083 -0.02646,-0.529167 -0.582083,-0.449792 -0.423334,-2.645833 1.455209,-0.926042 5.953129,3.254375 z"
       id="TD"
       name="Chad"
       style="stroke-width:0.153878" /><path
       d="m 72.536483,79.815552 -0.185208,0.899583 0.449792,0.502709 0.529166,0.582083 0.05292,0.846667 0.3175,0.343958 -0.07937,3.915833 0.370417,1.164167 -1.190625,0.370416 -0.343959,-0.608541 -0.396875,-1.084792 -0.132291,-0.846667 0.343958,-1.508124 -0.370417,-0.635 -0.15875,-1.322917 V 81.191385 L 71.1342,80.31826 71.240033,79.789094 Z"
       id="TG"
       name="Togo"
       style="stroke-width:0.153878" /><path
       d="m 87.564817,42.218261 -0.02646,1.296458 -0.687916,0.47625 -0.423334,0.555625 -0.9525,0.661458 0.15875,0.687917 -0.105833,0.740833 -0.687917,0.370417 -0.687916,-3.042708 -0.899584,-0.687917 -0.02646,-0.396875 -1.190625,-1.031875 -0.15875,-1.27 0.846667,-0.9525 0.291041,-1.402292 -0.264583,-1.613958 0.264583,-0.873125 1.508125,-0.661458 0.978959,0.185208 v 0.873125 l 1.164166,-0.635 0.105834,0.3175 -0.661459,0.846667 0.02646,0.767291 0.502708,0.423334 -0.132292,1.481666 -0.926041,0.846667 0.3175,0.926042 0.740833,0.02646 0.370417,0.820208 z"
       id="TN"
       name="Tunisia"
       style="stroke-width:0.153878" /><path
       d="m 118.99732,100.24138 -0.0529,1.03188 -0.29104,1.19062 0.42333,0.66146 0.66146,-0.39687 0.87312,-0.10584 0.18521,0.21167 0.87313,-0.42333 -0.60854,-0.58209 0.5027,-0.76729 0.74084,-0.76729 5.42396,3.46604 0.0794,0.97896 2.14313,1.69333 -0.74084,2.11667 0.0794,0.9525 0.92604,0.60854 0.0529,0.44979 -0.4498,1.03188 0.0794,0.50271 -0.10583,0.82021 0.47625,1.05833 0.58208,1.69333 0.52917,0.37042 -1.21709,0.97896 -1.64041,0.66146 -0.89959,-0.0265 -0.55562,0.50271 -1.03188,0.0529 -0.39687,0.21167 -1.77271,-0.47625 -0.58208,0.0529 0.0264,-0.0265 -0.47625,-0.635 -0.0794,-1.79917 -0.76729,-0.89958 -0.10584,0.3175 -0.26458,-0.44979 -1.45521,-0.3175 -0.84666,-0.50271 -0.9525,-0.29104 -0.58209,-0.29105 -0.0794,-0.0529 -0.71438,-1.74625 -0.10583,-1.03188 -1.19063,-1.16416 0.37042,-0.635 -0.29104,-0.68792 0.0529,-0.71438 -0.26459,-0.23812 0.0794,-0.74083 0.15875,-0.0265 0.52916,-0.60854 0.60855,-0.89959 0.37041,-0.34396 v -0.55562 l -0.3175,-0.39688 -0.0794,-0.66145 0.42333,-0.21167 0.0794,-1.00542 -0.58209,-0.9525 0.52917,-0.21166 z"
       id="TZ"
       name="Tanzania"
       style="stroke-width:0.153878" /><path
       d="m 122.17232,91.27201 0.71437,1.190625 0.18521,0.846667 0.68792,1.957916 -0.55563,1.243542 -0.74083,1.11125 -0.42334,0.687917 v 0.07937 l -0.0529,-0.105834 -0.79375,-0.343958 -0.635,0.423333 -0.9525,0.238125 -0.68792,0.978959 0.0794,0.661448 -1.64042,-0.0265 -0.52917,0.21166 -0.89958,0.52917 -0.37042,-0.18521 0.0265,-1.269993 0.34396,-0.661459 0.0794,-1.349375 0.3175,-0.79375 0.58209,-0.873125 0.55562,-0.47625 0.50271,-0.582083 -0.60854,-0.238125 0.0794,-1.984375 0.60855,-0.47625 0.9525,0.396875 1.19062,-0.396875 h 1.05833 z"
       id="UG"
       name="Uganda"
       style="stroke-width:0.153878" /><path
       d="m 117.70086,113.04722 0.0794,0.0529 0.58209,0.29105 0.9525,0.29104 0.84666,0.50271 0.68792,0.76729 0.34396,1.42875 -0.26459,0.44979 -0.34395,1.37583 0.23812,1.42875 -0.47625,0.58209 -0.52917,1.5875 0.7673,0.42333 -4.55084,1.40229 0.10584,1.21708 -1.13771,0.23813 -0.87313,0.66146 -0.21166,0.58208 -0.52917,0.15875 -1.34938,1.37583 -0.84666,1.11125 -0.50271,0.0265 -0.47625,-0.18521 -1.64042,-0.1852 -0.26458,-0.1323 v -0.13229 l -0.58208,-0.39687 -0.9525,-0.0794 -1.21709,0.37042 -0.9525,-1.05833 -0.9525,-1.37584 0.21167,-5.42396 3.09562,0.0265 -0.10583,-0.58208 0.23813,-0.635 -0.23813,-0.79375 0.18521,-0.82021 -0.15875,-0.52917 0.50271,0.0265 0.0794,0.52917 0.71438,-0.0265 0.92604,0.15875 0.50271,0.76729 1.16416,0.23813 0.92605,-0.52917 0.3175,0.87313 1.1377,0.23812 0.52917,0.74083 0.58208,0.92605 h 1.13771 l -0.0529,-1.82563 -0.42334,0.3175 -1.03187,-0.66146 -0.39688,-0.3175 0.23813,-1.69333 0.29104,-2.01083 -0.3175,-0.74084 0.44979,-1.08479 0.39688,-0.21167 2.03729,-0.29104 0.23812,0.0794 -0.0794,0.37041 0.50271,0.1323 0.3175,0.34395 0.26458,-0.0794 z"
       id="ZM"
       name="Zambia"
       style="stroke-width:0.153878" /><path
       d="m 116.98648,136.30409 -0.76729,-0.18521 -0.50271,0.21167 -0.71437,-0.29104 h -0.58209 l -0.89958,-0.76729 -1.13771,-0.26459 -0.39687,-1.08479 0.0265,-0.60854 -0.60855,-0.18521 -1.61395,-1.85208 -0.42334,-0.97896 -0.29104,-0.3175 -0.50271,-1.34937 1.64042,0.1852 0.47625,0.18521 0.50271,-0.0265 0.84666,-1.11125 1.34938,-1.37583 0.52917,-0.15875 0.21166,-0.58208 0.87313,-0.66146 1.13771,-0.23813 0.0529,0.635 1.24354,-0.0264 0.68792,0.34395 0.29104,0.42334 0.71438,0.13229 0.74083,0.52917 -0.10583,2.16958 -0.34396,1.16417 -0.10583,1.27 0.21166,0.5027 -0.23812,1.00542 -0.21167,0.15875 -0.44979,1.21708 z"
       id="ZW"
       name="Zimbabwe"
       style="stroke-width:0.153878" /><path
       d="m 133.57586,101.35263 -0.87313,-1.402287 -0.0529,-6.19125 1.29645,-1.905 0.39688,-0.555625 0.9525,-0.02646 1.32292,-1.190625 1.93145,-0.07937 4.1275,-5.106458 -1.27,0.02646 -4.9477,-2.010833 -0.58209,-0.608542 -0.58208,-0.820208 -0.58208,-0.9525 0.3175,-0.582083 0.5027,-0.926042 0.50271,0.3175 0.3175,0.714375 0.71438,0.714375 h 0.74083 l 1.37583,-0.449792 1.61396,-0.185208 1.29646,-0.529167 0.74083,-0.105833 0.52917,-0.3175 0.84667,-0.05292 0.47625,-0.05292 0.66146,-0.238125 0.79375,-0.185209 0.66145,-0.582083 h 0.58209 l 0.0529,0.47625 -0.10583,0.978958 0.0529,0.899584 -0.29104,0.608541 -0.37042,1.852084 -0.635,1.878541 -0.87313,2.169583 -1.21708,2.487084 -1.24354,1.905 -1.74625,2.328333 -1.48167,1.375833 -2.2225,1.693334 -1.40229,1.27 -1.64042,2.063755 -0.34395,0.89958 z"
       id="SO"
       name="Somalia"
       style="stroke-width:0.153878" /><path
       d="m 116.98648,136.30409 0.58209,2.38125 0.29104,1.21709 -0.37042,1.87854 0.10583,0.60854 -0.71437,-0.29104 -0.44979,0.10583 -0.15875,0.50271 -0.44979,0.635 -0.0265,0.58208 0.82021,0.92604 0.84666,-0.1852 0.37042,-0.74084 h 1.08479 l -0.44979,1.24354 -0.26458,1.4023 -0.4498,0.76729 -1.05833,0.87312 -0.29104,0.23813 -0.68792,0.87312 -0.47625,0.87313 -0.92604,1.21708 -1.77271,1.74625 -1.08479,1.00542 -1.13771,0.79375 -1.56104,0.635 -0.71437,0.10583 -0.23813,0.47625 -0.84667,-0.26458 -0.71437,0.3175 -1.50813,-0.3175 -0.87312,0.21166 -0.58208,-0.10583 -1.53459,0.68792 -1.21708,0.26458 -0.926042,0.635 -0.635,0.0529 -0.555625,-0.60854 -0.47625,-0.0265 -0.582083,-0.76729 -0.07937,0.23812 -0.15875,-0.44979 0.07937,-1.00542 -0.396875,-1.13771 0.47625,-0.3175 0.02646,-1.29645 -0.873125,-1.5875 -0.635,-1.42875 v -0.0265 l -0.9525,-2.19604 0.740833,-0.84667 0.529167,0.47625 0.211667,0.71437 0.661458,0.1323 0.899583,0.3175 0.767292,-0.1323 1.322917,-0.87312 0.291043,-6.27063 0.37041,0.26459 0.79375,1.61396 -0.15875,1.03187 0.29104,0.60854 1.05834,-0.18521 0.74083,-0.76729 0.71438,-0.50271 0.39687,-0.8202 0.74083,-0.37042 0.60855,0.18521 0.66145,0.47625 1.19063,0.0794 0.9525,-0.37041 0.15875,-0.52917 0.3175,-0.82021 0.79375,-0.13229 0.47625,-0.635 0.52917,-1.13771 1.37583,-1.27 2.14312,-1.24354 h 0.58209 l 0.71437,0.29104 0.50271,-0.21167 z m -5.37104,14.07584 0.29104,-0.52917 0.82021,-0.26458 0.29104,-0.55563 0.50271,-0.82021 -0.44979,-0.52916 -0.58208,-0.52917 -0.71438,0.37042 -0.82021,0.66145 -0.84666,1.05834 0.97895,1.32291 z"
       id="ZA"
       name="South Africa"
       style="stroke-width:0.153878" /><path
       class="São Tomé and Principe"
       d="m 81.135442,98.362843 h -0.05292 l -0.05292,0.07937 h -0.05292 l -0.02646,-0.105833 -0.05292,-0.211667 v -0.07937 l 0.105833,-0.132291 0.07937,-0.02646 0.07937,-0.07937 0.105833,0.02646 0.05292,0.105833 0.02646,0.07937 -0.02646,0.105833 -0.05292,0.07937 -0.07938,0.105834 z"
       id="path1639"
       style="stroke-width:0.153878" /><path
       class="São Tomé and Principe"
       d="m 82.352525,95.769927 -0.02646,0.07937 -0.05292,0.02646 -0.07937,-0.02646 v -0.07937 l 0.05292,-0.02646 v -0.07937 l 0.05292,-0.05292 0.07937,0.02646 z"
       id="path1641"
       style="stroke-width:0.153878" /><path
       class="Seychelles"
       d="m 140.69315,114.44951 -0.0794,0.0529 h -0.13229 l -0.10583,0.0529 h -0.10583 v -0.0529 h 0.13229 l 0.10583,-0.0265 0.10583,-0.0794 h 0.0529 z"
       id="path1644"
       style="stroke-width:0.153878" /></g></svg>
