<?xml version="1.0" encoding="UTF-8" standalone="no"?>
<!-- Uploaded to: SVG Repo, www.svgrepo.com, Generator: SVG Repo Mixer Tools -->

<svg
   width="800px"
   height="800px"
   viewBox="0 0 100 100"
   aria-hidden="true"
   role="img"
   class="iconify iconify--gis"
   preserveAspectRatio="xMidYMid meet"
   version="1.1"
   id="svg184"
   sodipodi:docname="portugal.svg"
   xml:space="preserve"
   inkscape:version="1.2.2 (b0a8486, 2022-12-01)"
   xmlns:inkscape="http://www.inkscape.org/namespaces/inkscape"
   xmlns:sodipodi="http://sodipodi.sourceforge.net/DTD/sodipodi-0.dtd"
   xmlns="http://www.w3.org/2000/svg"
   xmlns:svg="http://www.w3.org/2000/svg"><defs
     id="defs188" /><sodipodi:namedview
     id="namedview186"
     pagecolor="#ffffff"
     bordercolor="#666666"
     borderopacity="1.0"
     inkscape:showpageshadow="2"
     inkscape:pageopacity="0.0"
     inkscape:pagecheckerboard="0"
     inkscape:deskcolor="#d1d1d1"
     showgrid="false"
     inkscape:zoom="0.74246212"
     inkscape:cx="253.21157"
     inkscape:cy="400.02041"
     inkscape:window-width="1920"
     inkscape:window-height="1043"
     inkscape:window-x="1920"
     inkscape:window-y="0"
     inkscape:window-maximized="1"
     inkscape:current-layer="svg184" /><path
     d="m 56.184641,95.214734 -6.328473,4.602526 -8.054421,-2.588921 -7.766763,2.013605 2.588921,-14.382894 -0.862973,-11.218657 -6.903778,-1.725947 -3.164241,-6.903789 1.438289,-12.081631 6.328467,-6.616108 1.438289,-7.479105 3.451895,-10.931022 v -7.76674 L 35.760932,13.51992 35.185616,7.1914469 40.651116,2.5889209 46.979589,0 50.431483,8.9173941 h 8.629737 l 2.58892,-2.301263 8.917395,0.5753158 3.739552,9.2050751 -6.903789,4.890184 -0.862974,14.382871 -2.301263,2.58892 -0.862973,8.917418 -6.616131,1.438289 5.753157,10.930999 -4.602549,12.081631 5.177842,5.4655 -2.301263,4.890183 -5.753158,6.903789 z"
     id="PT"
     name="Portugal"
     style="stroke-width:0.125" /></svg>
