<?xml version="1.0" encoding="UTF-8" standalone="no"?>
<!-- Uploaded to: SVG Repo, www.svgrepo.com, Generator: SVG Repo Mixer Tools -->

<svg
   fill="#000000"
   width="800px"
   height="800px"
   viewBox="0 0 50 50"
   version="1.1"
   id="svg4604"
   sodipodi:docname="contemporary.svg"
   inkscape:version="1.2.2 (b0a8486, 2022-12-01)"
   xmlns:inkscape="http://www.inkscape.org/namespaces/inkscape"
   xmlns:sodipodi="http://sodipodi.sourceforge.net/DTD/sodipodi-0.dtd"
   xmlns="http://www.w3.org/2000/svg"
   xmlns:svg="http://www.w3.org/2000/svg">
  <defs
     id="defs4608" />
  <sodipodi:namedview
     id="namedview4606"
     pagecolor="#ffffff"
     bordercolor="#666666"
     borderopacity="1.0"
     inkscape:showpageshadow="2"
     inkscape:pageopacity="0.0"
     inkscape:pagecheckerboard="0"
     inkscape:deskcolor="#d1d1d1"
     showgrid="false"
     inkscape:zoom="0.37565048"
     inkscape:cx="-263.54286"
     inkscape:cy="312.79076"
     inkscape:window-width="1920"
     inkscape:window-height="1016"
     inkscape:window-x="0"
     inkscape:window-y="27"
     inkscape:window-maximized="1"
     inkscape:current-layer="svg4604" />
  <path
     d="M 11.802357,7.6780929 V 21.700588 h 7.423675 v 4.949117 h 4.124263 V 7.6780929 Z m 3.183416,3.2994101 h 1.683538 v 1.662594 h -1.683538 z m 3.333243,0 h 1.615874 v 1.662594 h -1.615874 z m 14.104659,0 v 31.344404 h 4.981337 v -3.305855 h 1.617485 v 3.305855 h 4.949116 V 10.977503 Z m -17.437902,3.286523 h 1.683538 v 1.662593 h -1.683538 z m 3.333243,0 h 1.615874 v 1.662593 h -1.615874 z m 20.703481,0.0064 h 1.649705 v 1.662592 h -1.649705 z m -3.299411,0.01289 h 1.649706 v 1.660982 h -1.649706 z m -0.03222,3.292967 h 1.681926 v 1.662595 h -1.681926 z m 3.331631,0 h 1.649706 v 1.662595 h -1.649706 z m -3.331631,3.286522 h 1.681926 v 1.662594 h -1.681926 z m 3.331631,0 h 1.649706 v 1.662594 H 39.022497 Z M 6.0283869,23.34381 v 18.978059 h 4.9491171 v -3.305855 l 1.649705,0.0064 v 3.299411 h 4.949116 V 23.34385 Z m 29.6624781,0.824853 h 1.681926 v 1.662593 h -1.681926 z m 3.331631,0 h 1.649705 v 1.662593 H 39.022496 Z M 9.3277979,25.818369 h 1.6819261 v 1.662593 H 9.3277979 Z m 3.2994111,0 h 1.649705 v 1.662593 h -1.649705 z m 23.063656,1.636816 h 1.681926 v 1.662594 h -1.681926 z m 3.331631,0 h 1.649705 v 1.662594 h -1.649705 z m -19.796464,0.844187 v 14.022497 h 4.949116 l 0.03222,-3.305855 h 1.617485 v 3.305855 h 4.949116 V 28.29941 Z m -9.8982331,0.80552 h 1.6819261 v 1.662595 H 9.3277989 Z m 3.2994111,0 h 1.649705 v 1.662595 H 12.62721 Z m 23.095876,1.656151 h 1.681926 v 1.662593 h -1.681926 z m 3.299411,0 h 1.649705 v 1.662593 h -1.649705 z m -16.497054,0.01289 h 1.649705 v 1.662594 h -1.649705 z m 3.331631,0.0064 h 1.617485 v 1.660983 H 25.857074 Z M 9.3277989,32.417151 h 1.6819261 v 1.662593 H 9.3277989 Z m 3.2994111,0 h 1.649705 v 1.662593 H 12.62721 Z m 23.063656,1.643261 h 1.681926 v 1.662593 h -1.681926 z m 3.331631,0 h 1.649705 v 1.662593 h -1.649705 z m -13.165423,0.0064 h 1.617485 v 1.662593 h -1.617485 z m -3.331631,0.0064 h 1.649705 v 1.662632 h -1.649705 z"
     id="path4602"
     style="stroke-width:1" />
</svg>
