<?xml version="1.0" encoding="UTF-8" standalone="no"?>
<!-- Uploaded to: SVG Repo, www.svgrepo.com, Generator: SVG Repo Mixer Tools -->

<svg
   fill="#000000"
   version="1.1"
   id="Capa_1"
   width="800px"
   height="800px"
   viewBox="0 0 45.436 45.436"
   xml:space="preserve"
   sodipodi:docname="medieval.svg"
   inkscape:version="1.2.2 (b0a8486, 2022-12-01)"
   xmlns:inkscape="http://www.inkscape.org/namespaces/inkscape"
   xmlns:sodipodi="http://sodipodi.sourceforge.net/DTD/sodipodi-0.dtd"
   xmlns="http://www.w3.org/2000/svg"
   xmlns:svg="http://www.w3.org/2000/svg"><defs
   id="defs4409" /><sodipodi:namedview
   id="namedview4407"
   pagecolor="#ffffff"
   bordercolor="#666666"
   borderopacity="1.0"
   inkscape:showpageshadow="2"
   inkscape:pageopacity="0.0"
   inkscape:pagecheckerboard="0"
   inkscape:deskcolor="#d1d1d1"
   showgrid="false"
   inkscape:zoom="0.37565048"
   inkscape:cx="-292.8254"
   inkscape:cy="366.03175"
   inkscape:window-width="1920"
   inkscape:window-height="1016"
   inkscape:window-x="0"
   inkscape:window-y="27"
   inkscape:window-maximized="1"
   inkscape:current-layer="Capa_1" />
<g
   id="g4404"
   transform="matrix(0.69973481,0,0,0.69973481,6.8214246,6.8214246)"
   style="stroke-width:1.42911">
	<path
   d="M 36.316,14.393 40.74,7.313 C 40.91,7.042 40.99,6.729 40.99,6.408 V 1.684 C 40.99,0.741 40.245,0 39.301,0 H 34.807 C 33.864,0 33.068,0.741 33.068,1.684 V 4.22 c 0,0.387 -0.281,0.712 -0.668,0.712 h -4.532 c -0.387,0 -0.704,-0.325 -0.704,-0.712 V 1.684 C 27.164,0.741 26.403,0 25.459,0 H 19.975 C 19.032,0 18.27,0.741 18.27,1.684 V 4.22 c 0,0.387 -0.316,0.712 -0.703,0.712 h -4.532 c -0.387,0 -0.669,-0.325 -0.669,-0.712 V 1.684 C 12.367,0.741 11.572,0 10.628,0 H 6.134 C 5.191,0 4.446,0.741 4.446,1.684 v 4.724 c 0,0.32 0.08,0.634 0.25,0.905 l 4.423,7.08 c 0.17,0.271 0.259,0.584 0.259,0.904 v 19.307 c 0,0.6 -0.319,1.155 -0.833,1.464 l -3.278,1.971 c -0.514,0.309 -0.821,0.864 -0.821,1.465 v 4.246 c 0,0.944 0.744,1.686 1.688,1.686 h 33.167 c 0.942,0 1.688,-0.741 1.688,-1.686 v -4.246 c 0,-0.601 -0.305,-1.156 -0.818,-1.465 l -3.287,-1.97 C 36.37,35.759 36.056,35.205 36.056,34.605 V 15.297 c 0.001,-0.319 0.09,-0.633 0.26,-0.904 z m -9.153,10.033 c 0,0.695 -0.56,1.281 -1.255,1.281 h -6.381 c -0.695,0 -1.256,-0.586 -1.256,-1.281 v -5.483 c 0,-2.417 1.957,-4.369 4.374,-4.369 h 0.145 c 2.418,0 4.373,1.952 4.373,4.369 z"
   id="path4402"
   style="stroke-width:1.42911" />
</g>
</svg>
