<?xml version="1.0" encoding="UTF-8" standalone="no"?>
<!-- Uploaded to: SVG Repo, www.svgrepo.com, Transformed by: SVG Repo Mixer Tools -->

<svg
   fill="#000000"
   version="1.1"
   id="Layer_1"
   viewBox="0 0 290.63 290.63"
   xml:space="preserve"
   width="800px"
   height="800px"
   stroke="#000000"
   stroke-width="5.521894"
   sodipodi:docname="modern.svg"
   inkscape:version="1.2.2 (b0a8486, 2022-12-01)"
   xmlns:inkscape="http://www.inkscape.org/namespaces/inkscape"
   xmlns:sodipodi="http://sodipodi.sourceforge.net/DTD/sodipodi-0.dtd"
   xmlns="http://www.w3.org/2000/svg"
   xmlns:svg="http://www.w3.org/2000/svg"><defs
   id="defs4172" /><sodipodi:namedview
   id="namedview4170"
   pagecolor="#ffffff"
   bordercolor="#666666"
   borderopacity="1.0"
   inkscape:showpageshadow="2"
   inkscape:pageopacity="0.0"
   inkscape:pagecheckerboard="0"
   inkscape:deskcolor="#d1d1d1"
   showgrid="false"
   inkscape:zoom="0.53125"
   inkscape:cx="0"
   inkscape:cy="473.41176"
   inkscape:window-width="1920"
   inkscape:window-height="1016"
   inkscape:window-x="0"
   inkscape:window-y="27"
   inkscape:window-maximized="1"
   inkscape:current-layer="Layer_1" />

<g
   id="SVGRepo_bgCarrier"
   stroke-width="0" />

<g
   id="SVGRepo_tracerCarrier"
   stroke-linecap="round"
   stroke-linejoin="round" />



<g
   id="g5039"
   transform="matrix(0.7247661,0,0,0.72476608,39.996701,39.997067)"
   style="stroke-width:2.76784">
	<g
   id="g5037"
   style="stroke-width:2.76784">
		<g
   id="g5035"
   style="stroke-width:2.76784">
			<rect
   x="23.438"
   y="243.75"
   width="9.375"
   height="9.375"
   id="rect5007"
   style="stroke-width:2.76784" />
			<rect
   x="46.875999"
   y="243.75"
   width="9.375"
   height="9.375"
   id="rect5009"
   style="stroke-width:2.76784" />
			<rect
   x="23.438"
   y="192.188"
   width="9.375"
   height="9.375"
   id="rect5011"
   style="stroke-width:2.76784" />
			<rect
   x="46.875999"
   y="192.188"
   width="9.375"
   height="9.375"
   id="rect5013"
   style="stroke-width:2.76784" />
			<rect
   x="140.62601"
   y="173.438"
   width="9.375"
   height="28.125"
   id="rect5015"
   style="stroke-width:2.76784" />
			<rect
   x="112.501"
   y="173.438"
   width="9.375"
   height="28.125"
   id="rect5017"
   style="stroke-width:2.76784" />
			<rect
   x="84.375999"
   y="178.125"
   width="9.375"
   height="23.438"
   id="rect5019"
   style="stroke-width:2.76784" />
			<rect
   x="196.87601"
   y="178.125"
   width="9.375"
   height="23.438"
   id="rect5021"
   style="stroke-width:2.76784" />
			<rect
   x="168.75101"
   y="173.438"
   width="9.375"
   height="28.125"
   id="rect5023"
   style="stroke-width:2.76784" />
			<path
   d="m 281.25,154.688 v -9.375 h -9.375 v 9.375 h -51.563 v -14.063 h 9.375 v -12.516 l -14.063,-5.789 v -9.82 h -9.375 v 5.958 l -18.75,-7.72 v -31.05 h 9.375 V 70.313 H 187.5 v -18.75 h -1.397 C 182.915,44.335 174.764,34.74 159.375,33.085 V 14.063 H 150 V 0 h -9.375 v 14.063 h -9.375 v 19.022 c -15.389,1.655 -23.541,11.25 -26.728,18.478 h -1.397 v 18.75 H 93.75 v 9.375 h 9.375 v 31.05 l -18.75,7.72 V 112.5 H 75 v 9.82 l -14.063,5.789 v 12.516 h 9.375 v 14.063 H 18.751 v -9.375 H 9.376 v 9.375 H 0.001 V 290.626 H 290.626 V 154.688 Z M 70.313,281.25 H 9.376 v -9.375 h 60.938 v 9.375 z m 0,-18.75 H 9.376 V 234.375 H 70.314 V 262.5 Z m 0,-37.5 H 56.251 V 210.937 H 46.876 V 225 H 32.813 V 210.937 H 23.438 V 225 H 9.376 V 182.812 H 70.314 V 225 Z m 0,-51.562 H 9.376 v -9.375 h 60.938 v 9.375 z M 175.276,51.563 h -7.327 c -0.586,-2.442 -1.458,-5.053 -2.662,-7.542 4.88,1.865 8.029,4.841 9.989,7.542 z m -34.65,-28.125 h 9.375 v 9.375 h -9.375 z m 0,18.75 h 9.375 c 4.298,0 6.806,5.175 8.137,9.375 h -25.669 c 1.318,-4.201 3.816,-9.375 8.157,-9.375 z m -15.292,1.842 c -1.205,2.484 -2.077,5.091 -2.658,7.533 h -7.322 c 1.961,-2.691 5.11,-5.668 9.98,-7.533 z m -12.833,16.908 h 65.625 v 9.375 h -65.625 z m 65.625,18.75 v 27.192 l -4.688,-1.931 V 79.688 Z m -14.063,0 v 21.398 l -18.75,-7.72 -18.75,7.72 V 79.688 Z m -51.562,0 h 4.688 v 25.261 l -4.688,1.931 z M 89.063,281.25 h -9.375 v -9.375 h 9.375 z m 23.438,0 H 98.438 v -9.375 H 112.5 v 9.375 z m 28.125,0 h -18.75 v -9.375 h 18.75 z m 28.125,0 h -18.75 v -9.375 h 18.75 z m 23.437,0 h -14.063 v -9.375 h 14.063 z m 18.75,0 h -9.375 v -9.375 h 9.375 z m 0,-18.75 h -9.375 v -14.063 h -9.375 V 262.5 H 178.125 V 243.75 H 168.75 V 262.5 H 150 v -18.75 h -9.375 v 18.75 h -18.75 V 243.75 H 112.5 V 262.5 H 98.438 V 248.437 H 89.063 V 262.5 h -9.375 v -32.813 h 18.75 v 9.375 h 9.375 v -9.375 h 18.75 v 9.375 h 9.375 v -9.375 h 18.75 v 9.375 h 9.375 v -9.375 h 18.75 v 9.375 h 9.375 v -9.375 h 18.75 z M 79.688,220.313 v -60.938 h 18.75 v 60.938 z m 28.125,0 v -60.938 h 18.75 v 60.938 z m 28.125,0 v -60.938 h 18.75 v 60.938 z m 28.125,0 v -60.938 h 18.75 v 60.938 z m 46.875,0 h -18.75 v -60.938 h 18.75 z m 0,-70.313 H 79.688 v -9.375 h 131.25 z m -88.157,-18.75 22.533,-9.014 22.532,9.014 z m 88.157,0 h -17.846 l -47.78,-19.111 -47.78,19.111 H 79.688 77.935 l 67.378,-27.741 67.378,27.741 z m 9.375,32.813 h 60.938 v 9.375 h -60.938 z m 0,18.749 h 60.938 V 225 h -14.062 v -14.063 h -9.375 V 225 h -14.063 v -14.063 h -9.375 V 225 h -14.063 z m 60.939,98.438 h -60.938 v -9.375 h 60.938 z m 0,-18.75 h -60.938 v -28.125 h 60.938 z"
   id="path5025"
   style="stroke-width:2.76784" />
			<rect
   x="257.81299"
   y="243.75"
   width="9.375"
   height="9.375"
   id="rect5027"
   style="stroke-width:2.76784" />
			<rect
   x="234.37601"
   y="243.75"
   width="9.375"
   height="9.375"
   id="rect5029"
   style="stroke-width:2.76784" />
			<rect
   x="257.81299"
   y="192.188"
   width="9.375"
   height="9.375"
   id="rect5031"
   style="stroke-width:2.76784" />
			<rect
   x="234.37601"
   y="192.188"
   width="9.375"
   height="9.375"
   id="rect5033"
   style="stroke-width:2.76784" />
		</g>
	</g>
</g></svg>
