<?xml version="1.0" encoding="UTF-8" standalone="no"?>
<!-- Uploaded to: SVG Repo, www.svgrepo.com, Generator: SVG Repo Mixer Tools -->

<svg
   fill="#000000"
   height="800px"
   width="800px"
   version="1.1"
   id="Capa_1"
   viewBox="0 0 441 441"
   xml:space="preserve"
   sodipodi:docname="prehistory1.svg"
   inkscape:version="1.2.2 (b0a8486, 2022-12-01)"
   xmlns:inkscape="http://www.inkscape.org/namespaces/inkscape"
   xmlns:sodipodi="http://sodipodi.sourceforge.net/DTD/sodipodi-0.dtd"
   xmlns="http://www.w3.org/2000/svg"
   xmlns:svg="http://www.w3.org/2000/svg"><defs
   id="defs50" /><sodipodi:namedview
   id="namedview48"
   pagecolor="#ffffff"
   bordercolor="#000000"
   borderopacity="0.25"
   inkscape:showpageshadow="2"
   inkscape:pageopacity="0.0"
   inkscape:pagecheckerboard="0"
   inkscape:deskcolor="#d1d1d1"
   showgrid="false"
   inkscape:zoom="0.35974058"
   inkscape:cx="-261.29941"
   inkscape:cy="201.53412"
   inkscape:window-width="1920"
   inkscape:window-height="1016"
   inkscape:window-x="0"
   inkscape:window-y="27"
   inkscape:window-maximized="1"
   inkscape:current-layer="Capa_1" />

<g
   id="g4029"
   transform="matrix(0.75744517,0,0,0.75744517,53.48334,57.791749)"
   style="stroke-width:1.32023"><g
     id="g45"
     style="stroke-width:1.32023">
	<path
   d="m 376.398,308.009 c -0.298,-3.578 -3.442,-6.235 -7.018,-5.938 -3.577,0.298 -6.236,3.44 -5.938,7.018 l 0.746,8.951 c 0.283,3.394 3.125,5.96 6.47,5.96 0.181,0 0.364,-0.008 0.547,-0.023 3.577,-0.298 6.236,-3.44 5.938,-7.018 z"
   id="path27"
   style="stroke-width:1.32023" />
	<path
   d="m 308.849,141.285 -20.285,-1.127 -57.636,-16.138 c -1.25,-0.35 -2.575,-0.317 -3.808,0.093 l -56.769,18.923 -14.013,-25.774 c -1.715,-3.155 -5.663,-4.321 -8.815,-2.606 -3.154,1.715 -4.321,5.661 -2.606,8.815 l 16.347,30.067 8.712,23.957 -7.844,42.584 c -0.65,3.531 1.685,6.92 5.215,7.57 0.398,0.073 0.794,0.108 1.185,0.108 3.075,0 5.808,-2.191 6.385,-5.323 l 7.036,-38.196 8.361,1.176 c 0.307,0.043 0.611,0.064 0.913,0.064 3.188,0 5.972,-2.348 6.428,-5.596 0.5,-3.555 -1.977,-6.842 -5.531,-7.342 l -10.662,-1.499 -5.84,-16.06 53.719,-17.906 53.163,14.885 8.951,25.063 -2.982,2.319 -15.892,-11.218 c -2.365,-1.669 -5.549,-1.573 -7.809,0.235 l -15.306,12.245 -34.307,-4.824 c -3.558,-0.502 -6.842,1.977 -7.342,5.531 -0.5,3.555 1.977,6.842 5.531,7.342 l 33.652,4.732 17.15,35.372 c 1.123,2.316 3.44,3.666 5.854,3.666 0.951,0 1.917,-0.21 2.831,-0.653 3.23,-1.566 4.579,-5.454 3.013,-8.685 l -16.398,-33.821 9.627,-7.702 15.836,11.178 c 2.339,1.651 5.481,1.577 7.739,-0.179 l 10.497,-8.165 c 2.215,-1.724 3.075,-4.674 2.13,-7.317 l -8.371,-23.439 11.221,0.623 c 0.123,0.006 0.245,0.01 0.366,0.01 3.424,0 6.292,-2.678 6.484,-6.14 0.199,-3.582 -2.545,-6.649 -6.13,-6.848 z"
   id="path29"
   style="stroke-width:1.32023" />
	<path
   d="m 159.179,324.291 v -32.658 c 0,-3.59 -2.91,-6.5 -6.5,-6.5 -3.59,0 -6.5,2.91 -6.5,6.5 v 29.146 l -1.032,0.676 -11.587,-27.252 c -1.404,-3.303 -5.22,-4.842 -8.525,-3.438 -3.303,1.405 -4.843,5.222 -3.438,8.525 l 12.502,29.405 -0.078,0.051 -22.992,-22.186 c -2.583,-2.492 -6.698,-2.42 -9.191,0.164 -2.493,2.584 -2.419,6.698 0.164,9.191 l 20.869,20.138 -0.05,0.032 -17.353,-5.482 c -3.422,-1.08 -7.075,0.817 -8.156,4.24 -1.081,3.423 0.817,7.075 4.24,8.156 l 20.294,6.411 c 0.641,0.202 1.301,0.302 1.958,0.302 1.252,0 2.493,-0.362 3.563,-1.063 l 28.875,-18.922 c 1.833,-1.201 2.937,-3.245 2.937,-5.436 z"
   id="path31"
   style="stroke-width:1.32023" />
	<path
   d="m 179.026,315.755 -13.24,12.223 c -0.74,0.683 -1.312,1.53 -1.669,2.472 l -10.309,27.194 c -1.272,3.357 0.417,7.11 3.774,8.382 0.759,0.287 1.537,0.424 2.303,0.424 2.623,0 5.094,-1.6 6.079,-4.198 l 9.765,-25.761 12.115,-11.184 c 2.638,-2.435 2.802,-6.547 0.367,-9.185 -2.435,-2.638 -6.547,-2.802 -9.185,-0.367 z"
   id="path33"
   style="stroke-width:1.32023" />
	<path
   d="m 141.972,342.398 -9.5,7.5 c -2.817,2.224 -3.298,6.312 -1.074,9.129 1.283,1.625 3.185,2.473 5.106,2.473 1.41,0 2.831,-0.457 4.023,-1.399 l 9.5,-7.5 c 2.817,-2.224 3.298,-6.312 1.074,-9.129 -2.223,-2.818 -6.311,-3.299 -9.129,-1.074 z"
   id="path35"
   style="stroke-width:1.32023" />
	<path
   d="m 296.783,300.85 -17.354,5.481 -0.05,-0.032 20.869,-20.137 c 2.583,-2.493 2.657,-6.607 0.164,-9.191 -2.493,-2.583 -6.607,-2.655 -9.191,-0.164 l -22.992,22.186 -0.078,-0.051 12.502,-29.405 c 1.404,-3.304 -0.135,-7.121 -3.438,-8.525 -3.305,-1.404 -7.121,0.135 -8.525,3.438 l -11.587,27.252 -1.032,-0.676 v -29.147 c 0,-3.59 -2.91,-6.5 -6.5,-6.5 -3.59,0 -6.5,2.91 -6.5,6.5 v 32.659 c 0,2.191 1.104,4.235 2.938,5.437 l 28.875,18.921 c 1.071,0.702 2.311,1.063 3.563,1.063 0.657,0 1.317,-0.1 1.957,-0.302 l 20.294,-6.41 c 3.423,-1.082 5.322,-4.733 4.241,-8.156 -1.082,-3.424 -4.739,-5.321 -8.156,-4.241 z"
   id="path37"
   style="stroke-width:1.32023" />
	<path
   d="m 238.134,300.696 c -0.357,-0.942 -0.929,-1.788 -1.669,-2.472 l -13.24,-12.223 c -2.637,-2.435 -6.75,-2.271 -9.185,0.367 -2.435,2.638 -2.271,6.75 0.367,9.185 l 12.114,11.184 9.766,25.761 c 0.985,2.598 3.456,4.198 6.079,4.198 0.766,0 1.544,-0.137 2.303,-0.424 3.356,-1.273 5.046,-5.025 3.774,-8.382 z"
   id="path39"
   style="stroke-width:1.32023" />
	<path
   d="m 269.778,320.145 -9.5,-7.5 c -2.818,-2.225 -6.905,-1.743 -9.129,1.074 -2.225,2.818 -1.744,6.905 1.074,9.129 l 9.5,7.5 c 1.193,0.942 2.613,1.399 4.023,1.399 1.921,0 3.823,-0.848 5.106,-2.473 2.225,-2.818 1.744,-6.905 -1.074,-9.129 z"
   id="path41"
   style="stroke-width:1.32023" />
	
</g><path
     d="m 433.95823,396.53931 h -10.37631 l -6.58846,-130.84354 c -0.145,-2.712 -0.87646,-25.09346 -5.63554,-25.90346 L 373.23931,233.80616 356.978,74.96 c -0.259,-3.108 -2.689,-5.594 -5.79,-5.924 l -43.19,-4.594 -17.509,-41.47 C 289.46,20.535 287.042,7.6098501 284.413,7.6238501 L 210.95477,9.1656192 C 208.36277,9.2006192 205.498,21.608 204.501,24.001 L 195.936,44.557 95.633,58.058 c -2.817,0.379 -5.062,2.546 -5.54,5.348 L 62.695,223.877 42,232.5 c -2.312,0.963 -3.864,3.169 -3.992,5.67 L 29.863769,394.914 6.5,395.45577 C 2.9109648,395.539 0,411.91 0,415.5 c 0,3.59 2.91,6.5 6.5,6.5 h 428 c 3.59,0 6.5,-2.91 6.5,-6.5 0,-3.59 -4.7445,-21.71943 -7.04177,-18.96069 z m -377.533235,-1.08354 5.736155,-144.948 39.60239,-19.1647 c 3.314,-1.381 3.79746,-14.39707 2.41646,-17.71007 -1.38,-3.314 -5.188,-4.879 -8.5,-3.5 L 87.728381,217.41923 110.22954,82.222919 189.60323,68.745612 182.833,76 c -1.381,3.314 0.187,7.119 3.5,8.5 0.817,0.341 1.664,0.502 2.498,0.502 2.545,0 16.33915,0.120307 17.37915,-2.376693 l 15.14808,-49.141538 51.27,-0.341231 18.38154,46.387691 c 0.92,2.178 6.20062,8.560921 8.55162,8.810921 l 37.32184,3.889231 14.21339,198.191849 c 0.283,3.394 13.96038,6.50177 17.30538,6.50177 0.181,0 0.364,-0.008 0.547,-0.023 3.577,-0.298 6.236,-3.44 5.938,-7.018 l -2.108,-25.299 18.47,5.772 7.395,124.558 z"
     id="path43"
     sodipodi:nodetypes="sccccccccccccccccccssssssccccccccccscccccccscccccc"
     style="stroke-width:1.32023" /></g></svg>
