<?xml version="1.0" encoding="UTF-8" standalone="no"?>
<!-- Uploaded to: SVG Repo, www.svgrepo.com, Generator: SVG Repo Mixer Tools -->

<svg
   width="800px"
   height="800px"
   viewBox="0 0 100 100"
   aria-hidden="true"
   role="img"
   class="iconify iconify--gis"
   preserveAspectRatio="xMidYMid meet"
   version="1.1"
   id="svg184"
   sodipodi:docname="europe.svg"
   xml:space="preserve"
   inkscape:version="1.2.2 (b0a8486, 2022-12-01)"
   xmlns:inkscape="http://www.inkscape.org/namespaces/inkscape"
   xmlns:sodipodi="http://sodipodi.sourceforge.net/DTD/sodipodi-0.dtd"
   xmlns="http://www.w3.org/2000/svg"
   xmlns:svg="http://www.w3.org/2000/svg"><defs
     id="defs188" /><sodipodi:namedview
     id="namedview186"
     pagecolor="#ffffff"
     bordercolor="#666666"
     borderopacity="1.0"
     inkscape:showpageshadow="2"
     inkscape:pageopacity="0.0"
     inkscape:pagecheckerboard="0"
     inkscape:deskcolor="#d1d1d1"
     showgrid="false"
     inkscape:zoom="0.525"
     inkscape:cx="249.52381"
     inkscape:cy="638.09524"
     inkscape:window-width="1920"
     inkscape:window-height="1043"
     inkscape:window-x="1920"
     inkscape:window-y="0"
     inkscape:window-maximized="1"
     inkscape:current-layer="svg184" /><g
     id="g6923"
     transform="matrix(2.040483,0,0,2.040483,-2.9678447,-20.045939)"
     style="stroke-width:0.49008"><path
       d="m 27.432489,42.909367 0.05,0.15 0.175,-0.075 0.15,0.2125 0.1625,0.0875 0.075,0.2875 -0.0625,0.275 0.125,0.3375 0.2875,0.1875 0.0125,0.2125 -0.2125,0.1125 -0.0125,0.2625 -0.275,0.3875 -0.1125,-0.05 -0.025,-0.175 -0.3875,-0.275 -0.0875,-0.375 0.0125,-0.55 0.0625,-0.2375 -0.1125,-0.125 -0.0625,-0.2625 z"
       id="AL"
       name="Albania"
       style="stroke-width:0.06126" /><path
       d="m 25.257489,38.259367 -0.0375,0.1 0.0875,0.2625 -0.025,0.325 h -0.35 l 0.1375,0.175 -0.1625,0.5 -0.1125,0.1375 -0.55,0.0125 -0.3,0.1875 -0.525,-0.0625 -0.9125,-0.2125 -0.1625,-0.2625 -0.6125,0.1375 -0.0625,0.15 -0.3875,-0.1125 -0.325,-0.025 -0.2875,-0.15 0.0875,-0.1875 -0.025,-0.1375 0.175,-0.0375 0.3375,0.2125 0.075,-0.2125 0.55,0.0375 0.4375,-0.1375 0.3,0.025 0.2125,0.1625 0.05,-0.1375 -0.125,-0.5125 0.2125,-0.1 0.2,-0.3625 0.475,0.2625 0.325,-0.325 0.2125,-0.0625 0.5,0.2375 0.2875,-0.0375 z"
       id="AT"
       name="Austria"
       style="stroke-width:0.06126" /><path
       d="m 18.494989,36.546867 -0.05,0.525 -0.1625,0.025 -0.05,0.4375 -0.55,-0.3625 -0.3125,0.0625 -0.4375,-0.3625 -0.3,-0.3125 -0.275,-0.0125 -0.1,-0.275 0.4875,-0.15 0.45,0.0625 0.5625,-0.1625 0.3875,0.3375 z"
       id="BE"
       name="Belgium"
       style="stroke-width:0.06126" /><path
       d="m 33.007489,42.109367 -0.2875,0.325 -0.1625,0.5625 0.2625,0.45 -0.575,-0.1 -0.625,0.25 0.0375,0.4 -0.575,0.075 -0.4875,-0.2875 -0.5,0.225 -0.475,-0.025 -0.1,-0.525 -0.35,-0.2625 0.0875,-0.1 -0.075,-0.1 0.075,-0.25 0.225,-0.25 -0.35,-0.3375 -0.0875,-0.3 0.1375,-0.175 0.225,0.325 0.2375,-0.05 0.5,0.1125 0.95,0.05 0.2875,-0.2 0.7375,-0.1875 0.5,0.2875 z"
       id="BG"
       name="Bulgaria"
       style="stroke-width:0.06126" /><path
       d="m 26.807489,41.196867 0.2375,-0.0125 -0.1375,0.35 0.3375,0.3125 -0.0625,0.3625 -0.1375,0.0375 -0.1125,0.075 -0.2,0.1875 -0.05,0.4375 -0.6,-0.3 -0.2625,-0.3375 -0.2625,-0.175 -0.3125,-0.3 -0.1625,-0.2375 -0.3375,-0.375 0.1,-0.325 0.25,0.1875 0.125,-0.175 0.2875,-0.0125 0.5625,0.1375 0.4375,-0.0125 z"
       id="BA"
       name="Bosnia and Herzegovina"
       style="stroke-width:0.06126" /><path
       d="m 34.132489,34.746867 -0.4875,-0.025 -0.1,0.075 0.1875,0.25 0.25,0.5 -0.5125,0.0375 -0.1625,0.175 0.0375,0.3875 -0.2625,-0.075 -0.5375,0.0375 -0.1875,-0.1875 -0.2125,0.1375 -0.2375,-0.1125 -0.4875,-0.0125 -0.7125,-0.1875 -0.6125,-0.0625 -0.475,0.025 -0.3,0.2 -0.2875,0.0375 -0.0625,-0.35 -0.2375,-0.35 0.35,-0.1625 -0.05,-0.3 -0.2125,-0.2875 -0.075,-0.3375 h 0.5875 l 0.6,-0.2875 0.0625,-0.425 0.45,-0.25 -0.125,-0.3375 0.3375,-0.125 0.575,-0.2875 0.6625,0.1875 0.1125,0.1875 0.3,-0.0875 0.6,0.175 0.1375,0.3625 -0.0875,0.2 0.475,0.5 0.2625,0.1375 v 0.1375 l 0.425,0.1375 0.2125,0.2 z"
       id="BY"
       name="Belarus"
       style="stroke-width:0.06126" /><path
       d="m 20.732489,39.096867 0.025,0.1375 -0.0875,0.1875 0.2875,0.15 0.325,0.025 -0.0375,0.3125 -0.2625,0.1375 -0.475,-0.1 -0.125,0.3125 -0.3,0.025 -0.1125,-0.125 -0.3375,0.275 -0.3125,0.0375 -0.275,-0.175 -0.225,-0.3375 -0.3,0.125 v -0.3625 l 0.45,-0.4375 -0.025,-0.2 0.2875,0.075 0.1625,-0.1375 h 0.525 l 0.125,-0.1625 z"
       id="CH"
       name="Switzerland"
       style="stroke-width:0.06126" /><path
       d="m 23.894989,36.309367 0.3125,0.25 0.4625,0.0625 -0.025,0.2125 0.35,0.1625 0.075,-0.2 0.425,0.0875 0.0875,0.25 0.4625,0.0375 0.325,0.3875 h -0.1875 l -0.0875,0.1375 -0.1375,0.0375 -0.025,0.175 -0.1125,0.0375 -0.0125,0.075 -0.2,0.075 -0.275,-0.0125 -0.075,0.175 -0.3,-0.15 -0.2875,0.0375 -0.5,-0.2375 -0.2125,0.0625 -0.325,0.325 -0.475,-0.2625 -0.375,-0.325 -0.325,-0.1875 -0.0875,-0.3375 -0.125,-0.225 0.425,-0.1625 0.2125,-0.2 0.4375,-0.15 0.1375,-0.15 0.1625,0.0875 z"
       id="CZ"
       name="Czech Republic"
       style="stroke-width:0.06126" /><path
       d="m 23.169989,34.271867 0.175,0.3875 -0.15,0.2125 0.2375,0.2625 0.1875,0.4125 -0.025,0.275 0.3,0.4875 -0.275,0.075 -0.1625,-0.0875 -0.1375,0.15 -0.4375,0.15 -0.2125,0.2 -0.425,0.1625 0.125,0.225 0.0875,0.3375 0.325,0.1875 0.375,0.325 -0.2,0.3625 -0.2125,0.1 0.125,0.5125 -0.05,0.1375 -0.2125,-0.1625 -0.3,-0.025 -0.4375,0.1375 -0.55,-0.0375 -0.075,0.2125 -0.3375,-0.2125 -0.175,0.0375 -0.6875,-0.2375 -0.125,0.1625 h -0.525 l 0.05,-0.5625 0.3,-0.525 -0.9,-0.15 -0.3,-0.2 0.025,-0.3375 -0.125,-0.175 0.05,-0.525 -0.1375,-0.8125 h 0.3625 l 0.15,-0.2875 0.1125,-0.7 -0.1125,-0.2625 0.1,-0.1625 0.5,-0.0375 0.125,0.1625 0.3875,-0.375 -0.1625,-0.2875 -0.05,-0.425 0.4625,0.1 0.3625,-0.1125 0.0375,0.2875 0.6125,0.175 0.0125,0.275 0.5875,-0.15 0.325,-0.2 0.7,0.3 z"
       id="DE"
       name="Germany"
       style="stroke-width:0.06126" /><path
       class="Denmark"
       d="m 22.194989,32.871867 -0.3,0.6125 -0.65,-0.4375 -0.1125,-0.3125 0.85,-0.25 z"
       id="path1297"
       style="stroke-width:0.06126" /><path
       class="Denmark"
       d="m 20.594989,33.346867 -0.3625,0.1125 -0.4625,-0.1 -0.2625,-0.425 -0.05,-0.7625 0.075,-0.2125 0.1625,-0.225 0.5,-0.0375 0.2,-0.2125 0.45,-0.2125 v 0.3875 l -0.15,0.25 0.0875,0.2 0.325,0.1125 -0.125,0.2875 -0.175,-0.075 -0.3875,0.5375 z"
       id="path1299"
       style="stroke-width:0.06126" /><path
       d="m 30.644989,29.984367 0.1125,0.125 -0.325,0.425 0.3,0.7 -0.2,0.2375 -0.475,-0.0125 -0.55,-0.275 -0.2625,-0.0875 -0.475,0.125 -0.0125,-0.4375 -0.1875,0.1 -0.4125,-0.2625 -0.125,-0.425 0.6875,-0.2125 0.7,-0.1 0.6375,0.1125 z"
       id="EE"
       name="Estonia"
       style="stroke-width:0.06126" /><path
       d="m 29.444989,23.171867 0.05,0.475 0.9125,0.4625 -0.3625,0.525 0.8125,0.7875 -0.2125,0.6 0.6125,0.525 -0.1125,0.475 0.925,0.4875 -0.1125,0.3625 -0.425,0.425 -1,0.925 -1,0.0625 -0.95,0.2625 -0.8875,0.1625 -0.4,-0.4 -0.5875,-0.2375 0.0125,-0.725 -0.375,-0.65 0.2,-0.425 0.4125,-0.4375 1.1,-0.775 0.325,-0.15 -0.1125,-0.3 -0.8125,-0.325 -0.225,-0.275 -0.225,-1.0625 -0.9,-0.4625 -0.75,-0.3375 0.275,-0.175 0.6375,0.35 0.6625,-0.025 0.5875,0.1625 0.425,-0.3 0.1375,-0.5 0.7375,-0.225 0.725,0.2625 z"
       id="FI"
       name="Finland"
       style="stroke-width:0.06126" /><path
       class="United Kingdom"
       d="m 11.019989,34.184367 -0.4375,-0.15 -0.375,0.0125 0.15,-0.4125 -0.1125,-0.4 0.5,-0.0375 0.6125,0.475 z"
       id="path1310"
       style="stroke-width:0.06126" /><path
       class="United Kingdom"
       d="m 13.007489,30.596867 -0.6375,0.8125 0.5875,-0.1 h 0.6375 l -0.1625,0.6125 -0.5375,0.675 0.6125,0.0375 0.0375,0.0875 0.525,0.8875 0.4,0.125 0.3625,0.875 0.175,0.3 0.7375,0.1375 -0.075,0.5 -0.3,0.225 0.2375,0.4 -0.55,0.4 -0.8125,-0.0125 -1.05,0.225 -0.275,-0.1625 -0.4125,0.3625 -0.5625,-0.0875 -0.45,0.3 -0.3125,-0.15 0.9125,-0.8125 0.55,-0.175 -0.95,-0.125 -0.1625,-0.3125 0.6375,-0.2375 -0.3125,-0.4125 0.125,-0.5 0.8875,0.075 0.1,-0.45 -0.3875,-0.4625 -0.0125,-0.0125 -0.7125,-0.1375 -0.1375,-0.2 0.225,-0.3375 -0.1875,-0.2125 -0.325,0.3625 -0.0125,-0.7375 -0.275,-0.375 0.2375,-0.775 0.475,-0.6 0.45,0.05 z"
       id="path1312"
       style="stroke-width:0.06126" /><path
       class="Greece"
       d="m 30.519989,48.484367 0.3875,0.275 0.5125,-0.05 0.5,0.05 v 0.15 l 0.35,-0.1 -0.0625,0.2375 -0.95,0.0625 -0.0125,-0.125 -0.825,-0.1625 z"
       id="path1320"
       style="stroke-width:0.06126" /><path
       class="Greece"
       d="m 31.669989,44.396867 -0.4,-0.025 -0.3375,-0.075 -0.775,0.2 0.5,0.45 -0.3125,0.1375 h -0.3625 l -0.3875,-0.4125 -0.1125,0.175 0.2,0.475 0.3625,0.375 -0.2375,0.175 0.4,0.3625 0.35,0.2375 0.05,0.45 -0.625,-0.2125 0.225,0.4125 -0.4125,0.075 0.3125,0.7125 -0.4375,0.0125 -0.575,-0.35 -0.3,-0.6375 -0.1625,-0.5375 -0.2875,-0.3625 -0.375,-0.4625 -0.0625,-0.225 0.275,-0.3875 0.0125,-0.2625 0.2125,-0.1125 -0.0125,-0.2125 0.425,-0.0625 0.225,-0.175 0.35,0.0125 0.1,-0.1375 0.125,-0.025 0.475,0.025 0.5,-0.225 0.4875,0.2875 0.575,-0.075 -0.0375,-0.4 0.3375,0.2125 -0.1375,0.5 z"
       id="path1322"
       style="stroke-width:0.06126" /><path
       d="m 26.619989,40.359367 0.1875,0.3125 0.2125,0.225 -0.2125,0.3 -0.3,-0.175 -0.4375,0.0125 -0.5625,-0.1375 -0.2875,0.0125 -0.125,0.175 -0.25,-0.1875 -0.1,0.325 0.3375,0.375 0.1625,0.2375 0.3125,0.3 0.2625,0.175 0.2625,0.3375 0.6,0.3 -0.0625,0.125 -0.625,-0.2875 -0.4,-0.2875 -0.6,-0.2375 -0.5875,-0.575 0.125,-0.0625 -0.3125,-0.3375 -0.0375,-0.2625 -0.4125,-0.125 -0.175,0.3375 -0.2,-0.2625 v -0.275 l 0.0125,-0.0125 0.45,0.025 0.1,-0.125 0.225,0.125 0.25,0.0125 -0.0125,-0.2125 0.2125,-0.0875 0.0375,-0.3125 0.4875,-0.2125 0.2,0.1 0.5,0.3375 0.5375,0.15 z"
       id="HR"
       name="Croatia"
       style="stroke-width:0.06126" /><path
       d="m 28.457489,38.396867 0.375,0.2125 0.0625,0.2125 -0.3625,0.1625 -0.2375,0.525 -0.325,0.5375 -0.4875,0.15 -0.4,-0.0375 -0.4625,0.2 -0.225,0.125 -0.5375,-0.15 -0.5,-0.3375 -0.2,-0.1 -0.15,-0.2625 -0.1,-0.0125 0.1625,-0.5 -0.1375,-0.175 h 0.35 l 0.025,-0.325 0.3375,0.2125 0.2375,0.075 0.5125,-0.0875 0.0375,-0.1625 0.2375,-0.025 0.2875,-0.1125 0.075,0.05 0.2875,-0.1 0.125,-0.1875 0.2,-0.05 0.6875,0.2375 z"
       id="HU"
       name="Hungary"
       style="stroke-width:0.06126" /><path
       d="m 11.019989,34.184367 0.0875,0.55 -0.4875,0.6875 -1.0999996,0.45 -0.85,-0.1125 0.5375,-0.8 -0.2625,-0.775 0.8375,-0.6 0.4624996,-0.35 0.1125,0.4 -0.15,0.4125 0.375,-0.0125 z"
       id="IE"
       name="Ireland"
       style="stroke-width:0.06126" /><path
       d="m 7.0324894,24.971867 -0.175,0.45 0.55,0.475 -0.7625,0.5375 -1.6375,0.4875 -0.4875,0.1375 -0.7,-0.1125 -1.4875,-0.225 0.6,-0.3125 -1.125,-0.3375 0.9875,-0.1375 0.0125,-0.2125 -1.1,-0.1625 0.45,-0.4625 0.825,-0.1 0.75,0.475 0.875,-0.375 0.6375,0.1875 0.9125,-0.3625 z"
       id="IS"
       name="Iceland"
       style="stroke-width:0.06126" /><path
       class="Italy"
       d="m 24.957489,46.459367 -0.2125,0.6375 0.1125,0.2375 -0.1125,0.4125 -0.525,-0.3 -0.3375,-0.0875 -0.9375,-0.4 0.0625,-0.4125 0.775,0.075 0.675,-0.0875 z"
       id="path1363"
       style="stroke-width:0.06126" /><path
       class="Italy"
       d="m 20.707489,44.084367 0.4125,0.5625 -0.05,1.0625 -0.3,-0.05 -0.2625,0.2625 -0.25,-0.2125 -0.0625,-0.9625 -0.1625,-0.45 0.3625,0.0375 z"
       id="path1365"
       style="stroke-width:0.06126" /><path
       class="Italy"
       d="m 23.419989,39.896867 -0.05,0.3875 0.175,0.3375 -0.5125,-0.125 -0.4875,0.2875 0.05,0.3875 -0.0625,0.225 0.2375,0.4 0.625,0.4 0.3625,0.6625 0.7625,0.6375 0.5,-0.0125 0.175,0.175 -0.175,0.1625 0.6,0.2875 0.5,0.2375 0.5875,0.425 0.075,0.1375 -0.1,0.2875 -0.3875,-0.375 -0.575,-0.125 -0.2375,0.5125 0.4875,0.3 -0.05,0.4125 -0.2625,0.05 -0.3125,0.6875 -0.275,0.0625 -0.0125,-0.25 0.1125,-0.425 0.1375,-0.175 -0.2875,-0.4625 -0.225,-0.4 -0.275,-0.1 -0.225,-0.3375 -0.425,-0.15 -0.3,-0.325 -0.475,-0.05 -0.5375,-0.35 -0.6125,-0.525 -0.4625,-0.45 -0.2375,-0.7875 -0.325,-0.0875 -0.525,-0.2625 -0.2875,0.1 -0.3625,0.375 -0.2625,0.05 0.0625,-0.3375 -0.35,-0.1 -0.1875,-0.6125 0.2125,-0.2375 -0.1875,-0.3 0.0125,-0.225 0.275,0.175 0.3125,-0.0375 0.3375,-0.275 0.1125,0.125 0.3,-0.025 0.125,-0.3125 0.475,0.1 0.2625,-0.1375 0.0375,-0.3125 0.3875,0.1125 0.0625,-0.15 0.6125,-0.1375 0.1625,0.2625 z"
       id="path1367"
       style="stroke-width:0.06126" /><path
       d="m 30.319989,32.859367 0.125,0.3375 -0.45,0.25 -0.0625,0.425 -0.6,0.2875 h -0.5875 l -0.175,-0.2375 -0.3125,-0.0875 -0.075,-0.1875 0.025,-0.2125 -0.275,-0.1125 -0.6375,-0.1375 -0.2125,-0.6375 0.6375,-0.225 0.9875,0.05 0.5625,-0.075 0.1125,0.15 0.3125,0.05 z"
       id="LT"
       name="Lithuania"
       style="stroke-width:0.06126" /><path
       d="m 18.544989,37.584367 -0.175,0.0125 -0.1375,-0.0625 0.05,-0.4375 0.1625,-0.025 0.125,0.175 z"
       id="LU"
       name="Luxembourg"
       style="stroke-width:0.06126" /><path
       d="m 30.532489,31.471867 0.3125,0.1625 0.125,0.3625 0.2625,0.45 -0.575,0.2875 -0.3375,0.125 -0.625,-0.3625 -0.3125,-0.05 -0.1125,-0.15 -0.5625,0.075 -0.9875,-0.05 -0.6375,0.225 -0.0625,-0.5625 0.2125,-0.475 0.5125,-0.25 0.55,0.5625 0.4625,-0.025 0.0125,-0.575 0.475,-0.125 0.2625,0.0875 0.55,0.275 z"
       id="LV"
       name="Latvia"
       style="stroke-width:0.06126" /><path
       d="m 32.607489,40.696867 -0.1625,-0.3625 0.025,-0.3375 -0.075,-0.3375 -0.425,-0.475 -0.25,-0.325 -0.225,-0.225 -0.2,-0.0875 0.1375,-0.1125 0.4,-0.075 0.5,0.2375 0.25,0.0375 0.325,0.2125 -0.0125,0.2625 0.25,0.125 0.1375,0.325 0.25,0.2 -0.025,0.125 0.125,0.075 -0.1625,0.0625 -0.375,-0.025 -0.075,-0.1125 -0.125,0.0625 0.075,0.1375 -0.1375,0.2625 -0.075,0.2625 z"
       id="MD"
       name="Moldova"
       style="stroke-width:0.06126" /><path
       d="m 29.619989,43.984367 -0.125,0.025 -0.1,0.1375 -0.35,-0.0125 -0.225,0.175 -0.425,0.0625 -0.2875,-0.1875 -0.125,-0.3375 0.0625,-0.275 0.0875,0.0125 0.0125,-0.1625 0.3625,-0.125 0.15,-0.0375 0.2125,-0.0375 0.3,-0.025 0.35,0.2625 z"
       id="MK"
       name="Macedonia"
       style="stroke-width:0.06126" /><path
       d="m 27.757489,42.809367 -0.1,0.175 -0.175,0.075 -0.05,-0.15 -0.2375,0.3875 0.0625,0.2625 -0.1375,-0.0625 -0.2125,-0.2625 -0.2875,-0.1625 0.0625,-0.125 0.05,-0.4375 0.2,-0.1875 0.1125,-0.075 0.175,0.1375 0.1125,0.1125 0.2125,0.0875 0.2625,0.1625 z"
       id="ME"
       name="Montenegro"
       style="stroke-width:0.06126" /><path
       class="Norway"
       d="m 30.644989,22.846867 -0.8,0.2625 -0.4,0.0625 0.1,-0.475 -0.725,-0.2625 -0.7375,0.225 -0.1375,0.5 -0.425,0.3 -0.5875,-0.1625 -0.6625,0.025 -0.6375,-0.35 -0.275,0.175 -0.325,0.025 0.0125,0.45 -1,-0.1125 -0.075,0.3875 h -0.5 l -0.2875,0.4875 -0.425,0.7625 -0.7125,0.9875 0.225,0.25 -0.1625,0.275 -0.5375,-0.0125 -0.3,0.675 0.125,0.9625 0.3875,0.3625 -0.1,0.8625 -0.425,0.5 -0.225,0.425 -0.4125,-0.45 -1.075,0.85 -0.7625,0.175 -0.8125,-0.375 -0.225,-0.7875 -0.25,-1.6875 0.5,-0.4625 1.4125,-0.6125 1.0125,-0.7375 0.9,-0.975 1.1125,-1.3375 0.8,-0.5125 1.2875,-0.85 1.0625,-0.3 0.8375,0.0375 0.65,-0.55 0.925,0.025 0.875,-0.125 1.7125,0.4875 -0.6125,0.175 z"
       id="path1412"
       style="stroke-width:0.06126" /><path
       class="Norway"
       d="m 26.007489,17.559367 -0.95,0.2375 -0.85,-0.1375 0.275,-0.15 -0.325,-0.1875 0.9125,-0.1125 0.2375,0.2125 z"
       id="path1414"
       style="stroke-width:0.06126" /><path
       class="Norway"
       d="m 22.807489,16.496867 1.575,0.425 -1.075,0.225 -0.15,0.425 -0.375,0.1125 -0.1125,0.5 -0.55,0.025 -1.0625,-0.3625 0.375,-0.2125 -0.7125,-0.175 -0.9625,-0.4875 -0.4,-0.4375 1.1625,-0.2 0.2875,0.1875 h 0.625 l 0.125,-0.1875 0.65,-0.025 z"
       id="path1416"
       style="stroke-width:0.06126" /><path
       class="Norway"
       d="m 25.857489,16.121867 0.925,0.1875 -0.55,0.3 -1.2625,0.0625 -1.3375,-0.1 -0.125,-0.15 h -0.6375 l -0.5375,-0.25 1.3125,-0.15 0.675,0.125 0.3875,-0.1625 z"
       id="path1418"
       style="stroke-width:0.06126" /><path
       d="m 26.419989,33.759367 0.7375,0.0875 1.1,-0.0125 0.3125,0.0875 0.175,0.2375 0.075,0.3375 0.2125,0.2875 0.05,0.3 -0.35,0.1625 0.2375,0.35 0.0625,0.35 0.4,0.675 -0.0375,0.2125 -0.2875,0.0875 -0.475,0.65 0.2,0.35 -0.1375,-0.05 -0.625,-0.3 -0.4375,0.1125 -0.3,-0.075 -0.35,0.1625 -0.3375,-0.275 -0.2375,0.1125 -0.0375,-0.05 -0.325,-0.3875 -0.4625,-0.0375 -0.0875,-0.25 -0.425,-0.0875 -0.075,0.2 -0.35,-0.1625 0.025,-0.2125 -0.4625,-0.0625 -0.3125,-0.25 -0.3,-0.4875 0.025,-0.275 -0.1875,-0.4125 -0.2375,-0.2625 0.15,-0.2125 -0.175,-0.3875 0.3875,-0.225 0.8875,-0.35 0.725,-0.25 0.6,0.125 0.075,0.1875 z"
       id="PL"
       name="Poland"
       style="stroke-width:0.06126" /><path
       d="m 31.294989,38.546867 0.2,0.0875 0.225,0.225 0.25,0.325 0.425,0.475 0.075,0.3375 -0.025,0.3375 0.1625,0.3625 0.3,0.15 0.2875,-0.1375 0.3,0.1375 0.05,0.2125 -0.2875,0.1625 -0.2,-0.075 -0.05,0.9625 -0.3875,-0.0875 -0.5,-0.2875 -0.7375,0.1875 -0.2875,0.2 -0.95,-0.05 -0.5,-0.1125 -0.2375,0.05 -0.225,-0.325 -0.125,-0.1375 0.125,-0.1375 -0.1625,-0.0875 -0.1875,0.175 -0.3875,-0.2375 -0.0875,-0.325 -0.4,-0.175 -0.1,-0.2625 -0.375,-0.3 0.4875,-0.15 0.325,-0.5375 0.2375,-0.525 0.3625,-0.1625 0.25,-0.175 0.4,0.0875 h 0.4 l 0.3125,0.2 0.2,-0.125 0.45,-0.075 0.125,-0.1875 z"
       id="RO"
       name="Romania"
       style="stroke-width:0.06126" /><path
       d="m 29.182489,41.684367 -0.1375,0.175 0.0875,0.3 0.35,0.3375 -0.225,0.25 -0.075,0.25 0.075,0.1 -0.0875,0.1 -0.3,0.025 -0.2125,0.0375 -0.0375,-0.0625 0.075,-0.0875 0.05,-0.2 -0.0875,0.0125 -0.1375,-0.15 -0.1125,-0.0375 -0.1,-0.125 -0.125,-0.05 -0.1,-0.1125 -0.1125,0.05 -0.0625,0.2625 -0.15,0.05 0.05,-0.0625 -0.2625,-0.1625 -0.2125,-0.0875 -0.1125,-0.1125 -0.175,-0.1375 0.1375,-0.0375 0.0625,-0.3625 -0.3375,-0.3125 0.1375,-0.35 -0.2375,0.0125 0.2125,-0.3 -0.2125,-0.225 -0.1875,-0.3125 0.4625,-0.2 0.4,0.0375 0.375,0.3 0.1,0.2625 0.4,0.175 0.0875,0.325 0.3875,0.2375 0.1875,-0.175 0.1625,0.0875 -0.125,0.1375 z"
       id="RS"
       name="Serbia"
       style="stroke-width:0.06126" /><path
       d="m 28.694989,37.871867 -0.15,0.2125 -0.0875,0.3125 -0.125,0.075 -0.6875,-0.2375 -0.2,0.05 -0.125,0.1875 -0.2875,0.1 -0.075,-0.05 -0.2875,0.1125 -0.2375,0.025 -0.0375,0.1625 -0.5125,0.0875 -0.2375,-0.075 -0.3375,-0.2125 -0.0875,-0.2625 0.0375,-0.1 0.075,-0.175 0.275,0.0125 0.2,-0.075 0.0125,-0.075 0.1125,-0.0375 0.025,-0.175 0.1375,-0.0375 0.0875,-0.1375 h 0.1875 l 0.0375,0.05 0.2375,-0.1125 0.3375,0.275 0.35,-0.1625 0.3,0.075 0.4375,-0.1125 z"
       id="SK"
       name="Slovakia"
       style="stroke-width:0.06126" /><path
       d="m 25.157489,39.896867 -0.4875,0.2125 -0.0375,0.3125 -0.2125,0.0875 0.0125,0.2125 -0.25,-0.0125 -0.225,-0.125 -0.1,0.125 -0.45,-0.025 0.1375,-0.0625 -0.175,-0.3375 0.05,-0.3875 0.525,0.0625 0.3,-0.1875 0.55,-0.0125 0.1125,-0.1375 0.1,0.0125 z"
       id="SI"
       name="Slovenia"
       style="stroke-width:0.06126" /><path
       d="m 27.457489,25.284367 -0.875,0.2 -0.4375,0.4875 0.1625,0.4375 -0.775,0.5625 -0.975,0.625 -0.2625,1.0125 0.4625,0.5125 0.6,0.4125 -0.4125,0.825 -0.575,0.175 -0.075,1.25 -0.2625,0.7125 -0.7125,-0.075 -0.275,0.6 -0.6875,0.0375 -0.2375,-0.7125 -0.5625,-0.8625 -0.525,-1.05 0.225,-0.425 0.425,-0.5 0.1,-0.8625 -0.3875,-0.3625 -0.125,-0.9625 0.3,-0.675 0.5375,0.0125 0.1625,-0.275 -0.225,-0.25 0.7125,-0.9875 0.425,-0.7625 0.2875,-0.4875 h 0.5 l 0.075,-0.3875 1,0.1125 -0.0125,-0.45 0.325,-0.025 0.75,0.3375 0.9,0.4625 0.225,1.0625 z"
       id="SE"
       name="Sweden"
       style="stroke-width:0.06126" /><path
       d="m 22.457489,50.546867 -0.0125,0.6125 -0.325,0.225 -0.2,0.2625 -0.45,0.3125 0.075,0.325 -0.05,0.35 -0.325,0.175 -0.325,-1.4375 -0.425,-0.325 -0.0125,-0.1875 -0.5625,-0.4875 -0.075,-0.6 0.4,-0.45 0.1375,-0.6625 -0.125,-0.7625 0.125,-0.4125 0.7125,-0.3125 0.4625,0.0875 v 0.4125 l 0.55,-0.3 0.05,0.15 -0.3125,0.4 0.0125,0.3625 0.2375,0.2 -0.0625,0.7 -0.4375,0.4 0.15,0.4375 0.35,0.0125 0.175,0.3875 z"
       id="TN"
       name="Tunisia"
       style="stroke-width:0.06126" /><path
       class="Turkey"
       d="m 31.669989,44.396867 0.15,-0.0875 0.1375,-0.5 -0.3375,-0.2125 0.625,-0.25 0.575,0.1 0.1125,0.3125 0.6,0.25 -0.0875,0.2 -0.775,0.0375 -0.25,0.25 -0.4875,0.425 -0.25,-0.3625 z"
       id="path1480"
       style="stroke-width:0.06126" /><path
       d="m 36.082489,36.234367 0.2875,0.3375 0.0125,0.15 0.8375,0.275 0.45,-0.125 0.45,0.3625 0.3625,-0.0125 0.9625,0.25 0.05,0.2375 -0.1625,0.4 0.225,0.4375 -0.0375,0.2625 -0.6,0.05 -0.275,0.225 0.05,0.3375 -0.4875,0.0625 -0.375,0.2625 -0.575,0.0375 -0.5,0.3 0.125,0.4875 0.35,0.1875 0.6375,-0.05 -0.075,0.2875 -0.675,0.1375 -0.7875,0.45 -0.3875,-0.1625 0.0875,-0.3625 -0.7375,-0.2375 0.0875,-0.15 0.575,-0.2625 -0.2125,-0.175 -1.0125,-0.2 -0.1,-0.3 -0.5625,0.1 -0.1625,0.4375 -0.4125,0.575 -0.3,-0.1375 -0.2875,0.1375 -0.3,-0.15 0.15,-0.0875 0.075,-0.2625 0.1375,-0.2625 -0.075,-0.1375 0.125,-0.0625 0.075,0.1125 0.375,0.025 0.1625,-0.0625 -0.125,-0.075 0.025,-0.125 -0.25,-0.2 -0.1375,-0.325 -0.25,-0.125 0.0125,-0.2625 -0.325,-0.2125 -0.25,-0.0375 -0.5,-0.2375 -0.4,0.075 -0.1375,0.1125 h -0.2625 l -0.125,0.1875 -0.45,0.075 -0.2,0.125 -0.3125,-0.2 h -0.4 l -0.4,-0.0875 -0.25,0.175 -0.0625,-0.2125 -0.375,-0.2125 0.0875,-0.3125 0.15,-0.2125 0.1375,0.05 -0.2,-0.35 0.475,-0.65 0.2875,-0.0875 0.0375,-0.2125 -0.4,-0.675 0.2875,-0.0375 0.3,-0.2 0.475,-0.025 0.6125,0.0625 0.7125,0.1875 0.4875,0.0125 0.2375,0.1125 0.2125,-0.1375 0.1875,0.1875 0.5375,-0.0375 0.2625,0.075 -0.0375,-0.3875 0.1625,-0.175 0.5125,-0.0375 0.225,0.025 0.125,-0.175 0.1875,0.0375 0.6125,-0.075 0.475,0.4375 -0.1125,0.1625 0.1,0.2375 z"
       id="UA"
       name="Ukraine"
       style="stroke-width:0.06126" /><path
       d="m 28.657489,43.259367 -0.15,0.0375 -0.3625,0.125 -0.0125,0.1625 -0.0875,-0.0125 -0.075,-0.2875 -0.1625,-0.0875 -0.15,-0.2125 0.1,-0.175 0.15,-0.05 0.0625,-0.2625 0.1125,-0.05 0.1,0.1125 0.125,0.05 0.1,0.125 0.1125,0.0375 0.1375,0.15 0.0875,-0.0125 -0.05,0.2 -0.075,0.0875 z"
       id="XK"
       name="Kosovo"
       style="stroke-width:0.06126" /><path
       d="m 18.494989,36.546867 -0.35,-0.1875 -0.3875,-0.3375 -0.5625,0.1625 -0.45,-0.0625 0.3125,-0.2125 0.5,-1.125 0.8125,-0.325 0.5,0.025 0.1125,0.2625 -0.1125,0.7 -0.15,0.2875 h -0.3625 z"
       id="NL"
       name="Netherlands"
       style="stroke-width:0.06126" /><path
       d="m 9.7949894,47.371867 -0.275,0.2 -0.35,-0.1125 -0.3375,0.0875 0.1125,-0.625 -0.0375,-0.4875 -0.3,-0.075 -0.1375,-0.3 0.0625,-0.525 0.275,-0.2875 0.0625,-0.325 0.15,-0.475 v -0.3375 l -0.1125,-0.2875 -0.025,-0.275 0.2375,-0.2 0.275,-0.1125 0.15,0.3875 h 0.375 l 0.1124996,-0.1 0.3875,0.025 0.1625,0.4 -0.3,0.2125 -0.0375,0.625 -0.1,0.1125 -0.0375,0.3875 -0.2874996,0.0625 0.2499996,0.475 -0.1999996,0.525 0.2249996,0.2375 -0.1,0.2125 -0.25,0.3 z"
       id="PT"
       name="Portugal"
       style="stroke-width:0.06126" /><path
       class="Russian Federation"
       d="m 28.257489,33.834367 -1.1,0.0125 -0.7375,-0.0875 0.0875,-0.325 0.7875,-0.25 0.6375,0.1375 0.275,0.1125 -0.025,0.2125 z"
       id="path1508"
       style="stroke-width:0.06126" /><path
       class="Russian Federation"
       d="m 43.782489,22.071867 -0.275,0.05 -1.6875,-0.0875 -0.2875,-0.2875 -0.9875,-0.175 -0.25,-0.3625 0.4375,-0.1375 -0.2,-0.35 0.675,-0.55 -0.5,-0.075 0.8375,-0.5625 -0.3125,-0.2875 0.85,-0.325 1.2875,-0.4 1.4625,-0.1125 0.625,-0.225 0.8375,-0.075 0.525,0.2375 -0.1625,0.1875 -1.425,0.3125 -1.2375,0.2875 -1.0875,0.6 -0.35,0.625 -0.4125,0.625 0.3875,0.5375 z"
       id="path1516"
       style="stroke-width:0.06126" /><path
       id="path1518"
       style="stroke-width:0.06126"
       class="Russian Federation"
       d="m 31.107422,22.609375 -0.462402,0.237549 -0.800049,0.262451 -0.399903,0.0625 0.0498,0.475098 0.912598,0.462402 -0.362549,0.524902 0.8125,0.787598 -0.212402,0.600098 0.612548,0.524902 -0.112548,0.475098 0.925048,0.487304 -0.112548,0.362549 -0.425049,0.425049 -1,0.925049 0.675049,0.349853 -0.5625,0.412598 0.112548,0.125 -0.325195,0.425049 0.300049,0.699951 -0.199951,0.237549 0.3125,0.162353 0.125,0.362549 0.262451,0.449951 0.662598,0.1875 0.112548,0.1875 0.299805,-0.0874 0.600098,0.175049 0.137451,0.362549 -0.0874,0.199951 0.474853,0.5 0.262695,0.137451 v 0.137451 l 0.424805,0.137451 0.212647,0.200196 -0.199952,0.162353 -0.487548,-0.0249 -0.100098,0.07495 0.1875,0.25 0.25,0.5 0.225098,0.0249 0.125,-0.174804 0.1875,0.03735 0.612548,-0.07495 0.474854,0.4375 -0.112549,0.162598 0.100098,0.237304 0.487549,0.0376 0.287353,0.337402 0.0127,0.150147 0.837403,0.274902 0.449951,-0.125 0.449951,0.362549 0.362549,-0.01245 0.962646,0.25 0.0498,0.237549 -0.162353,0.399902 0.224853,0.4375 -0.03735,0.262451 -0.600098,0.05005 -0.274902,0.225098 0.05005,0.337402 0.537354,-0.125 0.05005,0.175049 -0.862549,0.324951 0.412598,0.3125 -0.400147,0.649902 -0.449951,0.125 0.637451,0.462647 0.775147,0.300049 0.949951,0.674804 0.05005,-0.09985 0.574951,0.137451 0.962402,0.125 0.950195,0.387451 0.149903,0.150147 0.362549,-0.125 0.637451,0.162353 0.262451,0.324951 0.449951,0.1875 0.1875,0.02515 0.537598,0.474853 0.300049,0.0625 0.07495,-0.199951 0.3125,-0.324951 -0.912598,-0.9375 -0.0498,-0.524902 -0.75,-0.762696 0.449952,-0.8125 0.574951,-0.125 0.175049,-0.462402 -0.350098,-0.137451 -0.0249,-0.400147 -0.537598,-0.524902 -0.449951,0.0249 -0.662598,-0.524902 0.212647,-0.600098 -0.225098,-0.149902 0.275146,-0.862549 0.75,0.449951 -0.0752,-0.5625 1.012695,-0.837402 0.949952,-0.0249 1.5,0.537353 0.824951,0.3125 0.550049,-0.324951 0.814453,-0.0105 V 23.772705 l -2.139405,-0.713379 -0.825195,-0.212402 -1.625,-0.199951 -0.149902,0.224853 0.75,0.387451 -0.350098,0.450196 -0.799805,-0.412598 -0.625,0.287598 -0.962646,0.01245 -0.262451,0.237549 -0.675049,-0.0752 0.3125,-0.412353 -0.399902,-0.02515 -1.550049,0.575196 -0.962403,0.337402 0.0498,0.4375 -0.75,0.149902 -0.512451,-0.237304 -0.149902,-0.387696 0.637451,-0.0874 -0.449951,-0.375 -1.537598,-0.225098 0.537598,0.425049 -0.100098,0.412598 0.587646,0.412353 -0.137695,0.475098 -0.574951,-0.237549 -0.512451,-0.03735 -1.012451,0.674804 0.537353,0.525147 -0.399902,0.175049 -1.449951,-0.450196 -0.262452,0.275147 0.424805,0.300049 0.02515,0.349853 -0.475098,-0.1875 -0.762451,-0.212402 -0.237549,-0.725098 -0.125,-0.324951 -1.012451,-0.512451 0.362549,-0.08765 2.524902,0.525147 0.8125,-0.1875 0.462646,-0.362549 -0.1875,-0.462402 -0.512695,-0.325196 -2.212402,-0.774902 -1.462403,-0.162598 z"
       sodipodi:nodetypes="ccccccccccccccccccccccccccccccccccccccccccccccccccccccccccccccccccccccccccccccccccccccccccccccccccccccccccccccccccccccccccccccccccccccccccccccccccccccccccccc" /><path
       class="Russian Federation"
       d="m 37.032489,16.046867 -0.5375,0.0625 -0.3625,0.05 v 0.0875 l -0.45,0.0875 -0.5625,-0.125 0.1375,-0.175 -0.975,-0.0125 0.7875,-0.1 h 0.65 l 0.1875,0.1375 0.1625,-0.125 0.35,-0.0875 0.725,0.1125 z"
       id="path1522"
       style="stroke-width:0.06126" /><path
       d="m 13.507489,42.334367 0.25,0.3 1.1875,0.3625 0.2375,-0.175 0.725,0.3625 0.7375,-0.1 0.05,0.4625 -0.6125,0.525 -0.825,0.175 -0.0625,0.2625 -0.4,0.4375 -0.25,0.65 0.25,0.4625 -0.375,0.35 -0.15,0.525 -0.5,0.1625 -0.4625,0.6125 -0.85,0.0125 -0.625,-0.0125 -0.425,0.275 -0.2625,0.3 -0.325,-0.0625 -0.2375,-0.275 -0.175,-0.45 -0.6124996,-0.125 -0.05,-0.275 0.25,-0.3 0.1,-0.2125 -0.2249964,-0.2375 0.1999964,-0.525 -0.2499964,-0.475 0.2874964,-0.0625 0.0375,-0.3875 0.1,-0.1125 0.0375,-0.625 0.3,-0.2125 -0.1625,-0.4 -0.3875,-0.025 -0.1124964,0.1 h -0.375 l -0.15,-0.3875 -0.275,0.1125 -0.2375,0.2 0.0625,-0.5625 -0.25,-0.3375 0.925,-0.575 0.7749964,0.1375 h 0.8625 l 0.675,0.1375 0.5375,-0.05 z"
       id="ES"
       name="Spain"
       style="stroke-width:0.06126" /><path
       class="France"
       d="m 20.894989,43.334367 -0.1875,0.6125 -0.3,-0.1625 -0.1625,-0.525 0.1125,-0.3 0.4,-0.3 z"
       id="path1527"
       style="stroke-width:0.06126" /><path
       class="France"
       d="m 18.232489,37.534367 0.1375,0.0625 0.175,-0.0125 0.3,0.2 0.9,0.15 -0.3,0.525 -0.05,0.5625 -0.1625,0.1375 -0.2875,-0.075 0.025,0.2 -0.45,0.4375 v 0.3625 l 0.3,-0.125 0.225,0.3375 -0.0125,0.225 0.1875,0.3 -0.2125,0.2375 0.1875,0.6125 0.35,0.1 -0.0625,0.3375 -0.5625,0.45 -1.275,-0.2125 -0.925,0.2625 -0.075,0.475 -0.7375,0.1 -0.725,-0.3625 -0.2375,0.175 -1.1875,-0.3625 -0.25,-0.3 0.3375,-0.475 0.125,-1.575 -0.6375,-0.825 -0.4625,-0.4 -0.95,-0.3 -0.05,-0.575 0.8125,-0.1625 1.0375,0.2 -0.1875,-0.8875 0.5875,0.3375 1.425,-0.6 0.1875,-0.6375 0.525,-0.1625 0.1,0.275 0.275,0.0125 0.3,0.3125 0.4375,0.3625 0.3125,-0.0625 z"
       id="path1529"
       style="stroke-width:0.06126" /><path
       class="Faeroe Islands"
       d="m 10.882489,28.409367 0.05,0.025 h 0.0375 l 0.0125,0.025 v 0.05 l 0.025,0.0375 -0.0125,0.025 -0.075,-0.05 -0.025,-0.05 -0.025,-0.025 -0.025,-0.0375 z"
       id="path1660"
       style="stroke-width:0.06126" /><path
       class="Faeroe Islands"
       d="m 10.919989,28.209367 0.1,0.025 0.025,0.025 -0.0125,0.05 -0.0125,0.0125 -0.05,-0.0625 -0.0625,-0.0125 -0.025,-0.05 z"
       id="path1662"
       style="stroke-width:0.06126" /><path
       class="Faeroe Islands"
       d="m 10.759989,28.039367 0.01,0.02 h 0.0375 v 0.0375 h -0.05 l -0.025,0.025 -0.075,-0.025 -0.025,-0.0125 -0.025,-0.0375 0.0625,-0.0125 0.0125,-0.0125 0.06964,0.01161 -0.03214,-0.02411 0.025,-0.1 0.0625,0.0125 0.0375,0.0625 v 0.0125 l 0.075,0.025 0.0375,0.0625 0.0375,0.025 -0.0125,0.075 -0.0625,-0.05 -0.025,-0.025 -0.025,-0.0125 -0.0125,-0.025 -0.025,-0.025 h -0.0625 z"
       id="path1664"
       style="stroke-width:0.06126" /><path
       class="Faeroe Islands"
       d="m 11.219989,27.959367 -0.025,-0.025 0.0375,-0.025 z"
       id="path1666"
       style="stroke-width:0.06126" /><path
       class="Faeroe Islands"
       d="m 10.919989,28.021867 -0.05,-0.025 -0.0375,-0.0375 -0.0125,-0.0375 0.0125,-0.0125 0.05,-0.0125 h 0.0375 l 0.075,0.05 -0.0125,0.025 0.0125,0.025 0.075,0.025 v 0.025 l -0.05,0.0375 z"
       id="path1668"
       style="stroke-width:0.06126" /><path
       class="Faeroe Islands"
       d="m 11.194989,27.946867 -0.0375,0.05 -0.0375,-0.025 h -0.0375 l 0.025,-0.0375 -0.0125,-0.05 0.0125,-0.0125 0.025,0.05 z"
       id="path1670"
       style="stroke-width:0.06126" /><path
       class="Faeroe Islands"
       d="m 11.082489,27.946867 h -0.025 l -0.025,-0.05 0.0125,-0.0375 0.025,0.05 z"
       id="path1672"
       style="stroke-width:0.06126" /><path
       class="Malta"
       d="m 24.419989,48.371867 -0.025,0.0375 -0.0625,-0.025 -0.0625,-0.0375 v -0.0625 l -0.0125,-0.0125 h 0.075 l 0.05,0.0375 0.025,0.025 z"
       id="path1690"
       style="stroke-width:0.06126" /><path
       class="Malta"
       d="m 24.219989,48.234367 -0.0625,-0.0125 v -0.025 l 0.05,-0.0125 0.05,0.0375 z"
       id="path1692"
       style="stroke-width:0.06126" /></g><path
     class="Mauritius"
     d="m 58.869989,92.996867 -0.0375,-0.0375 0.05,-0.025 0.0375,-0.0125 0.025,0.0125 -0.0125,0.025 z"
     id="path1709"
     style="stroke-width:0.125" /></svg>
