<?xml version="1.0" encoding="UTF-8" standalone="no"?>
<!-- Uploaded to: SVG Repo, www.svgrepo.com, Generator: SVG Repo Mixer Tools -->

<svg
   xmlns:dc="http://purl.org/dc/elements/1.1/"
   xmlns:cc="http://creativecommons.org/ns#"
   xmlns:rdf="http://www.w3.org/1999/02/22-rdf-syntax-ns#"
   xmlns:svg="http://www.w3.org/2000/svg"
   xmlns="http://www.w3.org/2000/svg"
   xmlns:sodipodi="http://sodipodi.sourceforge.net/DTD/sodipodi-0.dtd"
   xmlns:inkscape="http://www.inkscape.org/namespaces/inkscape"
   height="800px"
   width="800px"
   version="1.1"
   id="_x32_"
   viewBox="0 0 512 512"
   xml:space="preserve"
   sodipodi:docname="north_america.svg"
   inkscape:version="0.92.3 (2405546, 2018-03-11)"><metadata
   id="metadata236"><rdf:RDF><cc:Work
       rdf:about=""><dc:format>image/svg+xml</dc:format><dc:type
         rdf:resource="http://purl.org/dc/dcmitype/StillImage" /><dc:title /></cc:Work></rdf:RDF></metadata><defs
   id="defs234">
	

		
		
		
		
		
		
		
		
		
		
		
		
		
		
		
		
		
		
		
		
	<clipPath
   clipPathUnits="userSpaceOnUse"
   id="clipPath5148"><path
     style="fill:#000000;fill-opacity:1;stroke:#000000;stroke-width:0.63999999px;stroke-linecap:butt;stroke-linejoin:miter;stroke-opacity:1"
     d="m 696.46426,-365.48356 c -3.30176,1.01388 -6.01946,3.32822 -9.20442,4.60218 -1.50138,0.60056 -3.15584,0.8109 -4.60218,1.53406 -1.64908,0.82454 -2.91737,2.31933 -4.60217,3.06813 -2.95533,1.31349 -6.24903,1.75464 -9.20435,3.06812 -6.25792,2.78129 -4.477,4.7319 -10.7385,9.20438 -1.31584,0.93989 -3.15584,0.81089 -4.60218,1.53406 -5.33376,2.6669 -9.8912,6.78242 -15.3406,9.20437 -1.92665,0.85629 -4.25047,0.59118 -6.13625,1.53406 -7.55437,3.77719 -4.59772,4.59885 -10.73843,9.20438 -2.38534,1.78901 -5.40645,2.66174 -7.67031,4.60218 -1.39985,1.19988 -1.88781,3.18582 -3.06813,4.60219 -13.15996,15.79195 3.68421,-7.4288 -7.67031,10.73844 -6.80166,10.88266 -2.03248,1.77357 -9.20437,10.73843 -0.71429,0.89287 -1.02271,2.04542 -1.53406,3.06813 -1.02271,2.04542 -1.93354,4.15071 -3.06813,6.13625 -0.91474,1.60079 -2.24359,2.95312 -3.06812,4.60218 -0.72317,1.44633 -0.96628,3.08811 -1.53406,4.60219 -0.9669,2.57839 -1.94973,5.15392 -3.06813,7.67031 -2.55695,5.75314 -4.31727,7.44014 -6.13625,13.80656 -0.28096,0.98336 0.45737,2.15339 0,3.06812 -0.64681,1.29364 -2.56028,1.71389 -3.06812,3.06813 -4.74325,3.58601 -0.53417,8.27292 -1.53406,12.2725 -0.27733,1.10928 -1.17248,1.98337 -1.53407,3.06812 -0.66672,2.00017 -0.86733,4.13607 -1.53406,6.13625 -0.36158,1.08475 -1.25674,1.95884 -1.53406,3.06812 -0.24804,0.99218 0,2.04542 0,3.06813 0,2.04541 0.2537,4.10663 0,6.13625 -0.26151,2.09208 -1.18745,4.05657 -1.53406,6.13625 -0.16813,1.00879 0.16813,2.05932 0,3.06812 -0.34662,2.07968 -1.2359,4.04907 -1.53406,6.13625 -0.21695,1.51864 0.2522,3.089 0,4.60219 -0.26584,1.59504 -1.30538,3.00139 -1.53407,4.60218 -0.28926,2.02486 0,4.09083 0,6.13625 0,1.53406 0.48512,3.14685 0,4.60219 -0.58303,1.7491 -2.48509,2.85308 -3.06812,4.60219 -0.48511,1.45533 0.48511,3.14684 0,4.60218 -0.58303,1.7491 -2.24359,2.95312 -3.06813,4.60219 -0.72316,1.44633 -0.9335,3.1008 -1.53406,4.60218 -0.42465,1.06164 -1.25674,1.95884 -1.53406,3.06813 -0.49608,1.98434 0.40114,4.13055 0,6.13625 -0.31713,1.58563 -1.21693,3.01654 -1.53406,4.60218 -0.20057,1.00285 0,2.04542 0,3.06813 0,2.55676 0,5.11354 0,7.67031 0,4.09083 0,8.18166 0,12.2725 0,1.53406 0,3.06812 0,4.60218 0,1.02271 -0.20057,2.06528 0,3.06813 0.31713,1.58564 1.26822,3.00714 1.53406,4.60218 0.2522,1.51319 -0.2522,3.089 0,4.60219 0.82724,4.963448 2.10775,4.839102 4.60219,9.204369 1.13459,1.985536 2.16729,4.034311 3.06812,6.13625 3.70869,8.653606 -0.82419,0.358925 3.06813,10.738438 1.11159,2.96425 4.04177,8.120339 6.13624,10.738432 0.90352,1.129395 2.22747,1.8912 3.06813,3.068128 17.60554,24.647753 -2.94157,-3.613683 6.13625,12.272494 1.26851,2.219899 3.33367,3.916351 4.60218,6.136249 0.80228,1.403987 0.63709,3.256725 1.53407,4.602186 1.20342,1.805127 3.34119,2.836799 4.60218,4.602187 3.65408,2.588455 2.44199,7.498135 4.60219,10.738436 8.41832,12.627482 1.31391,-4.093158 7.67031,10.738435 0.1543,0.360029 3.00189,9.1116452 3.06812,9.2043729 1.68133,2.3538502 4.45493,3.7823979 6.13625,6.1362484 0.93989,1.31584246 0.63709,3.256725 1.53406,4.6021865 1.20342,1.8051261 3.21332,2.9355369 4.60219,4.6021865 1.18032,1.4163797 1.88781,3.1858067 3.06812,4.6021867 1.38888,1.666649 3.52582,2.71854 4.60219,4.602186 1.04604,1.830575 0.48802,4.305674 1.53406,6.136249 1.07637,1.883646 3.06813,3.068125 4.60219,4.602187 1.53406,1.534062 3.21331,2.935536 4.60219,4.602186 1.18031,1.41638 1.76442,3.298484 3.06812,4.602187 1.80791,1.807909 4.32832,2.794276 6.13625,4.602186 1.30368,1.303702 1.76442,3.298484 3.0681,4.602187 1.80793,1.807909 4.32838,2.794276 6.13625,4.602186 1.30375,1.303703 1.76442,3.298485 3.06816,4.602186 0.80852,0.808523 2.15335,0.848009 3.0681,1.534062 1.15706,0.867798 1.9111,2.200329 3.06816,3.068125 4.47974,3.359846 2.11027,-0.765747 6.13626,4.602188 0.68601,0.91474 0.7255,2.259604 1.53401,3.068122 0.80851,0.808525 2.11674,0.899808 3.06816,1.534061 4.34381,2.895891 -2.90739,0.984736 6.13626,4.602189 0.9495,0.379827 2.21715,-0.567296 3.06809,0 0.95136,0.634259 0.72557,2.259603 1.53408,3.068121 1.30368,1.303706 3.1625,1.916371 4.60218,3.068128 1.12941,0.903514 1.72525,2.53097 3.0681,3.068122 1.42438,0.569741 3.17785,-0.569735 4.60224,0 7.23072,2.892294 -0.87719,3.199507 6.13619,4.602189 1.50432,0.300851 3.17785,-0.569735 4.60224,0 10.18777,4.075136 -3.21498,2.26439 6.13619,4.602188 6.20198,1.55049 -0.0719,-2.190873 6.13626,1.534061 1.58099,0.948583 3.02124,2.119539 4.60224,3.068122 0.98041,0.588288 2.11673,0.899808 3.06809,1.534061 4.38976,2.926496 -2.34957,0.287417 4.60218,3.068126 9.47821,3.79129 0.47501,-0.52952 7.67033,3.06812 1.02272,0.51136 2.15335,0.84802 3.0681,1.53406 1.15706,0.86781 1.72525,2.53098 3.06816,3.06813 1.42432,0.56974 3.09792,-0.30086 4.60218,0 3.97241,0.79449 2.0967,1.39783 4.60217,3.06812 5.21491,3.47661 0.82272,0.20569 6.13626,1.53407 1.10925,0.27732 2.04537,1.02271 3.06809,1.53406 1.53408,0.51136 3.01658,1.21694 4.60218,1.53406 1.00288,0.20057 2.04544,0 3.06816,0 4.096,0 2.04026,0 6.13626,0 1.02272,0 2.0759,-0.24804 3.06809,0 1.10931,0.27732 1.95885,1.25674 3.06816,1.53406 0.99213,0.24805 2.04538,0 3.0681,0 1.02272,0 2.04544,0 3.06816,0 3.06809,0 6.13619,0 9.20435,0 1.00774,0 5.77549,0.18037 6.13626,0 0.45734,-0.22868 -0.3616,-1.17248 0,-1.53406 0.36153,-0.36158 1.17248,0.36158 1.53401,0 0.3616,-0.36158 -0.36153,-1.17248 0,-1.53406 0.3616,-0.36158 1.07674,0.22869 1.53408,0 1.29363,-0.64681 1.77453,-2.4213 3.06816,-3.06813 0.45735,-0.22868 1.07667,0.22869 1.53402,0 0.64685,-0.3234 0.88729,-1.21065 1.53408,-1.53406 0.45734,-0.22868 1.17248,0.36158 1.53408,0 0.3616,-0.36158 -0.3616,-1.17248 0,-1.53406 0.3616,-0.36158 1.02272,0 1.53408,0 0,-0.51135 -0.3616,-1.17248 0,-1.53406 0.36153,-0.36158 1.02265,0 1.53401,0 1.02272,0 2.15341,0.45737 3.06816,0 0.45735,-0.22868 -0.3616,-1.17248 0,-1.53407 0.36154,-0.36158 1.07668,0.22869 1.53402,0 1.29363,-0.64681 1.77453,-2.4213 3.06816,-3.06812 1.63162,-0.8158 1.43654,0.8158 3.0681,0 0.64684,-0.32341 0.88723,-1.21065 1.53408,-1.53406 0.91475,-0.45737 2.1534,0.45737 3.06809,0 0.64685,-0.32341 0.8873,-1.21065 1.53408,-1.53406 0.91475,-0.45737 2.15341,0.45737 3.06816,0 0.64679,-0.32341 0.88723,-1.210655 1.53402,-1.534066 0.91475,-0.457364 2.34496,0.723166 3.06816,0 0.36153,-0.361581 -0.22867,-1.076692 0,-1.534061 3.19219,-6.384397 -0.10592,1.639968 3.06809,-1.534061 0.3616,-0.361581 -0.3616,-1.17248 0,-1.534061 0.3616,-0.361581 1.07674,0.228685 1.53408,0 0.64679,-0.323411 0.88724,-1.210656 1.53408,-1.534061 0.45735,-0.228684 1.17248,0.361581 1.53402,0 0.3616,-0.361587 -0.36154,-1.17248 0,-1.534067 0.3616,-0.361581 1.17248,0.361587 1.53408,0 0.3616,-0.361581 -0.3616,-1.17248 0,-1.534061 0.7232,-0.723161 2.34496,0.723162 3.06816,0 0.36154,-0.36158 -0.3616,-1.17248 0,-1.53406 0.36154,-0.361581 1.02266,0 1.53402,0 0,-0.511354 -0.36154,-1.17248 0,-1.534061 0.76704,-0.767034 3.8352,0.767027 4.60217,0 0.3616,-0.361581 -0.36153,-1.17248 0,-1.534061 0.3616,-0.361587 1.07674,0.228678 1.53408,0 0.64685,-0.323411 0.88723,-1.210656 1.53408,-1.534067 0.91475,-0.45737 2.34496,0.723168 3.0681,0 0.3616,-0.361581 -0.36154,-1.17248 0,-1.534061 0.3616,-0.361581 1.17248,0.361581 1.53408,0 0.76704,-0.767034 -0.76704,-3.835155 0,-4.602189 0.3616,-0.361581 1.17248,0.361587 1.53408,0 0.36153,-0.361581 -0.3616,-1.17248 0,-1.534061 0.36153,-0.36158 1.17248,0.361581 1.53401,0 0.3616,-0.36158 -0.51129,-1.53406 0,-1.53406 0.51136,0 -0.51129,1.53406 0,1.53406 3.19226,0 0.61728,-2.151321 1.53408,-3.068121 0.3616,-0.361581 1.17248,0.361581 1.53408,0 0.72314,-0.723168 -0.7232,-2.34496 0,-3.068128 0.3616,-0.361581 1.17248,0.361587 1.53408,0 0.36154,-0.361581 -0.22873,-1.076691 0,-1.534061 0.3234,-0.646816 1.21063,-0.887245 1.53402,-1.534061 0.45741,-0.914739 -0.72314,-2.34496 0,-3.068121 0.3616,-0.361586 1.17248,0.36158 1.53408,0 0.7232,-0.723167 -0.45734,-2.15339 0,-3.068128 0.32339,-0.646817 1.02272,-1.022708 1.53408,-1.534062 0.51136,-0.511354 0.88723,-1.210653 1.53408,-1.534063 0.45734,-0.228684 1.17248,0.361583 1.53402,0 0.3616,-0.361581 -0.36154,-1.17248 0,-1.534062 0.3616,-0.361581 1.02272,0 1.53408,0 0,-0.511353 -0.3616,-1.17248 0,-1.534062 0.3616,-0.361582 1.17248,0.361582 1.53408,0 0.36153,-0.361582 -0.22874,-1.076693 0,-1.534062 0.32339,-0.646817 1.21062,-0.887245 1.53401,-1.534062 0.22874,-0.457369 -0.22867,-1.076693 0,-1.534062 0.32346,-0.646817 1.21069,-0.887245 1.53408,-1.534062 0.22867,-0.457369 -0.3616,-1.172481 0,-1.534062 0.3616,-0.361582 1.17248,0.361581 1.53408,0 0.3616,-0.361582 -0.3616,-1.172481 0,-1.534063 0.3616,-0.361581 1.02272,0 1.53408,0 0,-0.511353 -0.3616,-1.17248 0,-1.534062 0.36154,-0.361582 1.17248,0.361582 1.53402,0 0,-4.090832 -0.51136,0.511354 1.53408,-1.534062 0.72313,-0.723164 -0.72314,-2.344961 0,-3.068124 0.3616,-0.361582 1.02272,0 1.53408,0 0,-0.511354 -0.3616,-1.172481 0,-1.534062 0.36153,-0.361582 1.17248,0.361581 1.53401,0 0.80858,-0.808522 0.89984,-2.11674 1.53408,-3.068125 0.80231,-1.203417 2.42132,-1.77449 3.06816,-3.068124 0.22868,-0.457369 -0.3616,-1.17248 0,-1.534062 0.36154,-0.361582 1.17248,0.361582 1.53402,0 0.3616,-0.361582 -0.22867,-1.076693 0,-1.534062 0.32346,-0.646818 1.02272,-1.022709 1.53408,-1.534062 1.19821,-1.198235 3.71968,-3.278445 4.60218,-4.602187 0.63424,-0.951385 0.89984,-2.11674 1.53408,-3.068124 0.40115,-0.601709 1.13292,-0.932354 1.53408,-1.534063 0.63424,-0.951385 0.89977,-2.116739 1.53401,-3.068124 0.40115,-0.601709 1.02272,-1.022708 1.53408,-1.534062 1.02272,-1.022708 1.86471,-2.265846 3.06816,-3.068125 1.75322,-1.1688086 1.88525,2.014528 3.0681,-1.5340617 0.32339,-0.9702259 -0.45735,-2.1533862 0,-3.0681243 0.64685,-1.2936348 2.04544,-2.0454162 3.06809,-3.0681244 0.51136,-0.511354 0.93236,-1.132923 1.53408,-1.5340621 0.95143,-0.63425667 2.11674,-0.89980555 3.06816,-1.5340622 0.60167,-0.40113911 1.02266,-1.0227081 1.53402,-1.5340622 1.02272,-1.0227081 2.20032,-1.9110622 3.06816,-3.0681243 0.68602,-0.914738 0.61933,-2.3820709 1.53402,-3.0681246 1.29369,-0.970226 3.21561,-0.7020999 4.60224,-1.5340621 6.89651,-4.1379281 0.0339,-1.5679281 4.60217,-6.1362481 0.0983,-0.0983 5.8505,-2.877623 6.13626,-3.068125 2.04109,-1.360757 3.1639,-4.697997 4.60217,-6.136248 0.3616,-0.361582 1.17248,0.361582 1.53408,0 0.80852,-0.808522 0.848,-2.153387 1.53402,-3.068125 1.73562,-2.314124 4.32922,-3.877464 6.13626,-6.136248 1.15174,-1.439698 1.91635,-3.162489 3.06816,-4.602187 1.80697,-2.258784 4.09081,-4.090832 6.13625,-6.136249 2.04538,-2.045416 3.91405,-4.284416 6.13619,-6.136248 0.8784,-0.732001 2.08768,-0.945777 3.06816,-1.534063 1.581,-0.948582 2.95309,-2.24359 4.60218,-3.068124 1.44634,-0.723163 3.15584,-0.810898 4.60218,-1.534062 0.64684,-0.323409 1.02272,-1.022708 1.53408,-1.534062 1.02272,-1.022709 2.04544,-2.045416 3.06808,-3.068124 1.0227,-1.022709 1.8647,-2.265843 3.0682,-3.068122 1.9028,-1.268518 4.2334,-1.799616 6.1362,-3.068128 1.8051,-1.203417 2.7419,-3.48599 4.6022,-4.602189 1.961,-1.176569 4.0343,-2.167289 6.1363,-3.068121 2.4062,-1.031271 5.4755,-1.422099 7.6702,-3.068122 1.1571,-0.867801 1.8647,-2.265849 3.0682,-3.068128 1.9028,-1.268512 4.1507,-1.933529 6.1362,-3.068121 3.2016,-1.829479 6.1363,-4.090836 9.2044,-6.13625 1.5341,-1.022707 2.9531,-2.24359 4.6022,-3.068128 1.4463,-0.723162 3.0071,-1.268218 4.6022,-1.534061 1.5132,-0.252198 3.23,0.686055 4.6021,0 1.9405,-0.970227 2.7186,-3.525817 4.6023,-4.602179 3.6611,-2.09209 8.5009,-1.18235 12.2724,-3.06813 1.2936,-0.64682 1.9111,-2.20033 3.0682,-3.06812 0.9147,-0.68606 2.1534,-0.84802 3.0681,-1.53406 1.157,-0.86781 1.8647,-2.26585 3.0681,-3.06813 1.9028,-1.26851 4.2335,-1.79961 6.1363,-3.06812 1.2034,-0.80228 1.911,-2.20034 3.0681,-3.06813 0.9147,-0.68606 2.1753,-0.81977 3.0681,-1.53406 1.6941,-1.35527 2.8666,-3.30049 4.6022,-4.60219 0.4091,-0.30681 1.1725,0.36159 1.534,0 1.3038,-1.3037 1.7645,-3.29848 3.0682,-4.60218 7.9734,-7.9734 1.5979,1.45423 7.6703,-6.13625 1.1518,-1.4397 2.0454,-3.06813 3.0681,-4.60219 1.0227,-1.53406 2.1196,-3.02122 3.0681,-4.60218 0.5883,-0.98048 0.848,-2.15339 1.5341,-3.06813 0.8678,-1.15706 2.2659,-1.86471 3.0682,-3.06812 0.2836,-0.42548 -0.2288,-1.0767 0,-1.53406 0.8248,-1.64972 4.0281,-5.3742 4.6021,-7.67032 0.248,-0.99217 0,-2.04542 0,-3.06812 0,-1.02271 0,-2.04542 0,-3.06812 0,-6.13625 0,-12.2725 0,-18.40875 0,-5.6249 0,-11.2498 0,-16.87468 0,-2.55678 0,-5.11355 0,-7.67032 0,-2.04542 0.1852,-4.09923 0,-6.13624 -0.3273,-3.60098 -1.2067,-7.13747 -1.534,-10.73844 -0.1853,-2.03702 0.2537,-4.10663 0,-6.13625 -0.2615,-2.09209 -0.9794,-4.10217 -1.5341,-6.13625 -0.9795,-3.59154 -2.1653,-7.12687 -3.0681,-10.73843 -0.6324,-2.52956 -0.9685,-5.125 -1.5341,-7.67031 -0.4573,-2.05817 -1.2359,-4.04908 -1.5341,-6.13625 -0.4474,-3.13205 0.5966,-7.75554 0,-10.73844 -0.6342,-3.17128 -2.1388,-6.10668 -3.0681,-9.20437 -0.6058,-2.01945 -0.9549,-4.109 -1.5341,-6.13625 -0.4442,-1.55483 -1.1418,-3.03342 -1.534,-4.60219 -0.8752,-3.5009 -1.3148,-8.76584 -3.0681,-12.2725 -7.4142,-14.82832 1.8263,8.96104 -6.1363,-12.27249 -0.5677,-1.51408 -0.9335,-3.1008 -1.5341,-4.60219 -0.8492,-2.12328 -2.3449,-3.96676 -3.0681,-6.13625 -0.6667,-2.00017 -0.488,-4.30567 -1.534,-6.13625 -1.0764,-1.88364 -3.247,-2.90809 -4.6022,-4.60218 -1.7327,-2.16587 -2.8597,-7.1134 -4.6022,-9.20438 -1.8518,-2.2222 -4.4549,-3.7824 -6.1362,-6.13625 -0.94,-1.31584 -0.5639,-3.30855 -1.5341,-4.60218 -0.686,-0.91474 -2.1534,-0.84801 -3.0681,-1.53407 -1.1571,-0.86779 -1.9111,-2.20032 -3.0682,-3.06812 -0.9147,-0.68605 -2.0876,-0.94578 -3.0681,-1.53406 -1.581,-0.94858 -3.0681,-2.04541 -4.6022,-3.06813 -2.0454,-1.0227 -4.1372,-1.95753 -6.1362,-3.06812 -2.6065,-1.44803 -5.1418,-3.0219 -7.6703,-4.60219 -1.5635,-0.97716 -2.9531,-2.24359 -4.6022,-3.06812 -1.4464,-0.72316 -3.1559,-0.8109 -4.6022,-1.53406 -1.6491,-0.82454 -2.8135,-2.62096 -4.6022,-3.06813 -2.4804,-0.62011 -5.1333,0.31714 -7.6703,0 -1.6046,-0.20057 -3.0474,-1.08982 -4.6022,-1.53406 -2.0273,-0.57921 -4.2505,-0.59117 -6.1362,-1.53406 -1.2937,-0.64681 -1.696,-2.61076 -3.0681,-3.06813 -3.8809,-1.29363 -8.3038,0.99218 -12.2726,0 -2.2185,-0.55463 -3.9667,-2.34496 -6.1362,-3.06812 -2.47361,-0.82453 -5.14074,-0.90167 -7.67034,-1.53406 -5.82804,-1.45702 -4.04295,-2.11163 -10.73844,-3.06813 -1.51859,-0.21694 -3.06809,0 -4.60217,0 -5.6249,0 -11.24979,0 -16.87469,0 -4.60218,0 -9.20435,0 -13.80653,0 -1.02272,0 -2.06528,-0.20057 -3.06816,0 -3.17126,0.63426 -6.01427,2.53645 -9.20435,3.06813 -3.02637,0.5044 -6.17798,-0.5044 -9.20435,0 -5.78387,0.96398 -3.90368,1.95185 -9.20442,4.60218 -1.44627,0.72317 -3.08806,0.96629 -4.60217,1.53407 -2.57837,0.96689 -5.02253,2.31162 -7.67028,3.06812 -0.98336,0.28096 -2.07596,-0.24804 -3.06816,0 -1.10924,0.27732 -1.95884,1.25675 -3.06809,1.53406 -0.99219,0.24805 -2.06528,-0.20057 -3.06816,0 -1.5856,0.31714 -3.00711,1.26823 -4.60218,1.53406 -1.51315,0.2522 -3.09792,-0.30085 -4.60217,0 -1.12122,0.22425 -1.95885,1.25675 -3.0681,1.53407 -0.99219,0.24804 -2.06528,-0.20057 -3.06816,0 -3.08064,-0.35204 -4.99878,2.40024 -7.67034,3.06812 -1.98432,0.49609 -4.11865,-0.33626 -6.13619,0 -2.07968,0.34661 -4.04909,1.2359 -6.13625,1.53406 -1.51866,0.21696 -3.06816,0 -4.60218,0 -4.09088,0 -8.1817,0 -12.27251,0 -1.53408,0 -3.06816,0 -4.60218,0 -1.02272,0 -2.07597,-0.24803 -3.06816,0 -1.10925,0.27733 -1.94688,1.30982 -3.06809,1.53407 -2.50714,0.50142 -5.11354,0 -7.67034,0 -5.6249,0 -11.24979,0 -16.87469,0 -16.87469,0 -33.74937,0 -50.62406,0 -6.13626,0 -12.27245,0 -18.40871,0 -1.44025,0 -6.79129,-0.293 -7.67033,0 -0.68602,0.22868 -0.88723,1.21065 -1.53408,1.53406 -0.45735,0.22869 -1.02266,0 -1.53402,0 -0.51136,0 -1.02272,0 -1.53408,0 -2.5568,0 -5.11353,0 -7.67033,0 -0.69088,0 -4.1353,-0.23343 -4.60218,0 -0.64678,0.32341 -0.848,1.30538 -1.53408,1.53406 -0.87264,0.2909 -6.22547,0 -7.67027,0 -0.51136,0 -1.02272,0 -1.53408,0 -0.51136,0 -1.09555,-0.26309 -1.53408,0 -2.19239,1.31545 -4.09082,3.06812 -6.13619,4.60219 z"
     id="path5150"
     inkscape:connector-curvature="0" /></clipPath></defs><sodipodi:namedview
   pagecolor="#ffffff"
   bordercolor="#666666"
   borderopacity="1"
   objecttolerance="10"
   gridtolerance="10"
   guidetolerance="10"
   inkscape:pageopacity="0"
   inkscape:pageshadow="2"
   inkscape:window-width="1680"
   inkscape:window-height="987"
   id="namedview232"
   showgrid="false"
   inkscape:zoom="0.1475"
   inkscape:cx="508.45983"
   inkscape:cy="429.61157"
   inkscape:window-x="-8"
   inkscape:window-y="-8"
   inkscape:window-maximized="1"
   inkscape:current-layer="_x32_" />
<style
   type="text/css"
   id="style223">
	.st0{fill:#000000;}
</style>

<path
   inkscape:connector-curvature="0"
   d="m 1074.3514,131.63967 -33.0661,-0.33462 -26.2218,-9.94721 -1.2472,-18.70807 -8.7608,-15.331486 -23.69689,-0.33462 -13.7497,-21.50667 -12.16782,-5.93183 -0.6388,6.54022 -22.1759,1.30805 -8.1221,-11.28568 -23.0885,-4.68462 -18.98181,21.99338 -29.96333,-5.04965 -2.19021,-33.76579 -21.84129,-3.74161 8.76085,-16.54827 -2.52483,-9.5213401 -28.71612,19.1947801 -18.06926,-2.19022 -6.47938,-14.1147001 3.95455,-14.571 9.97764,-18.3734499 22.9364,-11.62029 h 44.32138 l -0.12167,13.50631 15.90946,7.42239 -1.27763,-23.0885 11.46825,-11.52903 23.1797,-15.20982 1.5818,-10.70771 23.0885,-24.031504 24.54875,-13.59757 -2.1598,-1.79476 16.63947,-15.6661 6.0839,1.61224 2.7986,3.49826 6.3273,-6.99652 1.5514,-0.66923 -6.9357,-0.97343 -6.9965,-2.34231 v -6.78357 l 3.7416,-3.04197 h 8.2133 l 3.7721,1.64266 3.2549,6.54022 3.98489,-0.60839 v -0.57797 l 1.156,0.39545 11.4986,-1.79476 1.6427,-5.62763 6.5402,1.64266 v 6.08393 l -6.084,4.19791 v 0 l 0.8822,6.69231 20.8679,6.41854 c 0,0 0.03,0.0913 0.061,0.24336 l 4.7759,-0.42587 0.3346,-9.03463 -16.6091,-7.45281 -0.943,-4.35001 13.7192,-4.68462 0.6084,-13.11085 -14.3276,-8.73043 -0.943,-22.14549 -19.6511,9.67344 h -7.17899 l 1.886,-16.85247 -26.7693,-6.32728 -11.07267,8.36539 v 25.52207 l -19.89445,6.32728 -7.97,16.60911 -8.6392,1.3993 v -21.29373 l -18.708,-2.58567 -9.3693,-6.08392 -3.772,-13.81051 33.492,-19.59024 16.3962,-4.98882 1.6426,11.01191 9.1259,-0.48672 0.6997,-5.53637 9.55175,-1.36888 0.1521,-1.91644 -4.1066,-1.7035 -0.943,-5.84056 11.74187,-0.97343 7.0878,-7.39197 0.3955,-0.54755 0.091,0.0304 2.1598,-2.22064 24.67029,-3.13322 10.8903,9.27799 -28.59449,15.20981 36.38189,8.57833 4.715,-12.16785 h 15.9095 l 5.6276,-10.61644 -11.2552,-2.79861 v -13.41505 l -35.2564,-15.60527 -24.33569,2.79861 -13.7496,7.17903 0.943,17.49128 -14.35812,-2.19021 -2.2206,-9.67344 13.74965,-12.50247 -24.97455,-1.27762 -7.179,2.19021 -3.1332,8.42624 9.3692,1.58182 -1.886,9.36924 -15.9095,0.94301 -2.4944,6.23602 -23.0885,0.60839 c 0,0 -0.6388,-13.11085 -1.5514,-13.11085 -0.9126,0 18.0997,-0.3042 18.0997,-0.3042 l 13.7497,-13.41505 -7.5137,-3.74162 -9.9776,9.67344 -16.5787,-0.94301 -9.97763,-13.74966 h -21.2329 l -22.1759,16.54827 h 20.28988 l 1.8556,5.93183 -5.29301,4.98881 22.4801,0.63882 3.43742,8.12204 -25.30913,-0.94301 -1.2472,-6.23603 -15.90947,-3.43741 -8.42623,-4.68462 -37.44656,0.30419 -11.55945,11.22484 -7.78743,-0.63881 -8.73043,-4.98882 -25.91752,-7.78742 h -47.45461 l -27.40808,18.73849 -18.40387,2.82902 -8.42623,6.54022 13.11086,1.94686 v 5.23217 h -28.07732 l -10.95106,7.78742 14.02345,11.86366 38.38956,0.3042 5.29301,-5.62763 h 32.15354 l 11.52904,10.31225 -0.60839,15.90946 9.67344,9.03463 -8.12204,5.74931 1.88601,21.08079 -29.02031,35.256344 v 33.06615 l 15.60526,7.51365 v 29.71997 l 14.96646,25.5220599 12.16784,1.88602 1.55141,-8.76085 -14.35807,-22.1758999 -2.7986,-21.5371 h 8.42623 l 3.5591,22.17591 20.7766,30.2675199 -5.38427,9.7951201 13.20211,20.16821 32.76194,8.12204 v -5.29302 l 13.11085,1.88602 -1.2472,9.36924 10.28183,1.88602 15.90946,4.35 22.4801,25.61333 28.68571,2.15979 2.7986,23.423106 -19.65107,13.74967 -0.94301,20.95912 -2.79861,12.77624 28.41193,35.59096 2.19021,12.16784 c 0,0 10.31225,2.79861 11.55945,2.79861 1.2472,0 23.0885,16.51785 23.0885,16.51785 v 64.27667 l 7.7874,2.19021 -5.3234,29.65913 13.1108,17.46086 -2.4335,29.41578 17.3087,30.41962 22.23682,19.43814 22.3584,0.42587 2.1902,-7.17903 -16.4266,-13.84093 0.943,-6.87483 2.9507,-8.39582 0.6389,-8.60875 -11.1032,-0.3042 -5.5972,-6.99651 9.2171,-8.88253 1.2472,-6.75315 -10.2818,-2.95071 0.6084,-6.2056 14.6622,-2.25105 22.32799,-10.73813 7.4833,-13.74967 23.4231,-29.93291 -5.3234,-23.45352 7.179,-12.44163 21.5371,0.63881 14.5101,-11.4682 4.6847,-45.17313 16.0616,-20.44199 2.7986,-13.14128 -14.6623,-4.6542 z m -169.61981,-230.702406 -5.3843,5.38427 h -11.9549 l 1.886,-8.182884 5.6276,-0.48671 1.1864,-2.79861 8.6392,-1.18636 z m 2.829,-14.753524 -5.6276,3.61993 -6.9965,1.27763 c 0,0 0,-11.22484 0,-12.41121 h 12.6545 z m 10.6164,-8.66959 5.7494,3.58951 -4.5934,3.80245 -4.5325,-3.80245 z m -7.5744,9.36924 h 0.943 l 14.2668,4.22833 v 7.27029 h -11.9549 l -3.2549,-4.71504 z m -9.3997,-20.13779 7.7266,7.02693 -7.7266,1.88602 z m -32.76194,1.18637 10.76855,-4.44127 h 14.75349 v 4.44127 h 3.2549 v 7.72658 h -22.44966 l -8.42623,-2.34231 z m -2.09895,20.10737 8.66959,-9.36925 h 12.4112 l -15.90946,22.236754 -6.57063,-3.528684 z m -11.4682,-52.89972 8.88253,2.09895 -3.07238,11.95491 -9.58218,3.04196 -6.08393,-12.4112 z m -44.47349,-56.64134 v -0.69965 h 8.2133 l 0.69965,-2.79861 h 13.41506 v 5.84057 l -3.83288,5.14091 h -18.49513 z m 13.11086,18.25177 c 0,0 8.2133,-1.3993 8.88253,-1.3993 0.66923,0 0,8.18288 0,8.18288 l -18.49513,1.18636 -3.52868,-4.22833 z"
   id="path369"
   style="stroke-width:30.41962242"
   clip-path="url(#clipPath5148)"
   transform="matrix(1.1633564,0,0,1.1633564,-708.71414,358.75496)" /><g
   id="g375"
   transform="matrix(30.419622,0,0,30.419622,759.24639,-585.83363)">
</g><g
   id="g377"
   transform="matrix(30.419622,0,0,30.419622,759.24639,-585.83363)">
</g><g
   id="g379"
   transform="matrix(30.419622,0,0,30.419622,759.24639,-585.83363)">
</g><g
   id="g381"
   transform="matrix(30.419622,0,0,30.419622,759.24639,-585.83363)">
</g><g
   id="g383"
   transform="matrix(30.419622,0,0,30.419622,759.24639,-585.83363)">
</g><g
   id="g385"
   transform="matrix(30.419622,0,0,30.419622,759.24639,-585.83363)">
</g><g
   id="g387"
   transform="matrix(30.419622,0,0,30.419622,759.24639,-585.83363)">
</g><g
   id="g389"
   transform="matrix(30.419622,0,0,30.419622,759.24639,-585.83363)">
</g><g
   id="g391"
   transform="matrix(30.419622,0,0,30.419622,759.24639,-585.83363)">
</g><g
   id="g393"
   transform="matrix(30.419622,0,0,30.419622,759.24639,-585.83363)">
</g><g
   id="g395"
   transform="matrix(30.419622,0,0,30.419622,759.24639,-585.83363)">
</g><g
   id="g397"
   transform="matrix(30.419622,0,0,30.419622,759.24639,-585.83363)">
</g><g
   id="g399"
   transform="matrix(30.419622,0,0,30.419622,759.24639,-585.83363)">
</g><g
   id="g401"
   transform="matrix(30.419622,0,0,30.419622,759.24639,-585.83363)">
</g><g
   id="g403"
   transform="matrix(30.419622,0,0,30.419622,759.24639,-585.83363)">
</g></svg>