<?xml version="1.0" encoding="UTF-8" standalone="no"?>
<!-- Uploaded to: SVG Repo, www.svgrepo.com, Generator: SVG Repo Mixer Tools -->

<svg
   width="800px"
   height="800px"
   viewBox="0 0 100 100"
   aria-hidden="true"
   role="img"
   class="iconify iconify--gis"
   preserveAspectRatio="xMidYMid meet"
   version="1.1"
   id="svg184"
   sodipodi:docname="spain.svg"
   xml:space="preserve"
   inkscape:version="1.2.2 (b0a8486, 2022-12-01)"
   xmlns:inkscape="http://www.inkscape.org/namespaces/inkscape"
   xmlns:sodipodi="http://sodipodi.sourceforge.net/DTD/sodipodi-0.dtd"
   xmlns="http://www.w3.org/2000/svg"
   xmlns:svg="http://www.w3.org/2000/svg"><defs
     id="defs188" /><sodipodi:namedview
     id="namedview186"
     pagecolor="#ffffff"
     bordercolor="#666666"
     borderopacity="1.0"
     inkscape:showpageshadow="2"
     inkscape:pageopacity="0.0"
     inkscape:pagecheckerboard="0"
     inkscape:deskcolor="#d1d1d1"
     showgrid="false"
     inkscape:zoom="0.74246212"
     inkscape:cx="253.21157"
     inkscape:cy="400.02041"
     inkscape:window-width="1920"
     inkscape:window-height="1043"
     inkscape:window-x="1920"
     inkscape:window-y="0"
     inkscape:window-maximized="1"
     inkscape:current-layer="svg184" /><path
     d="m 59.987793,14.552686 3.116249,3.739499 14.802183,4.518561 2.960437,-2.181374 9.037122,4.518561 9.192934,-1.2465 0.62325,5.765049 -7.634798,6.544122 -10.283621,2.181387 -0.779063,3.272062 -4.98601,5.453435 -3.116249,8.102248 3.116249,5.765048 -4.674374,4.362761 -1.869749,6.544111 -6.232498,2.025574 -5.765061,7.634797 -10.595247,0.155813 -7.790622,-0.155813 -5.297623,3.427874 -3.272062,3.739499 -4.051124,-0.779062 -2.960436,-3.427887 -2.181374,-5.609248 -7.63481,-1.558124 -0.62325,-3.427862 3.116249,-3.739498 1.246499,-2.648825 -2.804624,-2.960424 2.492999,-6.544123 -3.116249,-5.920885 3.583687,-0.779062 0.467437,-4.830186 1.2465,-1.402312 0.467437,-7.790623 3.739499,-2.648812 -2.025562,-4.985998 -4.830186,-0.311625 -1.402312,1.2465 H 10.595247 L 8.7254972,25.771158 5.2976233,27.17347 2.3371868,29.666469 3.116249,22.654909 0,18.447973 11.530121,11.2806 l 9.660372,1.713937 h 10.751059 l 8.413873,1.713937 6.699935,-0.62325 z"
     id="ES"
     name="Spain"
     style="stroke-width:0.125" /></svg>
