<?xml version="1.0" encoding="UTF-8" standalone="no"?>
<!-- Uploaded to: SVG Repo, www.svgrepo.com, Generator: SVG Repo Mixer Tools -->

<svg
   xmlns:dc="http://purl.org/dc/elements/1.1/"
   xmlns:cc="http://creativecommons.org/ns#"
   xmlns:rdf="http://www.w3.org/1999/02/22-rdf-syntax-ns#"
   xmlns:svg="http://www.w3.org/2000/svg"
   xmlns="http://www.w3.org/2000/svg"
   xmlns:sodipodi="http://sodipodi.sourceforge.net/DTD/sodipodi-0.dtd"
   xmlns:inkscape="http://www.inkscape.org/namespaces/inkscape"
   fill="#000000"
   width="800px"
   height="800px"
   viewBox="0 0 256 256"
   id="Flat"
   version="1.1"
   sodipodi:docname="geocat1.svg"
   inkscape:version="0.92.3 (2405546, 2018-03-11)">
  <metadata
     id="metadata1251">
    <rdf:RDF>
      <cc:Work
         rdf:about="">
        <dc:format>image/svg+xml</dc:format>
        <dc:type
           rdf:resource="http://purl.org/dc/dcmitype/StillImage" />
      </cc:Work>
    </rdf:RDF>
  </metadata>
  <defs
     id="defs1249">
    <filter
       color-interpolation-filters="sRGB"
       filterUnits="userSpaceOnUse"
       height="3"
       width="17"
       y="16"
       x="3.5"
       id="filter0_d_15_556">
      <feFlood
         id="feFlood1308"
         result="BackgroundImageFix"
         flood-opacity="0" />
      <feColorMatrix
         id="feColorMatrix1310"
         result="hardAlpha"
         values="0 0 0 0 0 0 0 0 0 0 0 0 0 0 0 0 0 0 127 0"
         type="matrix"
         in="SourceAlpha" />
      <feOffset
         id="feOffset1312"
         dy="1" />
      <feGaussianBlur
         id="feGaussianBlur1314"
         stdDeviation="0.5" />
      <feColorMatrix
         id="feColorMatrix1316"
         values="0 0 0 0 0 0 0 0 0 0 0 0 0 0 0 0 0 0 0.1 0"
         type="matrix" />
      <feBlend
         id="feBlend1318"
         result="effect1_dropShadow_15_556"
         in2="BackgroundImageFix"
         mode="normal" />
      <feBlend
         id="feBlend1320"
         result="shape"
         in2="effect1_dropShadow_15_556"
         in="SourceGraphic"
         mode="normal" />
    </filter>
  </defs>
  <sodipodi:namedview
     pagecolor="#ffffff"
     bordercolor="#666666"
     borderopacity="1"
     objecttolerance="10"
     gridtolerance="10"
     guidetolerance="10"
     inkscape:pageopacity="0"
     inkscape:pageshadow="2"
     inkscape:window-width="1680"
     inkscape:window-height="987"
     id="namedview1247"
     showgrid="false"
     showguides="false"
     inkscape:zoom="0.59"
     inkscape:cx="304.86175"
     inkscape:cy="361.71703"
     inkscape:window-x="-8"
     inkscape:window-y="-8"
     inkscape:window-maximized="1"
     inkscape:current-layer="Flat" />
  <path
     d="m 228,52.14289 v 90.52805 c 0,54.2282 -44.85938,98.34601 -100,98.34601 -55.14062,0 -100,-44.11781 -100,-98.34601 V 52.14289 C 27.999869,40.714468 40.92575,34.991044 48.48535,43.072224 l 19.544,20.891535 c 8.079392,-5.920566 16.907449,-10.57901 26.21748,-13.8346 0.340649,-0.180635 0.703946,-0.307659 1.07861,-0.377125 21.25719,-7.236128 44.09205,-7.236128 65.34924,0 0.37459,0.06946 0.7378,0.19649 1.07837,0.377125 9.31042,3.255524 18.13886,7.913968 26.21863,13.8346 l 19.543,-20.891535 C 215.07428,34.991099 228.0001,40.714505 228,52.14289 Z m -8,0 c -1.2e-4,-3.809794 -4.30928,-5.717441 -6.8291,-3.02321 l -21.94141,23.454892 c -1.40264,1.499607 -3.6216,1.673542 -5.21387,0.408691 C 179.25218,67.64228 171.84721,63.298423 164,60.068615 c 23.97168,3.895144 -19.9322,-7.710288 -8,-2.904456 -7.81042,-2.438396 -15.86996,-3.849067 -24,-4.200754 11.62091,-4.333475 -19.9322,-0.880418 -8,0 -8.13004,0.351718 -16.18958,1.762389 -24,4.200754 24,-4.200754 -31.97065,6.7996 -8,2.904456 -7.847515,3.229803 -15.252817,7.573655 -22.0166,12.914648 -1.592371,1.264764 -3.811381,1.090604 -5.21387,-0.409215 L 42.8291,49.119156 c -0.718161,-0.807336 -1.714648,-1.264479 -2.75683,-1.264708 -0.549778,0.0026 -1.094038,0.117357 -1.60352,0.338225 -1.508374,0.64369 -2.489894,2.21421 -2.46875,3.950217 v 90.52805 c 0,48.20424 39.12036,87.65257 88,89.70414 -44.18479,-2.67444 53.55932,2.40316 8,-3e-5 48.87964,-2.05157 88,-41.49988 88,-89.70414 z"
     id="path1244"
     inkscape:connector-curvature="0"
     sodipodi:nodetypes="csssccccccccccccccccccccccccccsccsc"
     style="stroke-width:1.03391409;fill:#000000" />
  <rect
     style="fill:#ffffff;stroke-width:10.66666698"
     y="277.69492"
     x="303.72882"
     width="256"
     height="256"
     id="rect1292" />
  <path
     id="path81"
     d="m 128.30915,46.694948 c -53.917628,0 -97.62712,43.102417 -97.62712,96.271182 0,53.16878 43.709492,96.27119 97.62712,96.27119 53.91763,0 97.62712,-43.10241 97.62712,-96.27119 0,-53.168765 -43.70949,-96.271182 -97.62712,-96.271182 z m 54.82983,93.262712 c -0.42102,-16.7933 -4.3139,-32.7262 -11.02271,-47.133771 8.09084,-3.074661 15.76983,-6.970635 22.92712,-11.594661 14.71728,15.463559 23.96135,36.029492 24.71796,58.728432 z m -50.76305,93.16041 c -0.33559,0.0152 -0.67729,0.0152 -1.01593,0.0272 V 197.224 c 10.14101,0.26175 19.97389,1.74793 29.30339,4.42247 -7.38611,12.1422 -17.01153,22.80123 -28.28746,31.47164 z m 34.2183,-29.55825 c 6.96509,2.40979 13.61288,5.4664 19.90068,9.07956 -12.17593,9.89789 -26.99695,16.73616 -43.25491,19.36857 9.17695,-8.23118 17.05423,-17.82521 23.35423,-28.44813 z m -70.642369,-1.91339 c 9.332539,-2.67755 19.165419,-4.16072 29.306439,-4.42247 v 35.91819 c -0.33864,-0.012 -0.68034,-0.012 -1.01593,-0.0271 -11.27898,-8.66742 -20.90136,-19.32645 -28.290509,-31.46865 z m 17.423389,30.35852 c -16.257966,-2.62941 -31.078983,-9.46768 -43.254915,-19.36857 6.290848,-3.61016 12.935593,-6.66978 19.900678,-9.07656 6.3,10.62292 14.180337,20.21695 23.354237,28.44513 z M 36.859996,139.95766 c 0.75661,-22.69894 9.997627,-43.264873 24.717966,-58.728432 7.157288,4.621018 14.833221,8.516991 22.927119,11.594661 C 77.793216,107.23146 73.900335,123.16436 73.479318,139.95766 Z M 163.60745,89.403254 C 153.40237,92.619312 142.57491,94.427407 131.36,94.716219 V 52.78711 c 0.33864,0.01204 0.68034,0.01204 1.01593,0.02707 12.83796,9.867795 23.53424,22.319871 31.23152,36.589068 z m -20.3644,-35.475933 c 18.13423,2.936271 34.46847,11.119322 47.3522,22.930594 -6.63864,4.184787 -13.71661,7.73178 -21.18508,10.526652 C 162.71661,74.751982 153.84169,63.428085 143.24305,53.927321 Z M 125.2583,52.78711 V 94.716219 C 114.04034,94.427407 103.21288,92.622321 93.010844,89.403254 100.70813,75.134058 111.4044,62.681982 124.24237,52.814187 c 0.33559,-0.01504 0.67729,-0.01504 1.01593,-0.02707 z M 87.211183,87.384567 C 79.742708,84.589695 72.661691,81.042702 66.026098,76.857915 78.909827,65.046643 95.241013,56.863592 113.3783,53.927321 102.77661,63.428085 93.901691,74.751982 87.211183,87.384567 Z m 3.06,7.47305 c 11.050167,3.577078 22.795937,5.634873 34.987117,5.932713 v 39.16733 H 79.590166 c 0.424067,-16.0833 4.185762,-31.33628 10.681017,-45.100043 z M 125.2583,145.97461 v 45.23542 c -11.23932,0.27679 -22.10339,2.00064 -32.384745,5.08131 -8.093898,-15.08148 -12.804406,-32.17863 -13.283389,-50.31673 z m 6.1017,45.23542 v -45.23542 h 45.66813 c -0.47593,18.1381 -5.18949,35.23525 -13.28339,50.31975 -10.28135,-3.08369 -21.14542,-4.80754 -32.38474,-5.08433 z m 0,-51.25237 v -39.17034 c 12.19118,-0.29784 23.93695,-2.352625 34.98711,-5.93271 6.49526,13.76376 10.25695,29.01975 10.68102,45.10004 H 131.36 Z m -94.500004,6.01695 h 36.619322 c 0.469831,18.81199 5.308475,36.54093 13.567119,52.25419 -7.614915,2.70462 -14.860678,6.14932 -21.688475,10.21677 -16.898644,-15.8005 -27.677288,-37.88571 -28.497966,-62.47096 z m 154.400344,62.47397 c -6.8278,-4.07046 -14.07356,-7.51215 -21.68848,-10.21676 8.25864,-15.71628 13.09729,-33.44221 13.56712,-52.2542 h 36.61932 c -0.82068,24.58224 -11.59932,46.66745 -28.49796,62.47096 z"
     inkscape:connector-curvature="0"
     style="fill:#000000;stroke-width:3.02958679" />
  <g
     style="fill:#000000"
     id="g59"
     transform="translate(-277.69491,-33.860056)" />
</svg>
