<?xml version="1.0" encoding="UTF-8" standalone="no"?>
<!-- Uploaded to: SVG Repo, www.svgrepo.com, Generator: SVG Repo Mixer Tools -->

<svg
   xmlns:dc="http://purl.org/dc/elements/1.1/"
   xmlns:cc="http://creativecommons.org/ns#"
   xmlns:rdf="http://www.w3.org/1999/02/22-rdf-syntax-ns#"
   xmlns:svg="http://www.w3.org/2000/svg"
   xmlns="http://www.w3.org/2000/svg"
   xmlns:sodipodi="http://sodipodi.sourceforge.net/DTD/sodipodi-0.dtd"
   xmlns:inkscape="http://www.inkscape.org/namespaces/inkscape"
   fill="#000000"
   width="800px"
   height="800px"
   viewBox="0 0 256 256"
   id="Flat"
   version="1.1"
   sodipodi:docname="geocat.svg"
   inkscape:version="0.92.3 (2405546, 2018-03-11)">
  <metadata
     id="metadata1251">
    <rdf:RDF>
      <cc:Work
         rdf:about="">
        <dc:format>image/svg+xml</dc:format>
        <dc:type
           rdf:resource="http://purl.org/dc/dcmitype/StillImage" />
      </cc:Work>
    </rdf:RDF>
  </metadata>
  <defs
     id="defs1249">
    <filter
       color-interpolation-filters="sRGB"
       filterUnits="userSpaceOnUse"
       height="3"
       width="17"
       y="16"
       x="3.5"
       id="filter0_d_15_556">
      <feFlood
         id="feFlood1308"
         result="BackgroundImageFix"
         flood-opacity="0" />
      <feColorMatrix
         id="feColorMatrix1310"
         result="hardAlpha"
         values="0 0 0 0 0 0 0 0 0 0 0 0 0 0 0 0 0 0 127 0"
         type="matrix"
         in="SourceAlpha" />
      <feOffset
         id="feOffset1312"
         dy="1" />
      <feGaussianBlur
         id="feGaussianBlur1314"
         stdDeviation="0.5" />
      <feColorMatrix
         id="feColorMatrix1316"
         values="0 0 0 0 0 0 0 0 0 0 0 0 0 0 0 0 0 0 0.1 0"
         type="matrix" />
      <feBlend
         id="feBlend1318"
         result="effect1_dropShadow_15_556"
         in2="BackgroundImageFix"
         mode="normal" />
      <feBlend
         id="feBlend1320"
         result="shape"
         in2="effect1_dropShadow_15_556"
         in="SourceGraphic"
         mode="normal" />
    </filter>
  </defs>
  <sodipodi:namedview
     pagecolor="#ffffff"
     bordercolor="#666666"
     borderopacity="1"
     objecttolerance="10"
     gridtolerance="10"
     guidetolerance="10"
     inkscape:pageopacity="0"
     inkscape:pageshadow="2"
     inkscape:window-width="1680"
     inkscape:window-height="987"
     id="namedview1247"
     showgrid="false"
     showguides="false"
     inkscape:zoom="0.295"
     inkscape:cx="400"
     inkscape:cy="400"
     inkscape:window-x="-8"
     inkscape:window-y="-8"
     inkscape:window-maximized="1"
     inkscape:current-layer="Flat" />
  <path
     d="m 228,52.14289 v 90.52805 c 0,54.2282 -44.85938,98.34601 -100,98.34601 -55.14062,0 -100,-44.11781 -100,-98.34601 V 52.14289 C 27.999869,40.714468 40.92575,34.991044 48.48535,43.072224 l 19.544,20.891535 c 8.079392,-5.920566 16.907449,-10.57901 26.21748,-13.8346 0.340649,-0.180635 0.703946,-0.307659 1.07861,-0.377125 21.25719,-7.236128 44.09205,-7.236128 65.34924,0 0.37459,0.06946 0.7378,0.19649 1.07837,0.377125 9.31042,3.255524 18.13886,7.913968 26.21863,13.8346 l 19.543,-20.891535 C 215.07428,34.991099 228.0001,40.714505 228,52.14289 Z m -8,0 c -1.2e-4,-3.809794 -4.30928,-5.717441 -6.8291,-3.02321 l -21.94141,23.454892 c -1.40264,1.499607 -3.6216,1.673542 -5.21387,0.408691 C 179.25218,67.64228 171.84721,63.298423 164,60.068615 c 23.97168,3.895144 -19.9322,-7.710288 -8,-2.904456 -7.81042,-2.438396 -15.86996,-3.849067 -24,-4.200754 11.62091,-4.333475 -19.9322,-0.880418 -8,0 -8.13004,0.351718 -16.18958,1.762389 -24,4.200754 24,-4.200754 -31.97065,6.7996 -8,2.904456 -7.847515,3.229803 -15.252817,7.573655 -22.0166,12.914648 -1.592371,1.264764 -3.811381,1.090604 -5.21387,-0.409215 L 42.8291,49.119156 c -0.718161,-0.807336 -1.714648,-1.264479 -2.75683,-1.264708 -0.549778,0.0026 -1.094038,0.117357 -1.60352,0.338225 -1.508374,0.64369 -2.489894,2.21421 -2.46875,3.950217 v 90.52805 c 0,48.20424 39.12036,87.65257 88,89.70414 -44.18479,-2.67444 53.55932,2.40316 8,-3e-5 48.87964,-2.05157 88,-41.49988 88,-89.70414 z"
     id="path1244"
     inkscape:connector-curvature="0"
     sodipodi:nodetypes="csssccccccccccccccccccccccccccsccsc"
     style="stroke-width:1.03391409" />
  <rect
     style="fill:#ffffff;stroke-width:10.66666698"
     y="277.69492"
     x="303.72882"
     width="256"
     height="256"
     id="rect1292" />
  <path
     id="path81"
     d="m 128.30915,47.237321 c -53.917628,0 -97.62712,42.981001 -97.62712,95.999999 0,53.019 43.709492,96 97.62712,96 53.91763,0 97.62712,-42.981 97.62712,-96 0,-53.018998 -43.70949,-95.999999 -97.62712,-95.999999 z m 54.82983,92.999999 c -0.42102,-16.746 -4.3139,-32.63401 -11.02271,-47.000999 8.09084,-3.066 15.76983,-6.950999 22.92712,-11.562 14.71728,15.42 23.96135,35.927999 24.71796,58.562999 z m -50.76305,92.89799 c -0.33559,0.0151 -0.67729,0.0151 -1.01593,0.0271 v -35.82005 c 10.14101,0.26101 19.97389,1.743 29.30339,4.41001 -7.38611,12.108 -17.01153,22.737 -28.28746,31.38299 z m 34.2183,-29.47499 c 6.96509,2.403 13.61288,5.451 19.90068,9.05399 -12.17593,9.87 -26.99695,16.68901 -43.25491,19.31401 9.17695,-8.208 17.05423,-17.775 23.35423,-28.368 z m -70.642369,-1.908 c 9.332539,-2.67001 19.165419,-4.149 29.306439,-4.41001 v 35.81701 c -0.33864,-0.012 -0.68034,-0.012 -1.01593,-0.027 -11.27898,-8.643 -20.90136,-19.272 -28.290509,-31.38 z m 17.423389,30.273 c -16.257966,-2.622 -31.078983,-9.44101 -43.254915,-19.31401 6.290848,-3.59999 12.935593,-6.65099 19.900678,-9.05099 6.3,10.593 14.180337,20.16 23.354237,28.365 z m -76.515254,-91.788 c 0.75661,-22.635 9.997627,-43.142999 24.717966,-58.562999 7.157288,4.608001 14.833221,8.493 22.927119,11.562 C 77.793216,107.60331 73.900335,123.49132 73.479318,140.23732 Z M 163.60745,89.825322 c -10.20508,3.206999 -21.03254,5.01 -32.24745,5.297999 v -41.811 c 0.33864,0.012 0.68034,0.012 1.01593,0.027 12.83796,9.839999 23.53424,22.256999 31.23152,36.486001 z m -20.3644,-35.376001 c 18.13423,2.928 34.46847,11.088 47.3522,22.866001 -6.63864,4.172999 -13.71661,7.71 -21.18508,10.496999 -6.69356,-12.597 -15.56848,-23.888999 -26.16712,-33.363 z m -17.98475,-1.137 v 41.811 c -11.21796,-0.287999 -22.04542,-2.088 -32.247456,-5.297999 7.697286,-14.229001 18.393556,-26.646001 31.231526,-36.486 0.33559,-0.015 0.67729,-0.015 1.01593,-0.027 z m -38.047117,34.5 C 79.742708,85.025322 72.661691,81.488321 66.026098,77.315322 78.909827,65.537321 95.241013,57.377321 113.3783,54.449321 c -10.60169,9.474001 -19.476609,20.766 -26.167117,33.363 z m 3.06,7.452 c 11.050167,3.567001 22.795937,5.618999 34.987117,5.915999 v 39.057 H 79.590166 c 0.424067,-16.038 4.185762,-31.24801 10.681017,-44.972999 z M 125.2583,146.23732 v 45.108 c -11.23932,0.276 -22.10339,1.995 -32.384745,5.067 -8.093898,-15.039 -12.804406,-32.088 -13.283389,-50.175 z m 6.1017,45.108 v -45.108 h 45.66813 c -0.47593,18.087 -5.18949,35.136 -13.28339,50.178 -10.28135,-3.075 -21.14542,-4.794 -32.38474,-5.07 z m 0,-51.108 v -39.06 c 12.19118,-0.297 23.93695,-2.345998 34.98711,-5.915999 6.49526,13.724989 10.25695,28.937999 10.68102,44.972999 H 131.36 Z m -94.500004,6 h 36.619322 c 0.469831,18.759 5.308475,36.438 13.567119,52.107 -7.614915,2.697 -14.860678,6.132 -21.688475,10.18799 -16.898644,-15.756 -27.677288,-37.77899 -28.497966,-62.29499 z m 154.400344,62.29799 c -6.8278,-4.05899 -14.07356,-7.49099 -21.68848,-10.18799 8.25864,-15.672 13.09729,-33.348 13.56712,-52.107 h 36.61932 c -0.82068,24.513 -11.59932,46.53599 -28.49796,62.29499 z"
     inkscape:connector-curvature="0"
     style="fill:#231f20;stroke-width:3.02531695" />
</svg>
