<?xml version="1.0" encoding="UTF-8" standalone="no"?>
<!-- Generator: Adobe Illustrator 16.0.0, SVG Export Plug-In . SVG Version: 6.00 Build 0)  -->

<svg
   version="1.1"
   id="Capa_1"
   x="0px"
   y="0px"
   width="21.689541"
   height="17.764763"
   viewBox="0 0 21.68954 17.764762"
   xml:space="preserve"
   sodipodi:docname="iberia.svg"
   inkscape:version="1.3.1 (9b9bdc1480, 2023-11-25, custom)"
   xmlns:inkscape="http://www.inkscape.org/namespaces/inkscape"
   xmlns:sodipodi="http://sodipodi.sourceforge.net/DTD/sodipodi-0.dtd"
   xmlns="http://www.w3.org/2000/svg"
   xmlns:svg="http://www.w3.org/2000/svg"><defs
   id="defs16">
	
</defs><sodipodi:namedview
   id="namedview16"
   pagecolor="#ffffff"
   bordercolor="#000000"
   borderopacity="0.25"
   inkscape:showpageshadow="2"
   inkscape:pageopacity="0.0"
   inkscape:pagecheckerboard="0"
   inkscape:deskcolor="#d1d1d1"
   inkscape:zoom="24.831843"
   inkscape:cx="-1.751783"
   inkscape:cy="11.114761"
   inkscape:window-width="1606"
   inkscape:window-height="986"
   inkscape:window-x="0"
   inkscape:window-y="0"
   inkscape:window-maximized="1"
   inkscape:current-layer="Capa_1" />

<g
   id="g2"
   transform="translate(0.50425451,-1.7104711)">
</g>
<g
   id="g3"
   transform="translate(0.50425451,-1.7104711)">
</g>
<g
   id="g4"
   transform="translate(0.50425451,-1.7104711)">
</g>
<g
   id="g5"
   transform="translate(0.50425451,-1.7104711)">
</g>
<g
   id="g6"
   transform="translate(0.50425451,-1.7104711)">
</g>
<g
   id="g7"
   transform="translate(0.50425451,-1.7104711)">
</g>
<g
   id="g8"
   transform="translate(0.50425451,-1.7104711)">
</g>
<g
   id="g9"
   transform="translate(0.50425451,-1.7104711)">
</g>
<g
   id="g10"
   transform="translate(0.50425451,-1.7104711)">
</g>
<g
   id="g11"
   transform="translate(0.50425451,-1.7104711)">
</g>
<g
   id="g12"
   transform="translate(0.50425451,-1.7104711)">
</g>
<g
   id="g13"
   transform="translate(0.50425451,-1.7104711)">
</g>
<g
   id="g14"
   transform="translate(0.50425451,-1.7104711)">
</g>
<g
   id="g15"
   transform="translate(0.50425451,-1.7104711)">
</g>
<g
   id="g16"
   transform="translate(0.50425451,-1.7104711)">
</g>
<g
   style="fill:#000000"
   id="g17"
   transform="matrix(0.53884436,0,0,0.53884436,-2.65657,3.6080588)"><g
     id="g18"><g
       id="g1"
       transform="matrix(1.8558235,0,0,1.8558235,5.8659322,-9.8702525)">
	<path
   d="M 0.66,5.918 C 1.917,5.836 3.043,6.535 4.273,6.218 4.473,6.165 5.503,6.8 4.58,7.487 4.156,7.801 4.072,8.2 3.983,8.721 c -0.146,0.857 0.486,2.077 -0.944,2.484 -0.28,0.08 -0.013,0.313 0.06,0.452 0.331,0.629 0.285,1.21 0.239,1.935 -0.053,0.854 -0.244,1.561 -0.518,2.321 -0.094,0.264 -0.108,0.842 0.326,0.847 1.265,0.012 1.526,0.983 2.007,1.823 0.331,0.577 0.881,1.309 1.591,0.6 1.005,-1.004 2.121,-1.607 3.494,-1.272 2.31,0.564 3.024,-1.939 4.797,-2.349 -0.49,-1.43 2.429,-2.213 0.721,-3.925 -0.352,-0.354 0.041,-0.971 0.324,-1.348 0.928,-1.244 1.287,-3 3.229,-3.348 C 19.851,6.844 20.277,6.165 20.787,5.795 21.289,5.428 21.213,4.924 21.109,4.462 20.96,3.782 20.462,4.184 20.068,4.177 19.268,4.167 18.429,4.361 17.726,3.696 17.533,3.511 17.01,3.447 16.775,3.576 15.537,4.262 14.494,3.5 13.478,3.089 12.994,2.893 12.564,2.736 12.039,2.633 10.018,2.235 7.966,2.532 5.924,2.314 4.322,2.142 2.74,1.635 1.079,1.72 0.092,1.768 0.002,2.109 0,2.925 -0.002,4.023 1.031,4.842 0.66,5.918 Z"
   id="path1" />
</g><path
       d="m 6.619,15.345 c 0.64,0.237 0.555,0.749 0.553,1.301 -0.005,1.512 0.183,3.027 -0.63,4.552 1.635,-0.341 1.81,-0.339 3.279,-0.019 1.519,0.328 2.304,-0.354 2.186,-1.854 -0.071,-0.915 0.406,-1.649 1.104,-2.106 0.583,-0.376 0.938,-0.453 0.153,-1.039 -0.809,-0.608 -1.042,-1.392 -0.092,-2.2 0.39,-0.329 0.865,-0.891 0.2,-1.338 -0.816,-0.548 0.469083,-1.124185 -0.232917,-1.897185 C 14.113083,10.835815 13.939,10.48 13.891,9.527 13.825,8.252 14.763,7.089 14.287,5.897 13.863,4.838 14.431,4.404 15.053,3.836 15.718,3.232 17.342,3.023 15.426,1.588 14.544,0.928 13.613,0.475 13.091,0.845 12.013,1.604 10.942,0.645 9.976,1.199 9.831,1.28 9.559,1.2 9.6,0.927 9.76,-0.173 9.177,-0.125 8.473,0.212 7.739,0.562 6.691,0.62 7.114,1.984 8.164,5.365 7.428,8.49 5.5,11.374 4.429,12.98 4.904,14.708 6.619,15.345 Z"
       id="path1-7"
       sodipodi:nodetypes="ccccccccccccccccccccc" /></g></g></svg>
