<?xml version="1.0" encoding="UTF-8" standalone="no"?>
<!-- Generator: Adobe Illustrator 16.0.0, SVG Export Plug-In . SVG Version: 6.00 Build 0)  -->

<svg
   version="1.1"
   id="Capa_1"
   x="0px"
   y="0px"
   width="810.94348"
   height="664.20117"
   viewBox="0 0 810.94345 664.20114"
   xml:space="preserve"
   sodipodi:docname="iberia.svg"
   inkscape:version="1.3.1 (9b9bdc1480, 2023-11-25, custom)"
   xmlns:inkscape="http://www.inkscape.org/namespaces/inkscape"
   xmlns:sodipodi="http://sodipodi.sourceforge.net/DTD/sodipodi-0.dtd"
   xmlns="http://www.w3.org/2000/svg"
   xmlns:svg="http://www.w3.org/2000/svg"><defs
   id="defs16">
	
</defs><sodipodi:namedview
   id="namedview16"
   pagecolor="#ffffff"
   bordercolor="#000000"
   borderopacity="0.25"
   inkscape:showpageshadow="2"
   inkscape:pageopacity="0.0"
   inkscape:pagecheckerboard="0"
   inkscape:deskcolor="#d1d1d1"
   inkscape:zoom="1.0974228"
   inkscape:cx="472.4706"
   inkscape:cy="325.30762"
   inkscape:window-width="1606"
   inkscape:window-height="986"
   inkscape:window-x="0"
   inkscape:window-y="0"
   inkscape:window-maximized="1"
   inkscape:current-layer="Capa_1" />

<g
   id="g2"
   transform="translate(0.50425457,-1.7104705)">
</g>
<g
   id="g3"
   transform="translate(0.50425457,-1.7104705)">
</g>
<g
   id="g4"
   transform="translate(0.50425457,-1.7104705)">
</g>
<g
   id="g5"
   transform="translate(0.50425457,-1.7104705)">
</g>
<g
   id="g6"
   transform="translate(0.50425457,-1.7104705)">
</g>
<g
   id="g7"
   transform="translate(0.50425457,-1.7104705)">
</g>
<g
   id="g8"
   transform="translate(0.50425457,-1.7104705)">
</g>
<g
   id="g9"
   transform="translate(0.50425457,-1.7104705)">
</g>
<g
   id="g10"
   transform="translate(0.50425457,-1.7104705)">
</g>
<g
   id="g11"
   transform="translate(0.50425457,-1.7104705)">
</g>
<g
   id="g12"
   transform="translate(0.50425457,-1.7104705)">
</g>
<g
   id="g13"
   transform="translate(0.50425457,-1.7104705)">
</g>
<g
   id="g14"
   transform="translate(0.50425457,-1.7104705)">
</g>
<g
   id="g15"
   transform="translate(0.50425457,-1.7104705)">
</g>
<g
   id="g16"
   transform="translate(0.50425457,-1.7104705)">
</g>
<g
   id="g18"
   transform="matrix(37.38869,0,0,37.38869,2.1108882e-7,1.9454881e-6)"><g
     id="g1"
     transform="translate(0.50425448,-1.7104711)"
     style="fill:#000000">
	<path
   d="M 0.66,5.918 C 1.917,5.836 3.043,6.535 4.273,6.218 4.473,6.165 5.503,6.8 4.58,7.487 4.156,7.801 4.072,8.2 3.983,8.721 c -0.146,0.857 0.486,2.077 -0.944,2.484 -0.28,0.08 -0.013,0.313 0.06,0.452 0.331,0.629 0.285,1.21 0.239,1.935 -0.053,0.854 -0.244,1.561 -0.518,2.321 -0.094,0.264 -0.108,0.842 0.326,0.847 1.265,0.012 1.526,0.983 2.007,1.823 0.331,0.577 0.881,1.309 1.591,0.6 1.005,-1.004 2.121,-1.607 3.494,-1.272 2.31,0.564 3.024,-1.939 4.797,-2.349 -0.49,-1.43 2.429,-2.213 0.721,-3.925 -0.352,-0.354 0.041,-0.971 0.324,-1.348 0.928,-1.244 1.287,-3 3.229,-3.348 C 19.851,6.844 20.277,6.165 20.787,5.795 21.289,5.428 21.213,4.924 21.109,4.462 20.96,3.782 20.462,4.184 20.068,4.177 19.268,4.167 18.429,4.361 17.726,3.696 17.533,3.511 17.01,3.447 16.775,3.576 15.537,4.262 14.494,3.5 13.478,3.089 12.994,2.893 12.564,2.736 12.039,2.633 10.018,2.235 7.966,2.532 5.924,2.314 4.322,2.142 2.74,1.635 1.079,1.72 0.092,1.768 0.002,2.109 0,2.925 -0.002,4.023 1.031,4.842 0.66,5.918 Z"
   id="path1" />
</g><path
     d="m 0.91004082,11.876626 c 0.34486038,0.127706 0.29905858,0.403594 0.29798088,0.701036 -0.00269,0.814733 0.098609,1.631082 -0.3394719,2.45282 0.8810105,-0.183746 0.9753083,-0.182669 1.7668707,-0.01024 0.8185045,0.17674 1.2414974,-0.190751 1.1779137,-0.999018 C 3.7750763,13.528183 4.032105,13.132672 4.4082184,12.88642 4.7223647,12.683814 4.9136544,12.642323 4.4906616,12.326561 4.0547365,11.998943 3.9291858,11.576489 4.4410879,11.141103 4.6512372,10.963823 4.9071883,10.660993 4.5488568,10.420129 4.1091598,10.124842 4.8016195,9.8143685 4.4233508,9.3978418 4.9481852,9.4468766 4.8543815,9.2551477 4.828517,8.741629 4.7929533,8.0546025 5.2983893,7.4279265 5.0418994,6.785624 4.8134294,6.2149878 5.119493,5.9811294 5.4546542,5.6750658 5.8129857,5.3496038 6.6880689,5.2369853 5.6556431,4.4637436 5.1803824,4.1081064 4.6787183,3.8640099 4.3974415,4.0633823 3.8165673,4.4723652 3.239465,3.9556134 2.7189413,4.2541332 2.6408089,4.2977796 2.4942432,4.254672 2.5163359,4.1075675 2.602551,3.5148387 2.2884047,3.5407033 1.9090583,3.7222938 1.5135465,3.9108893 0.94883761,3.9421423 1.1767688,4.677126 1.7425554,6.4989588 1.3459659,8.1828474 0.30707398,9.7368746 -0.27002833,10.602259 -0.01407726,11.533382 0.91004082,11.876626 Z"
     id="path1-7"
     sodipodi:nodetypes="ccccccccccccccccccccc"
     style="fill:#000000;stroke-width:0.538844" /></g></svg>
