<?xml version="1.0" encoding="UTF-8" standalone="no"?>
<!-- Uploaded to: SVG Repo, www.svgrepo.com, Generator: SVG Repo Mixer Tools -->

<svg
   xmlns:dc="http://purl.org/dc/elements/1.1/"
   xmlns:cc="http://creativecommons.org/ns#"
   xmlns:rdf="http://www.w3.org/1999/02/22-rdf-syntax-ns#"
   xmlns:svg="http://www.w3.org/2000/svg"
   xmlns="http://www.w3.org/2000/svg"
   xmlns:sodipodi="http://sodipodi.sourceforge.net/DTD/sodipodi-0.dtd"
   xmlns:inkscape="http://www.inkscape.org/namespaces/inkscape"
   height="800px"
   width="800px"
   version="1.1"
   id="_x32_"
   viewBox="0 0 512 512"
   xml:space="preserve"
   sodipodi:docname="spain.svg"
   inkscape:version="0.92.3 (2405546, 2018-03-11)"><metadata
   id="metadata38"><rdf:RDF><cc:Work
       rdf:about=""><dc:format>image/svg+xml</dc:format><dc:type
         rdf:resource="http://purl.org/dc/dcmitype/StillImage" /><dc:title></dc:title></cc:Work></rdf:RDF></metadata><defs
   id="defs36" /><sodipodi:namedview
   pagecolor="#ffffff"
   bordercolor="#666666"
   borderopacity="1"
   objecttolerance="10"
   gridtolerance="10"
   guidetolerance="10"
   inkscape:pageopacity="0"
   inkscape:pageshadow="2"
   inkscape:window-width="1680"
   inkscape:window-height="987"
   id="namedview34"
   showgrid="false"
   inkscape:zoom="0.69826795"
   inkscape:cx="607.38627"
   inkscape:cy="395.70117"
   inkscape:window-x="-8"
   inkscape:window-y="-8"
   inkscape:window-maximized="1"
   inkscape:current-layer="_x32_" />
<style
   type="text/css"
   id="style25">
	.st0{fill:#000000;}
</style>

<g
   id="g2"
   transform="matrix(0.29682309,0,0,0.29682309,176.32029,186.49481)">
</g><g
   id="g3"
   transform="matrix(0.29682309,0,0,0.29682309,176.32029,186.49481)">
</g><g
   id="g4"
   transform="matrix(0.29682309,0,0,0.29682309,176.32029,186.49481)">
</g><g
   id="g5"
   transform="matrix(0.29682309,0,0,0.29682309,176.32029,186.49481)">
</g><g
   id="g6"
   transform="matrix(0.29682309,0,0,0.29682309,176.32029,186.49481)">
</g><g
   id="g7"
   transform="matrix(0.29682309,0,0,0.29682309,176.32029,186.49481)">
</g><g
   id="g8"
   transform="matrix(0.29682309,0,0,0.29682309,176.32029,186.49481)">
</g><g
   id="g9"
   transform="matrix(0.29682309,0,0,0.29682309,176.32029,186.49481)">
</g><g
   id="g10"
   transform="matrix(0.29682309,0,0,0.29682309,176.32029,186.49481)">
</g><g
   id="g11"
   transform="matrix(0.29682309,0,0,0.29682309,176.32029,186.49481)">
</g><g
   id="g12"
   transform="matrix(0.29682309,0,0,0.29682309,176.32029,186.49481)">
</g><g
   id="g13"
   transform="matrix(0.29682309,0,0,0.29682309,176.32029,186.49481)">
</g><g
   id="g14"
   transform="matrix(0.29682309,0,0,0.29682309,176.32029,186.49481)">
</g><g
   id="g15"
   transform="matrix(0.29682309,0,0,0.29682309,176.32029,186.49481)">
</g><g
   id="g16"
   transform="matrix(0.29682309,0,0,0.29682309,176.32029,186.49481)">
</g><g
   style="fill:#000000"
   transform="matrix(22.690209,0,0,22.690209,20.409543,18.36498)"
   id="g1">
	<path
   id="path1"
   d="M 0.66,5.918 C 1.917,5.836 3.043,6.535 4.273,6.218 4.473,6.165 5.503,6.8 4.58,7.487 4.156,7.801 4.072,8.2 3.983,8.721 c -0.146,0.857 0.486,2.077 -0.944,2.484 -0.28,0.08 -0.013,0.313 0.06,0.452 0.331,0.629 0.285,1.21 0.239,1.935 -0.053,0.854 -0.244,1.561 -0.518,2.321 -0.094,0.264 -0.108,0.842 0.326,0.847 1.265,0.012 1.526,0.983 2.007,1.823 0.331,0.577 0.881,1.309 1.591,0.6 1.005,-1.004 2.121,-1.607 3.494,-1.272 2.31,0.564 3.024,-1.939 4.797,-2.349 -0.49,-1.43 2.429,-2.213 0.721,-3.925 -0.352,-0.354 0.041,-0.971 0.324,-1.348 0.928,-1.244 1.287,-3 3.229,-3.348 C 19.851,6.844 20.277,6.165 20.787,5.795 21.289,5.428 21.213,4.924 21.109,4.462 20.96,3.782 20.462,4.184 20.068,4.177 19.268,4.167 18.429,4.361 17.726,3.696 17.533,3.511 17.01,3.447 16.775,3.576 15.537,4.262 14.494,3.5 13.478,3.089 12.994,2.893 12.564,2.736 12.039,2.633 10.018,2.235 7.966,2.532 5.924,2.314 4.322,2.142 2.74,1.635 1.079,1.72 0.092,1.768 0.002,2.109 0,2.925 -0.002,4.023 1.031,4.842 0.66,5.918 Z"
   inkscape:connector-curvature="0" />
</g></svg>