<?xml version="1.0" encoding="UTF-8" standalone="no"?>
<!-- Uploaded to: SVG Repo, www.svgrepo.com, Generator: SVG Repo Mixer Tools -->

<svg
   fill="#000000"
   version="1.1"
   id="Layer_1"
   width="800px"
   height="800px"
   viewBox="0 0 256 248"
   enable-background="new 0 0 256 248"
   xml:space="preserve"
   sodipodi:docname="archaeology.svg"
   inkscape:version="1.2.2 (b0a8486, 2022-12-01)"
   xmlns:inkscape="http://www.inkscape.org/namespaces/inkscape"
   xmlns:sodipodi="http://sodipodi.sourceforge.net/DTD/sodipodi-0.dtd"
   xmlns="http://www.w3.org/2000/svg"
   xmlns:svg="http://www.w3.org/2000/svg"><defs
   id="defs648" /><sodipodi:namedview
   id="namedview646"
   pagecolor="#ffffff"
   bordercolor="#666666"
   borderopacity="1.0"
   inkscape:showpageshadow="2"
   inkscape:pageopacity="0.0"
   inkscape:pagecheckerboard="0"
   inkscape:deskcolor="#d1d1d1"
   showgrid="false"
   inkscape:zoom="0.53125"
   inkscape:cx="103.52941"
   inkscape:cy="437.64706"
   inkscape:window-width="1920"
   inkscape:window-height="1016"
   inkscape:window-x="0"
   inkscape:window-y="27"
   inkscape:window-maximized="1"
   inkscape:current-layer="Layer_1" />
<path
   d="m 117.80413,49.111569 c 9.0384,0 16.36579,7.327389 16.36579,16.365786 0,9.038398 -7.32739,16.365788 -16.36579,16.365788 -9.03839,0 -16.36579,-7.32739 -16.36579,-16.365788 0,-9.038397 7.32664,-16.365786 16.36579,-16.365786 z m -60.033777,99.176541 -0.15081,-0.15082 v 0 c -0.67867,-0.45245 -1.28194,-0.82948 -1.8098,-1.43275 l 1.8098,20.7402 -22.776981,32.27913 c -3.24329,4.67604 -2.11141,11.01106 2.41307,14.25437 4.676041,3.24329 11.011061,2.11142 14.254361,-2.41306 l 24.58676,-35.44701 c 1.28193,-1.8098 2.11142,-4.2236 1.80979,-6.63665 l -0.82949,-10.03078 z m 67.650737,67.49991 h 97.59297 l -18.25174,-56.94129 c 0,0 -10.3324,2.56463 -30.77098,24.28513 -0.45243,0.45245 -0.9803,0.9803 -1.43275,1.43275 l -49.32433,-28.50873 c 0.82948,-1.58357 0.9803,-3.39411 0.67866,-5.35472 L 106.41527,85.840518 C 104.98252,79.505497 99.326163,74.678634 92.688763,74.678634 h -32.65617 c -2.41305,0 -4.82686,1.281935 -6.18421,3.394112 L 37.558002,106.3545 c -2.11141,3.3941 -0.82948,7.76852 2.564631,9.72914 l 18.25174,10.48321 -2.41305,4.07277 c -2.94166,4.82687 -1.28194,11.01108 3.69574,13.72652 l 40.952547,23.60646 v 37.40837 c 0,5.65635 4.52524,10.18159 10.18158,10.18159 5.65635,0 10.18159,-4.52524 10.18159,-10.18159 v -42.68768 l 45.32695,26.24574 c -9.35209,5.35471 -20.06152,6.33502 -27.67924,10.86024 -9.35285,5.58096 -13.1994,15.98875 -13.1994,15.98875 z m -63.578707,-95.17916 -11.99137,-6.93829 v 0 l 14.25437,-24.586756 h 15.98874 z m 26.3219,15.23467 11.3127,-19.75989 8.447207,31.07259 z M 206.8564,56.184834 c -0.8408,-9.581334 5.0463,-18.735105 5.0463,-18.735105 h -0.15685 c 1.45914,0 2.64229,-1.18315 2.64229,-2.642295 0,-1.459143 -1.18315,-2.642294 -2.64229,-2.642294 h -28.9642 c -1.45914,0 -2.64229,1.183151 -2.64229,2.642294 0,1.459145 1.18315,2.642295 2.64229,2.642295 h -0.15232 c 0,0 5.88709,9.153771 5.0463,18.735105 -1.11755,12.737157 -16.15766,18.93569 -16.15766,39.125415 0,19.648291 14.90513,28.591671 14.90513,28.591671 h 21.68582 c 0,0 14.90514,-8.94338 14.90514,-28.591671 0,-20.190478 -15.03936,-26.388258 -16.15766,-39.125415 z"
   id="path643"
   style="stroke-width:1" />
</svg>
