<?xml version="1.0" encoding="UTF-8" standalone="no"?>
<!-- Uploaded to: SVG Repo, www.svgrepo.com, Transformed by: SVG Repo Mixer Tools -->

<svg
   version="1.1"
   id="Layer_1"
   viewBox="0 0 512.001 512.001"
   xml:space="preserve"
   width="800px"
   height="800px"
   fill="#000000"
   sodipodi:docname="economy.svg"
   inkscape:version="1.2.2 (b0a8486, 2022-12-01)"
   xmlns:inkscape="http://www.inkscape.org/namespaces/inkscape"
   xmlns:sodipodi="http://sodipodi.sourceforge.net/DTD/sodipodi-0.dtd"
   xmlns="http://www.w3.org/2000/svg"
   xmlns:svg="http://www.w3.org/2000/svg"><defs
   id="defs854" /><sodipodi:namedview
   id="namedview852"
   pagecolor="#ffffff"
   bordercolor="#666666"
   borderopacity="1.0"
   inkscape:showpageshadow="2"
   inkscape:pageopacity="0.0"
   inkscape:pagecheckerboard="0"
   inkscape:deskcolor="#d1d1d1"
   showgrid="false"
   inkscape:zoom="0.53125"
   inkscape:cx="271.05882"
   inkscape:cy="520.47059"
   inkscape:window-width="1920"
   inkscape:window-height="1016"
   inkscape:window-x="0"
   inkscape:window-y="27"
   inkscape:window-maximized="1"
   inkscape:current-layer="SVGRepo_iconCarrier" />

<g
   id="SVGRepo_bgCarrier"
   stroke-width="0" />

<g
   id="SVGRepo_tracerCarrier"
   stroke-linecap="round"
   stroke-linejoin="round" />

<g
   id="SVGRepo_iconCarrier"
   transform="matrix(1.0004367,0,0,1.0004367,-47.587971,-36.295586)"
   style="stroke-width:0.999563">      <path
   style="fill:#000000;stroke-width:0.999562"
   d="m 509.29078,458.81491 -29.44365,-25.51804 c -3.27747,-2.83976 -8.23614,-2.48469 -11.07513,0.79048 -2.83976,3.27747 -2.48546,8.23538 0.79124,11.07514 l 13.53764,11.73246 h -35.09103 v -60.51111 l 47.93231,7.0355 c 4.28833,0.63437 8.27899,-2.33777 8.90877,-6.62764 0.62979,-4.28986 -2.33853,-8.27899 -6.62839,-8.90877 l -50.21269,-7.37067 V 182.08882 c 0,-4.33578 -3.51545,-7.852 -7.852,-7.852 h -58.8873 c -4.33654,0 -7.852,3.51622 -7.852,7.852 v 207.95205 l -19.62884,7.94918 V 271.59746 c 0,-4.33578 -3.51546,-7.852 -7.852,-7.852 h -58.8873 c -4.33655,0 -7.852,3.51622 -7.852,7.852 v 133.03017 l -19.62885,-4.66635 v -33.35932 c 0,-4.33578 -3.51545,-7.852 -7.85199,-7.852 h -58.88578 c -4.33654,0 -7.85199,3.51622 -7.85199,7.852 v 36.7156 l -19.62885,7.07147 V 155.63491 l 11.73247,13.53763 c 1.55341,1.7914 3.73813,2.70967 5.93663,2.70967 1.82201,0 3.65319,-0.63131 5.13927,-1.91842 3.2767,-2.83976 3.631,-7.7992 0.79048,-11.07437 l -25.51804,-29.44365 c -0.0329,-0.0383 -0.0643,-0.0681 -0.0972,-0.10331 -0.82951,-0.92286 -1.87711,-1.65748 -3.09229,-2.11049 -3.06932,-1.14631 -6.53045,-0.26248 -8.67767,2.21303 l -25.51727,29.44365 c -2.839,3.27747 -2.4847,8.23538 0.79201,11.07514 3.2767,2.83976 8.23537,2.48546 11.07513,-0.79048 l 11.73323,-13.53764 v 301.26081 h -21.59165 c -4.33655,0 -7.852,3.51546 -7.852,7.85124 0,4.33577 3.51545,7.85199 7.852,7.85199 H 149.6477 V 491.836 c 0,4.33577 3.51546,7.85199 7.852,7.85199 4.33654,0 7.852,-3.51622 7.852,-7.85199 v -19.23629 h 317.74992 l -13.53763,11.73247 c -3.27671,2.83976 -3.63101,7.79919 -0.79048,11.07513 1.55341,1.7914 3.73813,2.70967 5.93663,2.70967 1.82201,0 3.6532,-0.63131 5.13927,-1.91842 l 29.44365,-25.51804 c 0.0551,-0.0474 0.0995,-0.0918 0.14922,-0.13774 0.90144,-0.82185 1.61922,-1.85721 2.06535,-3.05096 1.14401,-3.07086 0.26017,-6.52968 -2.21687,-8.67691 z M 432.30662,189.94081 V 299.0783 H 389.12255 V 189.94081 Z m -43.18407,124.84072 h 43.18407 v 63.42816 l -19.66711,-2.8872 c -1.382,-0.20585 -2.79308,-0.0344 -4.08784,0.49051 l -19.42989,7.86883 v -68.9003 z M 373.41932,406.983 v 49.91348 h -19.62885 v -41.9643 z M 338.08648,279.44945 v 79.30127 H 294.9024 v -79.30127 z m -43.18331,95.0045 h 43.18407 v 29.89437 l -22.21531,8.99678 -20.96876,-4.98392 z m -15.70323,46.31539 v 36.12714 h -19.62885 v -40.7935 z m -78.51691,-46.31539 h 43.18407 v 21.77608 l -21.34678,-5.07346 c -1.48301,-0.35354 -3.04102,-0.26553 -4.47735,0.25099 l -17.36071,6.25421 v -23.20705 h 7.7e-4 z m -35.33208,52.62698 19.62885,-7.07146 v 36.88701 h -19.62885 z m 35.33208,29.81555 v -42.54434 l 20.48207,-7.37832 22.702,5.39638 v 44.52552 h -43.18407 z m 94.22014,0 v -32.39513 l 19.77653,4.70079 c 1.58709,0.37726 3.25145,0.251 4.76278,-0.36119 l 18.64553,-7.55049 v 35.60526 h -43.18484 z m 94.21938,0 v -56.27252 l 23.34708,-9.45515 19.83699,2.91169 v 62.81598 z"
   id="path848" /> </g>

</svg>
