<?xml version="1.0" encoding="UTF-8" standalone="no"?>
<!-- Uploaded to: SVG Repo, www.svgrepo.com, Generator: SVG Repo Mixer Tools -->

<svg
   fill="#000000"
   version="1.1"
   id="Layer_1"
   width="800px"
   height="800px"
   viewBox="0 0 260 249"
   enable-background="new 0 0 260 249"
   xml:space="preserve"
   sodipodi:docname="environment.svg"
   inkscape:version="1.2.2 (b0a8486, 2022-12-01)"
   xmlns:inkscape="http://www.inkscape.org/namespaces/inkscape"
   xmlns:sodipodi="http://sodipodi.sourceforge.net/DTD/sodipodi-0.dtd"
   xmlns="http://www.w3.org/2000/svg"
   xmlns:svg="http://www.w3.org/2000/svg"><defs
   id="defs1388" /><sodipodi:namedview
   id="namedview1386"
   pagecolor="#ffffff"
   bordercolor="#666666"
   borderopacity="1.0"
   inkscape:showpageshadow="2"
   inkscape:pageopacity="0.0"
   inkscape:pagecheckerboard="0"
   inkscape:deskcolor="#d1d1d1"
   showgrid="false"
   inkscape:zoom="0.37565048"
   inkscape:cx="-559.0303"
   inkscape:cy="336.74921"
   inkscape:window-width="1920"
   inkscape:window-height="1016"
   inkscape:window-x="0"
   inkscape:window-y="27"
   inkscape:window-maximized="1"
   inkscape:current-layer="Layer_1" />
<path
   d="m 180.66786,205.02279 -3.10211,-41.12048 12.34625,-21.97135 c 1.86593,0.38874 3.72408,0.54423 5.66776,0.54423 15.37839,0 27.88014,-12.50174 27.88014,-27.88014 0,-3.9651 -0.85522,-7.68919 -2.25467,-11.02455 2.33241,-3.10988 3.65412,-7.144962 3.65412,-11.498803 0,-11.491032 -9.32189,-20.812917 -20.81292,-20.812917 -3.26538,0 -6.36749,0.777471 -9.16639,2.099173 -0.59088,-2.32464 -1.67157,-4.470462 -3.11766,-6.344169 -0.13995,4.486012 -1.29837,8.878727 -3.40532,12.789409 1.24395,3.731864 1.86593,7.689195 1.86593,11.724273 0,20.579674 -16.77784,37.357524 -37.34974,37.357524 -1.01071,0 -1.94368,-0.0778 -2.95439,-0.1555 l -3.73186,6.66293 c 2.78334,1.20508 5.86213,1.87371 9.08864,1.87371 1.08846,0 2.17692,-0.0778 3.18763,-0.23324 l 9.93609,18.41053 c -0.20992,10.12268 -2.69783,41.65694 -3.23428,48.29654 -7.22271,-0.4587 -14.84194,-0.78524 -22.74882,-0.95629 -0.51313,-0.008 -1.03404,-0.0155 -1.56272,-0.0311 -1.57049,-0.0233 -3.15654,-0.0466 -4.75813,-0.0622 l -3.34313,-56.18011 13.7457,-24.53701 c 2.02143,0.38873 4.1206,0.62198 6.28975,0.62198 17.24432,0 31.14552,-13.97895 31.14552,-31.145521 0,-4.346066 -0.93297,-8.536639 -2.56566,-12.34625 2.56566,-3.72409 4.04285,-8.233425 4.04285,-13.123722 0,-12.812734 -10.41034,-23.215305 -23.22308,-23.215305 -3.64634,0 -7.06722,0.777472 -10.16933,2.32464 -2.25467,-8.847627 -11.02455,-15.829323 -21.1239,-15.829323 -9.85834,0 -17.85853,6.59296 -20.19094,15.129599 -2.02143,-0.769697 -4.19058,-1.158433 -6.52299,-1.158433 -10.410355,0 -18.791495,8.458892 -18.791495,18.791491 0,4.346067 1.46942,8.381145 3.95733,11.568778 -4.34607,4.579309 -6.98947,10.721335 -6.98947,17.555311 0,14.126665 11.41328,25.547725 25.547725,25.547725 1.24395,0 2.41016,-0.0777 3.57637,-0.23325 l 11.10229,20.57191 c -0.27211,10.96235 -2.89219,54.60961 -3.56859,65.69636 -1.04959,0.0155 -2.09917,0.0389 -3.14099,0.0544 v 0.0466 c -7.30046,0.17882 -14.35212,0.48981 -21.053935,0.91742 -0.56755,-7.09832 -3.01659,-38.12721 -3.21873,-48.07108 l 9.936095,-18.40276 c 1.01071,0.14772 2.09917,0.23325 3.18763,0.23325 3.54527,0 6.90395,-0.80857 9.88167,-2.25467 l -6.70181,-12.34626 c -17.547545,0 -31.759725,-14.28993 -31.759725,-31.759715 0,-6.522987 1.94368,-12.742761 5.590021,-18.021794 -1.78041,-3.4131 -2.63563,-7.222711 -2.63563,-11.102295 0,-0.575329 0.0233,-1.150658 0.0544,-1.718213 -6.911731,1.617142 -12.369581,6.764004 -14.03337,13.286991 -2.7989,-1.399449 -5.82326,-2.091398 -9.16639,-2.091398 -11.49103,0 -20.812921,9.314111 -20.812921,20.805142 0,4.1206 1.32171,8.155682 3.65412,11.498802 -1.4772,3.4131 -2.25467,7.14497 -2.25467,11.02455 0,15.3784 12.50175,27.88015 27.88014,27.88015 1.94368,0 3.80183,-0.23325 5.66777,-0.54423 l 12.34625,21.97912 -3.08657,40.87946 c -29.24848,2.96994 -48.864089,8.43557 -48.864089,14.71754 H 229.51637 c 0,-6.28975 -19.59228,-11.7476 -48.84854,-14.71754 z m -98.078055,-50.82332 -7.37821,-13.59021 c 2.72116,-1.16621 5.27904,-2.72115 7.45596,-4.65706 0.0777,-0.0777 0.15549,-0.0777 0.23324,-0.15549 -0.0777,2.94662 -0.23324,13.97894 -0.31099,18.40276 z m 8.62216,-19.72446 h 0.23324 c 1.4772,0.77747 3.10212,1.39945 4.81255,1.78818 l -4.89029,9.7806 c -0.0778,-2.72115 -0.1555,-9.85835 -0.1555,-11.56878 z m 31.301015,-8.28008 -5.4423,-10.8846 c 1.86593,-0.46649 3.73186,-1.16621 5.36456,-2.02143 h 0.23324 c 0,1.86593 -0.0777,9.87389 -0.1555,12.90603 z m 9.48516,-11.42883 c 0.15549,0.0778 0.23324,0.0778 0.31099,0.15549 2.4879,2.17692 5.2868,3.88736 8.31894,5.20906 l -8.2412,15.1607 c -0.15549,-4.97582 -0.23324,-17.33762 -0.38873,-20.52525 z m 36.63446,31.27769 -4.89029,-9.7806 c 1.71043,-0.38873 3.33535,-1.01071 4.81255,-1.78818 h 0.23324 c -0.0777,1.71043 -0.0777,8.84763 -0.1555,11.56878 z m 8.46667,-10.24708 c 0.0778,0.0778 0.15549,0.0778 0.23324,0.15549 2.17692,1.93591 4.7348,3.49085 7.45595,4.65706 l -7.3782,13.59021 c -0.0778,-4.42382 -0.23324,-15.45614 -0.31099,-18.40276 z"
   id="path1383"
   style="stroke-width:1" />
</svg>
