<?xml version="1.0" encoding="UTF-8" standalone="no"?>
<!-- Uploaded to: SVG Repo, www.svgrepo.com, Generator: SVG Repo Mixer Tools -->

<svg
   fill="#000000"
   height="800px"
   width="800px"
   version="1.1"
   id="Capa_1"
   viewBox="0 0 383.594 383.594"
   xml:space="preserve"
   sodipodi:docname="islam.svg"
   inkscape:version="1.2.2 (b0a8486, 2022-12-01)"
   xmlns:inkscape="http://www.inkscape.org/namespaces/inkscape"
   xmlns:sodipodi="http://sodipodi.sourceforge.net/DTD/sodipodi-0.dtd"
   xmlns="http://www.w3.org/2000/svg"
   xmlns:svg="http://www.w3.org/2000/svg"><defs
   id="defs1610" /><sodipodi:namedview
   id="namedview1608"
   pagecolor="#ffffff"
   bordercolor="#666666"
   borderopacity="1.0"
   inkscape:showpageshadow="2"
   inkscape:pageopacity="0.0"
   inkscape:pagecheckerboard="0"
   inkscape:deskcolor="#d1d1d1"
   showgrid="false"
   inkscape:zoom="0.53125"
   inkscape:cx="94.117647"
   inkscape:cy="452.70588"
   inkscape:window-width="1920"
   inkscape:window-height="1016"
   inkscape:window-x="0"
   inkscape:window-y="27"
   inkscape:window-maximized="1"
   inkscape:current-layer="Capa_1" />
<path
   d="m 336.14559,199.24934 c 0,-1.55412 -0.84613,-2.89867 -2.09414,-3.63335 5.11447,-4.69848 8.28944,-10.13241 8.28944,-17.88812 0,-22.86052 -27.86747,-27.36277 -27.86747,-37.87822 0,10.51545 -27.86746,15.0177 -27.86746,37.87822 0,7.75492 3.17418,13.18886 8.28944,17.88733 -1.24801,0.73468 -2.09414,2.07845 -2.09414,3.63414 0,2.25662 1.7684,4.08232 3.99519,4.2032 v 22.58737 c -2.22679,0.12009 -3.99519,1.94658 -3.99519,4.20319 0,2.25741 1.7684,4.08546 3.99519,4.20556 v 11.79328 h -52.24129 v -17.20132 h -5.99593 v -11.84351 h -0.49685 c 10.56961,-10.29254 17.04433,-22.25614 17.04433,-38.95747 0,-47.14252 -52.15652,-59.92715 -61.78738,-79.746925 1.69149,0.420712 3.43399,0.648336 5.1914,0.648336 6.565,0 12.69672,-2.923007 16.82221,-8.019431 1.43481,-1.776253 2.57843,-3.754228 3.39787,-5.880551 l 0.12716,-0.330447 -0.29748,0.193088 c -3.47009,2.248769 -7.50061,3.437908 -11.65514,3.437908 -4.87351,0 -9.64969,-1.693052 -13.45023,-4.766762 -7.2196,-5.846799 -9.84356,-15.601667 -6.52731,-24.274929 l 0.12637,-0.329662 -0.2967,0.192303 c -1.90733,1.237804 -3.60431,2.767594 -5.04305,4.546202 -3.63492,4.489688 -5.30442,10.125346 -4.69926,15.870107 0.60438,5.74476 3.41201,10.910257 7.90248,14.544393 1.73701,1.405775 3.68359,2.510144 5.74398,3.314677 -8.5155,20.315843 -62.17513,32.784933 -62.17513,80.600903 0,16.70055 6.47238,28.66494 17.04277,38.95747 h -0.49685 v 11.84352 h -5.99436 v 17.20131 H 86.795192 v -11.84587 c 2.22915,-0.12009 4.00305,-1.94736 4.00305,-4.20319 0,-2.25662 -1.7739,-4.08389 -4.00305,-4.2032 v -22.58894 c 2.22915,-0.12009 4.00305,-1.94658 4.00305,-4.2032 0,-1.55334 -0.84928,-2.8971 -2.09964,-3.631 5.11291,-4.6969 8.28944,-10.13084 8.28944,-17.88654 0,-22.86053 -27.8706,-27.36591 -27.8706,-37.88214 0,10.51544 -27.86433,15.02161 -27.86433,37.88214 0,7.75649 3.17653,13.19042 8.29101,17.88654 -1.24958,0.73468 -2.09728,2.07766 -2.09728,3.631 0,2.25583 1.77233,4.08232 3.99834,4.2032 v 22.58894 c -2.22601,0.12088 -3.99834,1.94736 -3.99834,4.2032 0,2.25504 1.77233,4.08232 3.99834,4.20319 v 11.84587 h -0.0243 v 78.18259 h 34.71424 V 294.2816 c 0,-12.51225 17.927358,-20.70986 17.927358,-20.70986 0,0 17.92579,8.19682 17.92579,20.70986 v 30.14214 h 44.67083 v -43.03037 c 0,-17.54432 25.13833,-29.03776 25.13833,-29.03776 0,0 25.13676,11.49423 25.13676,29.03776 v 43.03037 h 44.67084 V 294.2816 c 0,-12.51225 17.92578,-20.70986 17.92578,-20.70986 0,0 17.92736,8.19682 17.92736,20.70986 v 30.14214 h 34.71424 v -78.1818 h -0.0228 v -11.79328 c 2.22601,-0.11931 3.99677,-1.94737 3.99677,-4.20556 0,-2.25661 -1.77076,-4.08389 -3.99677,-4.20319 v -22.58659 c 2.22522,-0.12009 3.99598,-1.94736 3.99598,-4.20398 z"
   id="path1605"
   style="stroke-width:1" />
</svg>
