<?xml version="1.0" encoding="UTF-8" standalone="no"?>
<!-- Uploaded to: SVG Repo, www.svgrepo.com, Generator: SVG Repo Mixer Tools -->

<svg
   version="1.1"
   id="_x32_"
   width="800px"
   height="800px"
   viewBox="0 0 512 512"
   xml:space="preserve"
   sodipodi:docname="military.svg"
   inkscape:version="1.2.2 (b0a8486, 2022-12-01)"
   xmlns:inkscape="http://www.inkscape.org/namespaces/inkscape"
   xmlns:sodipodi="http://sodipodi.sourceforge.net/DTD/sodipodi-0.dtd"
   xmlns="http://www.w3.org/2000/svg"
   xmlns:svg="http://www.w3.org/2000/svg"><defs
   id="defs1838" /><sodipodi:namedview
   id="namedview1836"
   pagecolor="#ffffff"
   bordercolor="#666666"
   borderopacity="1.0"
   inkscape:showpageshadow="2"
   inkscape:pageopacity="0.0"
   inkscape:pagecheckerboard="0"
   inkscape:deskcolor="#d1d1d1"
   showgrid="false"
   inkscape:zoom="0.53125"
   inkscape:cx="-105.41176"
   inkscape:cy="426.35294"
   inkscape:window-width="1920"
   inkscape:window-height="1016"
   inkscape:window-x="0"
   inkscape:window-y="27"
   inkscape:window-maximized="1"
   inkscape:current-layer="_x32_" />
<style
   type="text/css"
   id="style1809">
<![CDATA[
	.st0{fill:#000000;}
]]>
</style>
<g
   id="g1833"
   transform="matrix(0.79269609,0,0,0.88665241,53.069686,29.017426)"
   style="stroke-width:1.1928">
	<path
   class="st0"
   d="m 410.052,302.938 c -4.578,-3.109 -9.672,-5.563 -15.094,-7.266 -5.406,-1.688 -11.188,-2.594 -17.125,-2.594 H 93.239 c -7.922,0 -15.531,1.609 -22.422,4.547 -10.359,4.391 -19.125,11.688 -25.344,20.859 -3.109,4.594 -5.578,9.672 -7.266,15.109 -1.688,5.406 -2.609,11.172 -2.609,17.109 0,3.828 0.469,7.531 1.281,11.016 1.438,6.141 3.953,11.609 6.938,16.406 4.484,7.219 10,13 15.266,17.766 2.641,2.375 5.234,4.5 7.625,6.375 2.391,1.875 4.594,3.484 6.422,4.828 1.141,0.828 2.109,1.563 2.859,2.125 l 0.094,0.078 0.281,0.203 0.094,0.078 8.469,6.031 v 0.016 c 7.656,5.438 16.094,9.594 25.031,12.375 8.922,2.781 18.359,4.188 27.969,4.188 h 195.234 c 9.609,0 19.031,-1.406 27.969,-4.188 8.938,-2.782 17.375,-6.938 25.016,-12.391 l 8.484,-6.047 0.281,-0.203 0.094,-0.078 0.094,-0.063 c 0.734,-0.563 1.719,-1.297 2.844,-2.125 2.781,-2.047 6.422,-4.719 10.328,-7.984 2.938,-2.422 6,-5.203 9.031,-8.344 4.531,-4.703 8.969,-10.25 12.406,-16.906 1.703,-3.344 3.156,-6.953 4.172,-10.828 1.031,-3.875 1.594,-8.016 1.594,-12.328 0,-7.906 -1.609,-15.516 -4.547,-22.422 -4.375,-10.358 -11.672,-19.124 -20.875,-25.342 z m -28.235,88.906 -8.359,5.969 c -11.719,8.344 -25.906,12.516 -40.297,12.516 H 137.927 c -14.391,0 -28.594,-4.172 -40.313,-12.516 l -8.344,-5.969 c -9.016,-6.875 -31.797,-21.406 -31.797,-41.141 0,-19.719 16.047,-35.766 35.766,-35.766 h 284.594 c 19.734,0 35.781,16.047 35.781,35.766 0,19.735 -22.797,34.266 -31.797,41.141 z"
   id="path1811"
   style="stroke-width:1.1928" />
	<path
   class="st0"
   d="m 376.255,331.625 c -10.984,0 -19.891,8.906 -19.891,19.875 0,10.984 8.906,19.875 19.891,19.875 10.969,0 19.859,-8.891 19.859,-19.875 0,-10.969 -8.89,-19.875 -19.859,-19.875 z"
   id="path1813"
   style="stroke-width:1.1928" />
	<path
   class="st0"
   d="m 94.833,331.625 c -10.984,0 -19.875,8.906 -19.875,19.875 0,10.984 8.891,19.875 19.875,19.875 10.984,0 19.875,-8.891 19.875,-19.875 0,-10.969 -8.891,-19.875 -19.875,-19.875 z"
   id="path1815"
   style="stroke-width:1.1928" />
	<path
   class="st0"
   d="m 161.599,331.156 c -17.375,0 -31.469,14.094 -31.469,31.484 0,17.39 14.094,31.469 31.469,31.469 17.391,0 31.484,-14.078 31.484,-31.469 0,-17.391 -14.094,-31.484 -31.484,-31.484 z"
   id="path1817"
   style="stroke-width:1.1928" />
	<path
   class="st0"
   d="m 235.942,331.156 c -17.391,0 -31.484,14.094 -31.484,31.484 0,17.39 14.094,31.469 31.484,31.469 17.375,0 31.469,-14.078 31.469,-31.469 0,-17.391 -14.094,-31.484 -31.469,-31.484 z"
   id="path1819"
   style="stroke-width:1.1928" />
	<path
   class="st0"
   d="m 310.271,331.156 c -17.391,0 -31.484,14.094 -31.484,31.484 0,17.39 14.094,31.469 31.484,31.469 17.375,0 31.469,-14.078 31.469,-31.469 0,-17.391 -14.094,-31.484 -31.469,-31.484 z"
   id="path1821"
   style="stroke-width:1.1928" />
	<path
   class="st0"
   d="m 270.489,93.328 c 0,-7.469 -6.047,-13.516 -13.516,-13.516 h -36.656 -30.953 c -49.781,0 -90.141,40.359 -90.141,90.125 v 16.641 h 171.266 z"
   id="path1823"
   style="stroke-width:1.1928" />
	<path
   class="st0"
   d="m 306.067,155.766 v -42.844 c 0,-3.734 -3.016,-6.75 -6.75,-6.75 h -18.469 v 56.344 h 18.469 c 3.735,0 6.75,-3.016 6.75,-6.75 z"
   id="path1825"
   style="stroke-width:1.1928" />
	<rect
   x="317.03601"
   y="119.906"
   class="st0"
   width="125.297"
   height="28.875"
   id="rect1827"
   style="stroke-width:1.1928" />
	<path
   class="st0"
   d="m 509.896,113.938 c -1.344,-1.297 -3.156,-1.953 -5.016,-1.859 l -51.063,2.703 v 39.109 l 51.063,2.719 c 1.859,0.109 3.672,-0.563 5.016,-1.844 1.344,-1.281 2.109,-3.047 2.109,-4.906 v -31.016 c 0,-1.86 -0.766,-3.641 -2.109,-4.906 z"
   id="path1829"
   style="stroke-width:1.1928" />
	<path
   class="st0"
   d="m 425.349,230.406 c -12.656,-18 -33.297,-28.719 -55.297,-28.719 H 80.005 c -32.688,0 -60.703,23.406 -66.516,55.594 L 0.177,321.469 c -0.547,2.984 0.156,6.063 1.906,8.531 1.75,2.468 4.438,4.125 7.438,4.594 l 3.719,0.594 c 5.813,0.906 11.359,-2.813 12.719,-8.547 l 1.672,-7.078 C 38.615,294.485 63.662,276.938 92.74,276.938 h 289.563 c 24.5,0 46.141,12.438 58.922,31.344 l 17.719,25.219 c 3.484,4.938 10.266,6.25 15.344,2.969 l 12.422,-8.031 c 2.578,-1.656 4.359,-4.297 4.938,-7.313 0.594,-3.016 -0.078,-6.125 -1.844,-8.641 z"
   id="path1831"
   style="stroke-width:1.1928" />
</g>
</svg>
