<?xml version="1.0" encoding="UTF-8" standalone="no"?>
<!-- Uploaded to: SVG Repo, www.svgrepo.com, Generator: SVG Repo Mixer Tools -->

<svg
   fill="#000000"
   width="800px"
   height="800px"
   viewBox="0 0 50 50"
   version="1.2"
   overflow="inherit"
   id="svg2028"
   sodipodi:docname="political.svg"
   inkscape:version="1.2.2 (b0a8486, 2022-12-01)"
   xmlns:inkscape="http://www.inkscape.org/namespaces/inkscape"
   xmlns:sodipodi="http://sodipodi.sourceforge.net/DTD/sodipodi-0.dtd"
   xmlns="http://www.w3.org/2000/svg"
   xmlns:svg="http://www.w3.org/2000/svg">
  <defs
     id="defs2032" />
  <sodipodi:namedview
     id="namedview2030"
     pagecolor="#ffffff"
     bordercolor="#666666"
     borderopacity="1.0"
     inkscape:showpageshadow="2"
     inkscape:pageopacity="0.0"
     inkscape:pagecheckerboard="0"
     inkscape:deskcolor="#d1d1d1"
     showgrid="false"
     inkscape:zoom="0.53125"
     inkscape:cx="-86.588235"
     inkscape:cy="465.88235"
     inkscape:window-width="1920"
     inkscape:window-height="1016"
     inkscape:window-x="0"
     inkscape:window-y="27"
     inkscape:window-maximized="1"
     inkscape:current-layer="svg2028" />
  <path
     d="M 14.553146,23.125236 H 16.7527 v 14.99811 h 3.29892 V 25 h 3.29892 v 13.123346 h 3.29892 V 25 h 3.29892 v 13.123346 h 3.298919 v -14.99811 h 2.198731 c 0.607,0 1.100189,-0.689913 1.100189,-1.311396 0,-0.37589 -0.182265,-0.799587 -0.457725,-1.003937 l 0.0016,-0.04875 -0.01732,-0.03468 0.110514,-0.03093 -10.358609,-6.063915 V 12.8581 c 1.64946,0.992687 3.258508,-0.717098 5.77311,0.31121 V 9.2519841 C 29.081577,8.2246137 27.474178,9.933461 25.824718,8.9407734 V 8.6895551 c 0,-0.3102734 -0.520405,-0.5624291 -0.824729,-0.5624291 -0.304326,0 -0.824731,0.2521557 -0.824731,0.5624291 v 5.9420639 l -10.357783,6.051737 0.223501,0.01969 0.237523,0.0104 v 0.0018 c -0.82473,0.204349 -0.639991,0.721785 -0.639991,1.097675 -8.24e-4,0.62242 0.307625,1.312334 0.914626,1.312334 z m 1.374824,15.935491 -2.47419,2.812147 h 23.092439 l -2.47419,-2.812147 z M 34.072029,24.062618 v 14.060728 h 0.729886 l 0.32247,0.518372 2.19873,2.342518 0.77772,0.888638 h 6.692684 V 24.062618 Z m 4.94838,11.248582 h -2.47419 v -2.812146 h 2.47419 z m 0,-5.624291 h -2.47419 v -2.812145 h 2.47419 z m 3.29892,5.624291 h -1.64946 v -2.812146 h 1.64946 z m 0,-5.624291 h -1.64946 v -2.812145 h 1.64946 z M 15.19726,38.123346 h 0.73071 V 24.062618 H 5.2064808 V 41.872874 H 11.89834 l 0.776896,-0.7949 2.199554,-2.437193 z M 9.3301299,35.3112 H 7.6806698 v -2.812146 h 1.6494601 z m 0,-5.624291 H 7.6806698 V 26.874764 H 9.3301299 Z M 13.45378,35.3112 h -2.47419 v -2.812146 h 2.47419 z m 0,-5.624291 h -2.47419 v -2.812145 h 2.47419 z"
     id="path2026"
     style="stroke-width:0.999997" />
</svg>
