<?xml version="1.0" encoding="UTF-8" standalone="no"?>
<!-- Uploaded to: SVG Repo, www.svgrepo.com, Generator: SVG Repo Mixer Tools -->

<svg
   fill="#000000"
   height="800px"
   width="800px"
   version="1.1"
   id="Layer_1"
   viewBox="0 0 512 512"
   xml:space="preserve"
   sodipodi:docname="routes.svg"
   inkscape:version="1.2.2 (b0a8486, 2022-12-01)"
   xmlns:inkscape="http://www.inkscape.org/namespaces/inkscape"
   xmlns:sodipodi="http://sodipodi.sourceforge.net/DTD/sodipodi-0.dtd"
   xmlns="http://www.w3.org/2000/svg"
   xmlns:svg="http://www.w3.org/2000/svg"><defs
   id="defs2645" /><sodipodi:namedview
   id="namedview2643"
   pagecolor="#ffffff"
   bordercolor="#666666"
   borderopacity="1.0"
   inkscape:showpageshadow="2"
   inkscape:pageopacity="0.0"
   inkscape:pagecheckerboard="0"
   inkscape:deskcolor="#d1d1d1"
   showgrid="false"
   inkscape:zoom="0.53282018"
   inkscape:cx="-78.825844"
   inkscape:cy="554.59611"
   inkscape:window-width="1920"
   inkscape:window-height="1016"
   inkscape:window-x="0"
   inkscape:window-y="27"
   inkscape:window-maximized="1"
   inkscape:current-layer="Layer_1" />
<g
   id="g2640"
   transform="matrix(0.72805144,0,0,0.72805144,69.618831,69.619195)"
   style="stroke-width:1.37353">
	<g
   id="g2638"
   style="stroke-width:1.37353">
		<g
   id="g2636"
   style="stroke-width:1.37353">
			<path
   d="M 418.133,490.667 H 409.6 c -4.719,0 -8.533,3.814 -8.533,8.533 0,4.719 3.814,8.533 8.533,8.533 h 8.533 c 4.719,0 8.533,-3.814 8.533,-8.533 0,-4.719 -3.814,-8.533 -8.533,-8.533 z"
   id="path2590"
   style="stroke-width:1.37353" />
			<path
   d="m 327.992,490.667 h -16.316 c -4.719,0 -8.533,3.814 -8.533,8.533 0,4.719 3.814,8.533 8.533,8.533 h 16.316 c 4.719,0 8.533,-3.814 8.533,-8.533 0,-4.719 -3.815,-8.533 -8.533,-8.533 z"
   id="path2592"
   style="stroke-width:1.37353" />
			<path
   d="m 376.958,490.667 h -16.324 c -4.719,0 -8.533,3.814 -8.533,8.533 0,4.719 3.814,8.533 8.533,8.533 h 16.324 c 4.719,0 8.533,-3.814 8.533,-8.533 0,-4.719 -3.814,-8.533 -8.533,-8.533 z"
   id="path2594"
   style="stroke-width:1.37353" />
			<path
   d="m 226.044,344.477 c 3.43,2.731 6.272,6.059 8.448,9.865 1.579,2.756 4.454,4.309 7.424,4.309 1.434,0 2.884,-0.358 4.215,-1.118 4.096,-2.338 5.53,-7.552 3.191,-11.639 -3.26,-5.709 -7.518,-10.675 -12.646,-14.771 -3.712,-2.935 -9.071,-2.321 -11.989,1.357 -2.936,3.694 -2.33,9.062 1.357,11.997 z"
   id="path2596"
   style="stroke-width:1.37353" />
			<path
   d="m 40.523,484.767 c -3.627,-2.483 -6.707,-5.581 -9.156,-9.233 -2.637,-3.908 -7.936,-4.975 -11.844,-2.321 -3.917,2.628 -4.949,7.927 -2.321,11.836 3.669,5.461 8.277,10.103 13.688,13.798 1.476,1.015 3.149,1.493 4.813,1.493 2.722,0 5.402,-1.297 7.049,-3.712 2.661,-3.891 1.662,-9.199 -2.229,-11.861 z"
   id="path2598"
   style="stroke-width:1.37353" />
			<path
   d="M 83.167,490.667 H 66.842 c -4.719,0 -8.533,3.814 -8.533,8.533 0,4.719 3.814,8.533 8.533,8.533 h 16.324 c 4.719,0 8.533,-3.814 8.533,-8.533 0,-4.719 -3.813,-8.533 -8.532,-8.533 z"
   id="path2600"
   style="stroke-width:1.37353" />
			<path
   d="m 17.717,457.667 c 4.07,0 7.671,-2.918 8.397,-7.066 0.751,-4.309 2.313,-8.388 4.634,-12.1 2.492,-3.994 1.28,-9.259 -2.722,-11.759 -3.977,-2.483 -9.259,-1.263 -11.759,2.722 -3.482,5.589 -5.837,11.708 -6.963,18.202 -0.811,4.642 2.295,9.062 6.938,9.873 0.494,0.085 0.989,0.128 1.475,0.128 z"
   id="path2602"
   style="stroke-width:1.37353" />
			<path
   d="m 175.975,328.533 c 0,4.719 3.814,8.533 8.533,8.533 h 16.316 c 4.719,0 8.533,-3.814 8.533,-8.533 0,-4.719 -3.814,-8.533 -8.533,-8.533 h -16.316 c -4.718,0 -8.533,3.814 -8.533,8.533 z"
   id="path2604"
   style="stroke-width:1.37353" />
			<path
   d="m 122.908,413.867 c 0,-4.719 -3.814,-8.533 -8.533,-8.533 H 98.059 c -4.719,0 -8.533,3.814 -8.533,8.533 0,4.719 3.814,8.533 8.533,8.533 h 16.316 c 4.719,0 8.533,-3.814 8.533,-8.533 z"
   id="path2606"
   style="stroke-width:1.37353" />
			<path
   d="m 135.542,320 c -4.719,0 -8.533,3.814 -8.533,8.533 0,4.719 3.814,8.533 8.533,8.533 h 16.324 c 4.719,0 8.533,-3.814 8.533,-8.533 0,-4.719 -3.814,-8.533 -8.533,-8.533 z"
   id="path2608"
   style="stroke-width:1.37353" />
			<path
   d="m 65.408,422.4 c 4.719,0 8.533,-3.814 8.533,-8.533 0,-4.719 -3.814,-8.533 -8.533,-8.533 h -5.692 c -4.284,0.009 -8.525,0.538 -12.612,1.57 -4.565,1.152 -7.33,5.786 -6.178,10.359 0.973,3.874 4.446,6.443 8.269,6.443 0.691,0 1.399,-0.077 2.099,-0.256 2.722,-0.691 5.572,-1.041 8.439,-1.05 z"
   id="path2610"
   style="stroke-width:1.37353" />
			<path
   d="m 230.059,490.667 h -16.316 c -4.719,0 -8.533,3.814 -8.533,8.533 0,4.719 3.814,8.533 8.533,8.533 h 16.316 c 4.719,0 8.533,-3.814 8.533,-8.533 0,-4.719 -3.814,-8.533 -8.533,-8.533 z"
   id="path2612"
   style="stroke-width:1.37353" />
			<path
   d="m 248.275,373.4 c -4.565,-1.169 -9.207,1.604 -10.368,6.187 -1.075,4.25 -2.935,8.201 -5.513,11.733 -2.782,3.797 -1.954,9.139 1.852,11.921 1.519,1.109 3.277,1.638 5.026,1.638 2.637,0 5.231,-1.203 6.904,-3.499 3.874,-5.299 6.664,-11.23 8.286,-17.613 1.143,-4.564 -1.613,-9.207 -6.187,-10.367 z"
   id="path2614"
   style="stroke-width:1.37353" />
			<path
   d="M 279.025,490.667 H 262.7 c -4.719,0 -8.533,3.814 -8.533,8.533 0,4.719 3.814,8.533 8.533,8.533 h 16.324 c 4.719,0 8.533,-3.814 8.533,-8.533 0,-4.719 -3.813,-8.533 -8.532,-8.533 z"
   id="path2616"
   style="stroke-width:1.37353" />
			<path
   d="m 171.875,413.867 c 0,-4.719 -3.814,-8.533 -8.533,-8.533 h -16.324 c -4.719,0 -8.533,3.814 -8.533,8.533 0,4.719 3.814,8.533 8.533,8.533 h 16.324 c 4.719,0 8.533,-3.814 8.533,-8.533 z"
   id="path2618"
   style="stroke-width:1.37353" />
			<path
   d="m 132.125,490.667 h -16.316 c -4.719,0 -8.533,3.814 -8.533,8.533 0,4.719 3.814,8.533 8.533,8.533 h 16.316 c 4.719,0 8.533,-3.814 8.533,-8.533 0,-4.719 -3.814,-8.533 -8.533,-8.533 z"
   id="path2620"
   style="stroke-width:1.37353" />
			<path
   d="m 181.092,490.667 h -16.316 c -4.719,0 -8.533,3.814 -8.533,8.533 0,4.719 3.814,8.533 8.533,8.533 h 16.316 c 4.719,0 8.533,-3.814 8.533,-8.533 0,-4.719 -3.814,-8.533 -8.533,-8.533 z"
   id="path2622"
   style="stroke-width:1.37353" />
			<path
   d="m 220.675,411.742 c -0.828,-4.634 -5.171,-7.723 -9.882,-6.929 -1.98,0.35 -3.994,0.521 -5.99,0.521 h -8.823 c -4.71,0 -8.533,3.814 -8.533,8.533 0,4.719 3.823,8.533 8.533,8.533 h 8.823 c 2.978,0 5.99,-0.256 8.943,-0.777 4.634,-0.819 7.74,-5.239 6.929,-9.881 z"
   id="path2624"
   style="stroke-width:1.37353" />
			<path
   d="m 93.867,320 c -4.719,0 -8.533,3.814 -8.533,8.533 0,4.719 3.814,8.533 8.533,8.533 h 8.533 c 4.719,0 8.533,-3.814 8.533,-8.533 0,-4.719 -3.814,-8.533 -8.533,-8.533 z"
   id="path2626"
   style="stroke-width:1.37353" />
			<path
   d="M 93.867,132.267 C 112.692,132.267 128,116.958 128,98.134 128,79.309 112.691,64 93.867,64 75.042,64 59.734,79.309 59.734,98.133 c -0.001,18.825 15.308,34.134 34.133,34.134 z"
   id="path2628"
   style="stroke-width:1.37353" />
			<path
   d="m 86.699,299.563 c 1.579,2.44 4.275,3.9 7.168,3.9 2.893,0 5.589,-1.459 7.168,-3.9 0.393,-0.606 39.68,-61.525 65.647,-117.547 13.124,-28.314 21.052,-45.406 21.052,-76.425 C 187.734,55.782 152.628,4.266 93.867,4.266 35.106,4.267 0,55.782 0,105.591 c 0,31.019 7.927,48.111 21.052,76.425 25.967,56.021 65.254,116.941 65.647,117.547 z m 7.168,-252.63 c 28.237,0 51.2,22.963 51.2,51.2 0,28.237 -22.963,51.2 -51.2,51.2 -28.237,0 -51.2,-22.963 -51.2,-51.2 0,-28.236 22.963,-51.2 51.2,-51.2 z"
   id="path2630"
   style="stroke-width:1.37353" />
			<path
   d="m 418.133,234.667 c -18.825,0 -34.133,15.309 -34.133,34.133 0,18.824 15.309,34.133 34.133,34.133 18.824,0 34.133,-15.309 34.133,-34.133 0,-18.824 -15.308,-34.133 -34.133,-34.133 z"
   id="path2632"
   style="stroke-width:1.37353" />
			<path
   d="m 418.133,174.933 c -58.761,0 -93.867,51.516 -93.867,101.325 0,31.019 7.927,48.111 21.052,76.425 25.967,56.021 65.254,116.941 65.647,117.547 1.579,2.441 4.275,3.9 7.168,3.9 2.893,0 5.589,-1.459 7.168,-3.9 0.393,-0.606 39.68,-61.525 65.647,-117.547 C 504.073,324.369 512,307.277 512,276.258 512,226.449 476.894,174.933 418.133,174.933 Z m 0,145.067 c -28.237,0 -51.2,-22.963 -51.2,-51.2 0,-28.237 22.963,-51.2 51.2,-51.2 28.237,0 51.2,22.963 51.2,51.2 0,28.237 -22.963,51.2 -51.2,51.2 z"
   id="path2634"
   style="stroke-width:1.37353" />
		</g>
	</g>
</g>
</svg>
