<?xml version="1.0" encoding="UTF-8" standalone="no"?>
<!-- Uploaded to: SVG Repo, www.svgrepo.com, Generator: SVG Repo Mixer Tools -->

<svg
   width="800px"
   height="800px"
   viewBox="0 0 100 100"
   aria-hidden="true"
   role="img"
   class="iconify iconify--gis"
   preserveAspectRatio="xMidYMid meet"
   version="1.1"
   id="svg519"
   sodipodi:docname="type-map.svg"
   inkscape:version="1.2.2 (b0a8486, 2022-12-01)"
   xml:space="preserve"
   xmlns:inkscape="http://www.inkscape.org/namespaces/inkscape"
   xmlns:sodipodi="http://sodipodi.sourceforge.net/DTD/sodipodi-0.dtd"
   xmlns="http://www.w3.org/2000/svg"
   xmlns:svg="http://www.w3.org/2000/svg"><defs
     id="defs523" /><sodipodi:namedview
     id="namedview521"
     pagecolor="#ffffff"
     bordercolor="#666666"
     borderopacity="1.0"
     inkscape:showpageshadow="2"
     inkscape:pageopacity="0.0"
     inkscape:pagecheckerboard="0"
     inkscape:deskcolor="#d1d1d1"
     showgrid="false"
     inkscape:zoom="3.0052038"
     inkscape:cx="216.957"
     inkscape:cy="235.75772"
     inkscape:window-width="1920"
     inkscape:window-height="1016"
     inkscape:window-x="0"
     inkscape:window-y="27"
     inkscape:window-maximized="1"
     inkscape:current-layer="svg519" /><path
     d="m 61.939375,16.014819 a 1.8880658,1.8880658 0 0 0 -0.777883,0.175214 L 38.041749,26.930106 14.922004,16.190787 a 1.8880658,1.8880658 0 0 0 -2.683319,1.712098 v 53.08486 a 1.8880658,1.8880658 0 0 0 1.092816,1.712098 l 23.914994,11.109375 a 1.8880658,1.8880658 0 0 0 0.81338,0.17597 1.8880658,1.8880658 0 0 0 0.779393,-0.17521 l 23.119744,-10.740075 23.11974,10.739315 a 1.8880658,1.8880658 0 0 0 2.682562,-1.712094 V 29.012265 A 1.8880658,1.8880658 0 0 0 86.668502,27.300167 L 62.75351,16.190787 a 1.8880658,1.8880658 0 0 0 -0.814135,-0.175968 z m 0.862469,4.361433 21.18334,9.840599 V 79.138147 L 63.082034,69.428202 62.802601,20.376252 Z M 60.537676,20.643602 60.817109,69.435 39.159483,79.49688 38.880805,30.704726 60.537676,20.644358 Z m -44.522855,0.21826 20.598795,9.568718 0.280189,49.05195 -20.878984,-9.701637 z"
     fill="#000000"
     fill-rule="evenodd"
     id="path3218"
     style="stroke-width:1;fill:#000000" /></svg>
