<?xml version="1.0" encoding="UTF-8" standalone="no"?>
<!-- Uploaded to: SVG Repo, www.svgrepo.com, Generator: SVG Repo Mixer Tools -->

<svg
   width="800px"
   height="800px"
   viewBox="0 0 100 100"
   aria-hidden="true"
   role="img"
   class="iconify iconify--gis"
   preserveAspectRatio="xMidYMid meet"
   version="1.1"
   id="svg293"
   sodipodi:docname="type-data.svg"
   inkscape:version="1.2.2 (b0a8486, 2022-12-01)"
   xmlns:inkscape="http://www.inkscape.org/namespaces/inkscape"
   xmlns:sodipodi="http://sodipodi.sourceforge.net/DTD/sodipodi-0.dtd"
   xmlns="http://www.w3.org/2000/svg"
   xmlns:svg="http://www.w3.org/2000/svg">
  <defs
     id="defs297" />
  <sodipodi:namedview
     id="namedview295"
     pagecolor="#ffffff"
     bordercolor="#666666"
     borderopacity="1.0"
     inkscape:showpageshadow="2"
     inkscape:pageopacity="0.0"
     inkscape:pagecheckerboard="0"
     inkscape:deskcolor="#d1d1d1"
     showgrid="false"
     inkscape:zoom="0.508125"
     inkscape:cx="90.528905"
     inkscape:cy="430.0123"
     inkscape:window-width="1920"
     inkscape:window-height="1016"
     inkscape:window-x="0"
     inkscape:window-y="27"
     inkscape:window-maximized="1"
     inkscape:current-layer="svg293" />
  <path
     d="m 15.903771,17.312194 a 4.9160246,5.1638523 0 0 0 -4.91603,5.163853 4.9160246,5.1638523 0 0 0 4.47113,5.138032 l 15.039347,41.207542 a 4.9160246,5.1638523 0 0 0 7.598946,6.541309 L 55.8096,78.552901 a 4.9160246,5.1638523 0 1 0 9.467034,-2.705859 L 80.897302,63.678424 a 4.9160246,5.1638523 0 1 0 3.426469,-9.079343 L 80.716639,27.728975 a 4.9160246,5.1638523 0 0 0 -2.64728,-9.514397 4.9160246,5.1638523 0 0 0 -4.560841,3.245481 L 20.409306,20.411796 a 4.9160246,5.1638523 0 0 0 -4.505535,-3.098311 z m 6.346587,7.007348 50.739519,1.004369 -17.830421,14.380038 a 4.9160246,5.1638523 0 0 0 -2.472761,-0.703575 4.9160246,5.1638523 0 0 0 -2.990172,1.068918 z m -3.07989,2.647765 28.651821,16.441707 a 4.9160246,5.1638523 0 0 0 0.763213,3.605658 L 35.414243,66.905831 c -0.589923,-0.154915 -1.13806,-0.08907 -1.689883,-0.05939 z m 56.615398,0.983713 a 4.9160246,5.1638523 0 0 0 1.302746,0.486694 l 3.693164,27.505259 c -0.0553,0.05163 -0.109381,0.104565 -0.161,0.158789 L 57.597804,44.352708 A 4.9160246,5.1638523 0 0 0 57.418369,42.766113 Z M 56.0935,47.888655 79.177923,59.666111 a 4.9037346,5.1509427 0 0 0 0.01721,0.513803 L 62.864098,72.907519 A 4.9160246,5.1638523 0 0 0 60.989864,72.354987 L 55.631397,48.29789 a 4.9160246,5.1638523 0 0 0 0.462106,-0.407944 z m -4.467437,1.319365 a 4.9160246,5.1638523 0 0 0 0.442442,0.08004 l 5.400253,24.257197 a 4.9160246,5.1638523 0 0 0 -1.001639,1.199304 l -17.156927,-3.09186 a 4.9160246,5.1638523 0 0 0 -0.835723,-2.589672 z"
     fill="#000000"
     id="path289"
     style="stroke-width:0.999999" />
  <g
     id="g313"
     transform="matrix(0.09107406,0,0,0.09107406,-92.406798,6.370894)"
     style="stroke-width:1.31122">
	<g
   id="g311"
   style="stroke-width:1.31122">
		<path
   d="m 587.189,42.891 c -251.765,0 -250.069,49.777 -250.069,49.777 v 138.337 c 46.761,-4.182 78.887,-11.315 99.643,-17.66 30.896,-9.449 43.254,-18.961 45.434,-20.792 4.639,-5.68 11.164,-8.57 18.082,-8.57 2.881,0 5.816,0.493 8.723,1.499 10.033,3.473 16.145,13.631 16.145,24.238 v 199.995 c 19.525,-9.69 40.525,-14.617 63.166,-14.689 6.012,0.287 12.48,0.682 21.482,1.856 8.049,1.553 15.299,3.007 22.793,5.636 14.734,5.142 29.074,12.438 41.898,22.846 23.062,18.236 43.092,46.461 47.125,79.766 0.664,5.482 -3.572,8.666 -8.912,7.26 -25.621,-6.744 -45.219,-8.074 -64.453,-9.537 l -30.977,-1.365 -31.209,-0.475 c -17.832,0.188 -39.225,0.295 -59.973,1.65 -0.312,0.018 -0.637,0.053 -0.941,0.072 -0.09,55.205 -12.475,107.135 -34.154,152.363 29.631,14.457 62.125,22.469 96.242,22.469 138.158,0 250.158,-130.961 250.158,-292.441 V 92.667 c -0.001,0 1.544,-49.776 -250.203,-49.776 z m 165.674,271.518 c -30.062,23.151 -73.361,20.952 -100.91,-6.596 -27.547,-27.548 -29.746,-70.846 -6.596,-100.909 3.369,-4.376 9.762,-4.34 13.666,-0.434 l 94.271,94.272 c 3.909,3.905 3.944,10.298 -0.431,13.667 z"
   id="path307"
   style="stroke-width:1.31122" />

		<path
   d="m 500.262,209.719 c 0,0 -45.561,49.786 -250.113,49.786 C 45.613,259.505 0,209.719 0,209.719 V 502.16 c 0,161.488 112.009,292.342 250.122,292.342 138.149,0 250.14,-130.852 250.14,-292.342 z M 79.226,472.904 c -5.523,0 -10.069,-4.496 -9.357,-9.971 4.887,-37.627 37.059,-66.69 76.018,-66.69 38.959,0 71.13,29.063 76.018,66.69 0.711,5.477 -3.834,9.971 -9.357,9.971 z m 305.238,98.908 c -4.08,33.207 -24.146,61.348 -47.154,79.66 -26.293,20.334 -55.646,30.25 -88.373,30.34 -6.03,-0.279 -12.438,-0.574 -21.492,-1.84 -8.058,-1.562 -15.309,-2.908 -22.802,-5.646 -14.726,-5.15 -29.057,-12.445 -41.853,-22.748 -23.04,-18.227 -43.111,-46.533 -47.157,-79.846 -0.666,-5.482 3.567,-8.666 8.908,-7.258 25.631,6.76 45.273,8.143 64.515,9.518 l 30.968,1.365 31.165,0.494 c 17.822,-0.09 39.224,-0.189 60.024,-1.652 19.242,-1.391 38.85,-2.783 64.364,-9.605 5.337,-1.426 9.561,1.738 8.887,7.218 z m 36.571,-98.908 H 287.714 c -5.522,0 -10.068,-4.496 -9.356,-9.971 4.888,-37.627 37.059,-66.69 76.018,-66.69 38.959,0 71.13,29.063 76.019,66.69 0.71,5.475 -3.836,9.971 -9.36,9.971 z"
   id="path309"
   style="stroke-width:1.31122" />

	</g>

</g>
</svg>
