<?xml version="1.0" encoding="iso-8859-1"?>
<!-- Uploaded to: SVG Repo, www.svgrepo.com, Generator: SVG Repo Mixer Tools -->
<svg fill="#000000" height="800px" width="800px" version="1.1" id="Layer_1" xmlns="http://www.w3.org/2000/svg" xmlns:xlink="http://www.w3.org/1999/xlink" 
	 viewBox="0 0 512 512" xml:space="preserve">
<g>
	<g>
		<path d="M503.467,460.693v-25.6c0-5.12-3.413-8.533-8.533-8.533h-17.067v-25.6c0-5.12-3.413-8.533-8.533-8.533h-17.067V204.693
			h17.067c5.12,0,8.533-3.413,8.533-8.533v-25.6h17.067c4.267,0,7.68-2.56,8.533-6.827s-0.853-7.68-4.267-9.387L260.267,34.88
			c-2.56-0.853-5.12-0.853-7.68,0L5.12,154.347c-3.413,1.707-5.12,5.973-4.267,9.387c0,4.267,3.413,6.827,7.68,6.827h25.6v25.6
			c0,5.12,3.413,8.533,8.533,8.533h17.067v187.733H42.667c-5.12,0-8.533,3.413-8.533,8.533v25.6H17.067
			c-5.12,0-8.533,3.413-8.533,8.533v25.6c-5.12,0-8.533,3.413-8.533,8.533c0,5.12,3.413,8.533,8.533,8.533h8.533h477.867h8.533
			c5.12,0,8.533-3.413,8.533-8.533C512,464.107,508.587,460.693,503.467,460.693z M51.2,187.627V170.56h409.6v17.067h-17.067H409.6
			h-51.2h-34.133h-51.2h-34.133h-51.2H153.6h-51.2H68.267H51.2z M401.067,204.693v187.733h-34.133V204.693H401.067z
			 M315.733,204.693v187.733H281.6V204.693H315.733z M230.4,204.693v187.733h-34.133V204.693H230.4z M145.067,204.693v187.733
			h-34.133V204.693H145.067z M460.8,426.56H51.2v-17.067h17.067H102.4h51.2h34.133h51.2h34.133h51.2H358.4h51.2h34.133H460.8V426.56
			z"/>
	</g>
</g>
</svg>