<?xml version="1.0" encoding="UTF-8" standalone="no"?>
<!-- Uploaded to: SVG Repo, www.svgrepo.com, Generator: SVG Repo Mixer Tools -->

<svg
   width="800px"
   height="800px"
   viewBox="0 0 100 100"
   aria-hidden="true"
   role="img"
   class="iconify iconify--gis"
   preserveAspectRatio="xMidYMid meet"
   version="1.1"
   id="svg184"
   sodipodi:docname="iberia.svg"
   xml:space="preserve"
   inkscape:version="1.2.2 (b0a8486, 2022-12-01)"
   xmlns:inkscape="http://www.inkscape.org/namespaces/inkscape"
   xmlns:sodipodi="http://sodipodi.sourceforge.net/DTD/sodipodi-0.dtd"
   xmlns="http://www.w3.org/2000/svg"
   xmlns:svg="http://www.w3.org/2000/svg"><defs
     id="defs188" /><sodipodi:namedview
     id="namedview186"
     pagecolor="#ffffff"
     bordercolor="#666666"
     borderopacity="1.0"
     inkscape:showpageshadow="2"
     inkscape:pageopacity="0.0"
     inkscape:pagecheckerboard="0"
     inkscape:deskcolor="#d1d1d1"
     showgrid="false"
     inkscape:zoom="0.74246212"
     inkscape:cx="253.21157"
     inkscape:cy="400.02041"
     inkscape:window-width="1920"
     inkscape:window-height="1043"
     inkscape:window-x="1920"
     inkscape:window-y="0"
     inkscape:window-maximized="1"
     inkscape:current-layer="svg184" /><g
     inkscape:label="Layer 1"
     id="layer1"
     transform="matrix(5.743181,0,0,5.743181,-58.370515,-345.32678)"
     style="stroke-width:0.0822612"><path
       d="m 12.968025,73.477555 -0.582083,0.423333 -0.740833,-0.238125 -0.714375,0.185209 0.238125,-1.322917 -0.07937,-1.031875 -0.635,-0.15875 -0.291042,-0.635 0.132292,-1.11125 0.582083,-0.608541 0.132292,-0.687917 0.3175,-1.005417 V 66.57193 l -0.238125,-0.608541 -0.05292,-0.582084 0.502708,-0.423333 0.582084,-0.238125 0.3175,0.820208 h 0.79375 l 0.238125,-0.211666 0.820208,0.05292 0.343958,0.846667 -0.635,0.449792 -0.07938,1.322916 -0.211666,0.238125 -0.07938,0.820209 -0.608542,0.132291 0.529167,1.005417 -0.423334,1.11125 0.47625,0.502708 -0.211666,0.449792 -0.529167,0.635 z"
       id="PT"
       name="Portugal"
       style="stroke-width:0.0217649" /><path
       d="m 20.82615,62.814847 0.529167,0.635 2.513541,0.767292 0.502709,-0.370417 1.534583,0.767292 1.561042,-0.211667 0.105833,0.978958 -1.296458,1.11125 -1.74625,0.370417 -0.132292,0.555625 -0.846667,0.926042 -0.529166,1.375833 0.529166,0.978958 -0.79375,0.740833 -0.3175,1.11125 -1.058333,0.343959 -0.978958,1.296458 -1.799167,0.02646 -1.322917,-0.02646 -0.899583,0.582083 -0.555625,0.635 -0.687917,-0.132291 -0.502708,-0.582084 -0.370417,-0.9525 -1.296458,-0.264583 -0.105833,-0.582083 0.529167,-0.635 0.211666,-0.449792 -0.47625,-0.502708 0.423334,-1.11125 -0.529167,-1.005417 0.608542,-0.132291 0.07938,-0.820209 0.211666,-0.238125 0.07938,-1.322916 0.635,-0.449792 -0.343958,-0.846667 -0.820208,-0.05292 -0.238125,0.211666 h -0.79375 l -0.3175,-0.820208 -0.582084,0.238125 -0.502708,0.423333 0.132292,-1.190625 -0.529167,-0.714375 1.957917,-1.217083 1.640416,0.291042 h 1.825625 l 1.42875,0.291041 1.137708,-0.105833 z"
       id="ES"
       name="Spain"
       style="stroke-width:0.0217649" /></g></svg>
